<?xml version="1.0" standalone="no"?>
<!DOCTYPE svg PUBLIC "-//W3C//DTD SVG 1.1//EN" "http://www.w3.org/Graphics/SVG/1.1/DTD/svg11.dtd" >
<svg>
<metadata>
Created by FontForge 20120731 at Sat Sep 13 20:03:45 2014
 By World Wide Web Server
Copyright (c) 2013 Monotype GmbH. Metro Nova is a trademark of Monotype GmbH registered in the U.S. Patent and Trademark Office and may be registered in certain other jurisdictions.
</metadata>
<defs>
<font id="MetroNovaPro-Black" horiz-adv-x="640" >
  <font-face 
    font-family="Metro Nova Pro Black"
    font-weight="750"
    font-stretch="normal"
    units-per-em="1000"
    panose-1="2 12 10 4 2 2 3 2 2 3"
    ascent="770"
    descent="-230"
    x-height="499"
    cap-height="772"
    bbox="-240 -237 1233 1021"
    underline-thickness="50"
    underline-position="-50"
    stemh="160"
    stemv="170"
    unicode-range="U+000D-FB02"
  />
<missing-glyph horiz-adv-x="563" 
d="M205 133c44 0 75 -30 75 -73s-30 -74 -74 -74c-45 0 -75 29 -75 74c0 43 30 73 74 73zM262 188l-118 -24v180c106 4 169 38 169 98c0 42 -32 71 -93 71c-33 0 -62 -5 -90 -15l18 122c28 8 59 11 97 11c117 0 205 -63 205 -177c0 -101 -75 -171 -188 -193v-73zM0 -128v870
h563v-870h-563zM68 681v-748h423v748h-423z" />
    <glyph glyph-name=".notdef" horiz-adv-x="563" 
d="M205 133c44 0 75 -30 75 -73s-30 -74 -74 -74c-45 0 -75 29 -75 74c0 43 30 73 74 73zM262 188l-118 -24v180c106 4 169 38 169 98c0 42 -32 71 -93 71c-33 0 -62 -5 -90 -15l18 122c28 8 59 11 97 11c117 0 205 -63 205 -177c0 -101 -75 -171 -188 -193v-73zM0 -128v870
h563v-870h-563zM68 681v-748h423v748h-423z" />
    <glyph glyph-name="NULL" horiz-adv-x="0" 
 />
    <glyph glyph-name="CR" unicode="&#xd;" horiz-adv-x="220" 
 />
    <glyph glyph-name="space" unicode=" " horiz-adv-x="220" 
 />
    <glyph glyph-name="circumflex" unicode="&#x2c6;" horiz-adv-x="332" 
d="M250 578l-84 100l-84 -100h-75l106 189h106l106 -189h-75z" />
    <glyph glyph-name="tilde" unicode="&#x2dc;" horiz-adv-x="372" 
d="M119 633c-29 0 -49 -22 -54 -48l-55 12c10 96 59 155 120 155c44 0 88 -34 123 -34c29 0 49 22 54 48l55 -12c-10 -96 -59 -155 -120 -155c-44 0 -88 34 -123 34z" />
    <glyph glyph-name="dieresis" unicode="&#xa8;" horiz-adv-x="396" 
d="M86 744c46 0 77 -31 77 -77c0 -44 -30 -76 -76 -76c-47 0 -77 30 -77 76s31 77 76 77zM309 744c46 0 77 -31 77 -77c0 -44 -30 -76 -76 -76c-47 0 -77 30 -77 76s31 77 76 77z" />
    <glyph glyph-name="macron" unicode="&#xaf;" horiz-adv-x="314" 
d="M304 723v-112h-294v112h294z" />
    <glyph glyph-name="breve" unicode="&#x2d8;" horiz-adv-x="308" 
d="M154 681c60 0 83 33 83 86h61c0 -114 -38 -189 -144 -189c-110 0 -144 75 -144 189h61c0 -53 23 -86 83 -86z" />
    <glyph glyph-name="ring" unicode="&#x2da;" horiz-adv-x="246" 
d="M10 671c0 61 52 113 113 113s113 -52 113 -113s-52 -113 -113 -113s-113 52 -113 113zM69 671c0 -30 24 -54 54 -54s54 24 54 54s-24 54 -54 54s-54 -24 -54 -54z" />
    <glyph glyph-name="hungarumlaut" unicode="&#x2dd;" horiz-adv-x="376" 
d="M49 767h151l-124 -189h-67zM218 767h152l-124 -189h-67z" />
    <glyph glyph-name="dotaccent" unicode="&#x2d9;" horiz-adv-x="201" 
d="M100 766c54 0 91 -37 91 -91c0 -52 -36 -90 -90 -90c-55 0 -91 36 -91 90s37 91 90 91z" />
    <glyph glyph-name="caron" unicode="&#x2c7;" horiz-adv-x="332" 
d="M7 767h75l84 -100l84 100h75l-106 -189h-106z" />
    <glyph glyph-name="caron.alt" horiz-adv-x="162" 
d="M139 781c9 -19 13 -37 13 -61c0 -39 -22 -84 -83 -147h-59c20 60 26 92 26 127c0 18 -5 40 -12 57z" />
    <glyph glyph-name="cedilla" unicode="&#xb8;" horiz-adv-x="240" 
d="M89 9h58l-31 -60c3 1 10 2 16 2c60 0 98 -33 98 -82c0 -56 -55 -97 -132 -97c-37 0 -69 9 -88 25l6 65c16 -16 45 -24 73 -24c26 0 39 12 39 27c0 19 -18 30 -49 30c-18 0 -33 -2 -43 -5l-2 3z" />
    <glyph glyph-name="commaaccent" unicode="&#xf6c3;" horiz-adv-x="188" 
d="M163 -49c9 -17 15 -41 15 -62c0 -43 -20 -73 -97 -126h-75c40 55 50 84 50 117c0 15 -7 33 -16 47z" />
    <glyph glyph-name="commaaccent.alt" horiz-adv-x="188" 
d="M25 573c-10 19 -15 37 -15 61c0 33 20 69 97 127h76c-40 -52 -51 -83 -51 -117c0 -15 6 -33 16 -47z" />
    <glyph glyph-name="ogonek" unicode="&#x2db;" horiz-adv-x="276" 
d="M101 0v23h165v-23c-89 -14 -122 -56 -122 -98c0 -21 14 -37 42 -37c25 0 52 9 74 35h3l-7 -111c-30 -18 -65 -26 -108 -26c-84 0 -138 39 -138 107c0 46 27 86 91 130z" />
    <glyph glyph-name="grave.cap" horiz-adv-x="245" 
d="M154 810l-149 159h163l70 -159h-84z" />
    <glyph glyph-name="acute.cap" horiz-adv-x="245" 
d="M240 969l-149 -159h-84l70 159h163z" />
    <glyph glyph-name="circumflex.cap" horiz-adv-x="345" 
d="M261 810l-90 82l-87 -82h-76l99 159h131l99 -159h-76z" />
    <glyph glyph-name="tilde.cap" horiz-adv-x="382" 
d="M119 847c-29 0 -52 -22 -54 -48l-55 12c9 96 54 155 110 155c52 0 102 -34 143 -34c31 0 50 21 54 48l55 -12c-9 -96 -54 -155 -110 -155c-52 0 -102 34 -143 34z" />
    <glyph glyph-name="dieresis.cap" horiz-adv-x="422" 
d="M90 978c48 0 81 -33 81 -81c0 -46 -32 -80 -80 -80c-49 0 -81 32 -81 80s33 81 80 81zM331 978c48 0 81 -33 81 -81c0 -46 -32 -80 -80 -80c-49 0 -81 32 -81 80s33 81 80 81z" />
    <glyph glyph-name="macron.cap" horiz-adv-x="354" 
d="M344 941v-102h-334v102h334z" />
    <glyph glyph-name="breve.cap" horiz-adv-x="308" 
d="M154 903c57 0 80 30 83 76h61c0 -84 -38 -169 -144 -169c-110 0 -144 85 -144 169h61c3 -46 26 -76 83 -76z" />
    <glyph glyph-name="ring.cap" horiz-adv-x="238" 
d="M10 907c0 59 50 109 109 109s109 -50 109 -109s-50 -109 -109 -109s-109 50 -109 109zM61 907c0 -31 27 -58 58 -58s58 27 58 58s-27 58 -58 58s-58 -27 -58 -58z" />
    <glyph glyph-name="hungarumlaut.cap" horiz-adv-x="404" 
d="M77 969h154l-150 -159h-74zM246 969h153l-149 -159h-74z" />
    <glyph glyph-name="dotaccent.cap" horiz-adv-x="189" 
d="M94 979c51 0 85 -34 85 -85c0 -49 -33 -84 -84 -84c-52 0 -85 33 -85 84s34 85 84 85z" />
    <glyph glyph-name="caron.cap" horiz-adv-x="345" 
d="M8 969h76l89 -83l88 83h76l-99 -159h-131z" />
    <glyph glyph-name="exclam" unicode="!" horiz-adv-x="334" 
d="M161 163c54 0 91 -37 91 -91c0 -52 -36 -90 -90 -90c-55 0 -91 36 -91 90s37 91 90 91zM65 759l204 24c-9 -198 -47 -417 -93 -572l-31 5c-44 150 -75 370 -80 543z" />
    <glyph glyph-name="quotedbl" unicode="&#x22;" horiz-adv-x="446" 
d="M371 502l-88 -14c-18 85 -30 186 -30 268h148c0 -82 -12 -171 -30 -254zM163 502l-88 -14c-18 85 -30 186 -30 268h148c0 -82 -12 -171 -30 -254z" />
    <glyph glyph-name="numbersign" unicode="#" horiz-adv-x="630" 
d="M85 461l16 111h83l47 180h111l-47 -180h118l47 180h111l-47 -180h81l-16 -111h-94l-42 -160h92l-16 -111h-105l-50 -190h-110l49 190h-118l-50 -190h-110l49 190h-59l16 111h72l42 160h-70zM266 461l-42 -160h118l42 160h-118z" />
    <glyph glyph-name="dollar" unicode="$" 
d="M359 839v-70c59 -4 113 -14 159 -31v-173c-52 35 -108 58 -159 68v-195c169 -76 216 -136 216 -249c0 -114 -87 -188 -216 -207v-132h-87v127c-77 3 -147 21 -195 49l-12 195c68 -57 136 -89 207 -99v196c-168 76 -206 141 -206 246c0 104 80 187 206 203v72h87zM430 184
c0 36 -15 63 -71 94v-157c45 8 71 31 71 63zM211 565c0 -33 13 -57 61 -85v154c-41 -10 -61 -37 -61 -69z" />
    <glyph glyph-name="percent" unicode="%" horiz-adv-x="802" 
d="M685 752l-459 -752h-103l458 752h104zM196 370c-88 0 -146 59 -146 161c0 105 82 211 188 211c88 0 146 -59 146 -161c0 -105 -82 -211 -188 -211zM235 650c-51 0 -89 -58 -89 -126c0 -40 19 -62 53 -62c51 0 89 58 89 126c0 40 -19 62 -53 62zM564 10
c-88 0 -146 59 -146 161c0 105 82 211 188 211c88 0 146 -59 146 -161c0 -105 -82 -211 -188 -211zM603 290c-51 0 -89 -58 -89 -126c0 -40 19 -62 53 -62c51 0 89 58 89 126c0 40 -19 62 -53 62z" />
    <glyph glyph-name="ampersand" unicode="&#x26;" horiz-adv-x="839" 
d="M401 279l16 203c123 4 270 23 392 60l-8 -193c-42 0 -85 -2 -127 -5c5 -20 8 -42 8 -70c0 -165 -139 -291 -324 -291c-190 0 -308 110 -308 252c0 101 51 177 152 225c-51 41 -73 85 -73 132c0 119 113 187 259 187c47 0 95 -5 143 -16l-12 -183c-33 16 -79 25 -120 25
c-69 0 -110 -33 -110 -82c0 -29 8 -52 54 -91v-5c-88 -46 -124 -99 -124 -154c0 -72 58 -125 148 -125c101 0 168 56 168 137c0 15 -2 28 -6 40c-50 -10 -95 -26 -128 -46z" />
    <glyph glyph-name="quotesingle" unicode="'" horiz-adv-x="238" 
d="M163 502l-88 -14c-18 85 -30 186 -30 268h148c0 -82 -12 -171 -30 -254z" />
    <glyph glyph-name="parenleft" unicode="(" horiz-adv-x="372" 
d="M60 349c0 198 52 334 158 453h109c-95 -141 -134 -269 -134 -453s39 -312 134 -453h-109c-106 119 -158 255 -158 453z" />
    <glyph glyph-name="parenright" unicode=")" horiz-adv-x="372" 
d="M312 349c0 -198 -52 -334 -158 -453h-109c95 141 134 269 134 453s-39 312 -134 453h109c106 -119 158 -255 158 -453z" />
    <glyph glyph-name="asterisk" unicode="*" horiz-adv-x="460" 
d="M230 762c38 0 54 -14 54 -34c0 -25 -18 -73 -45 -123h-18c-27 50 -45 98 -45 123c0 20 16 34 54 34zM230 367c-38 0 -54 14 -54 34c0 25 18 73 45 123h18c27 -50 45 -98 45 -123c0 -20 -16 -34 -54 -34zM48 626c0 20 25 71 54 71c5 0 10 -1 15 -4c22 -13 55 -53 84 -101
l-9 -16c-56 2 -107 10 -129 23c-9 5 -15 15 -15 27zM102 432c-28 0 -54 50 -54 71c0 12 6 22 15 27c22 13 73 21 129 23l9 -16c-29 -48 -62 -88 -84 -101c-5 -3 -10 -4 -15 -4zM412 503c0 -23 -28 -71 -54 -71c-5 0 -10 1 -15 4c-22 13 -55 53 -84 101l9 16
c56 -2 107 -10 129 -23c9 -5 15 -15 15 -27zM358 697c27 0 54 -49 54 -71c0 -12 -6 -22 -15 -27c-22 -13 -73 -21 -129 -23l-9 16c29 48 62 88 84 101c5 3 10 4 15 4z" />
    <glyph glyph-name="plus" unicode="+" horiz-adv-x="610" 
d="M237 493h135v-164h173v-141h-173v-165h-135v165h-172v141h172v164z" />
    <glyph glyph-name="comma" unicode="," horiz-adv-x="277" 
d="M169 169c34 -28 56 -77 56 -130c0 -99 -74 -155 -167 -179l-13 26c34 13 60 45 60 90c0 39 -29 81 -69 108z" />
    <glyph glyph-name="hyphen" unicode="-" horiz-adv-x="324" 
d="M289 339v-141h-254v141h254z" />
    <glyph glyph-name="period" unicode="." horiz-adv-x="271" 
d="M135 163c54 0 91 -37 91 -91c0 -52 -36 -90 -90 -90c-55 0 -91 36 -91 90s37 91 90 91z" />
    <glyph glyph-name="slash" unicode="/" horiz-adv-x="480" 
d="M465 780l-309 -810h-141l308 810h142z" />
    <glyph glyph-name="zero" unicode="0" 
d="M313 -16c-181 0 -282 149 -282 397c0 256 123 387 294 387c187 0 283 -131 283 -391c0 -244 -115 -393 -295 -393zM313 130c86 0 123 78 123 256c0 159 -40 244 -116 244c-74 0 -117 -84 -117 -242c0 -166 39 -258 110 -258z" />
    <glyph glyph-name="one" unicode="1" 
d="M424 0h-174v602l-137 -20l31 170h280v-752z" />
    <glyph glyph-name="two" unicode="2" 
d="M110 723c62 29 126 42 204 42c138 0 229 -87 229 -207c0 -92 -30 -157 -106 -248c-37 -44 -99 -110 -150 -159h297l-17 -151h-522v67c105 107 209 230 270 313c36 49 56 92 56 130c0 55 -33 91 -106 91c-62 0 -129 -22 -191 -66z" />
    <glyph glyph-name="three" unicode="3" 
d="M414 397c86 -36 127 -97 127 -179c0 -147 -103 -231 -286 -231c-56 0 -113 9 -167 27l-9 166c42 -22 100 -35 158 -35c84 0 131 30 131 86c0 54 -48 87 -122 87c-47 0 -93 -5 -132 -14l39 160c23 -2 53 -3 80 -3c82 0 125 32 125 89c0 41 -36 68 -89 68
c-57 0 -113 -15 -159 -47l30 171c45 15 92 23 144 23c151 0 242 -70 242 -184c0 -84 -39 -141 -112 -184z" />
    <glyph glyph-name="four" unicode="4" 
d="M349 0v212h-329v122l311 418h180v-398h99v-142h-99v-212h-162zM158 354h191v252z" />
    <glyph glyph-name="five" unicode="5" 
d="M558 752l-21 -149h-275l-15 -112h2c183 0 302 -93 302 -239c0 -186 -142 -299 -387 -299c-34 0 -66 3 -95 9l13 158c32 -6 61 -9 101 -9c134 0 204 47 204 135c0 62 -56 111 -186 111c-36 0 -80 -4 -115 -13l51 408h421z" />
    <glyph glyph-name="six" unicode="6" 
d="M527 614c-158 0 -256 -64 -303 -169c35 19 78 30 124 30c149 0 246 -95 246 -236c0 -149 -118 -253 -272 -253c-185 0 -276 129 -276 290c0 304 186 497 507 504zM306 359c-45 0 -85 -15 -112 -43c-1 -13 -1 -26 -1 -39c0 -83 48 -141 125 -141c66 0 109 43 109 107
c0 72 -48 116 -121 116z" />
    <glyph glyph-name="seven" unicode="7" 
d="M81 752h496c-96 -289 -170 -550 -215 -752h-209c68 210 145 416 222 587l-345 -13z" />
    <glyph glyph-name="eight" unicode="8" 
d="M585 200c0 -120 -117 -213 -266 -213c-159 0 -265 82 -265 206c0 90 49 157 153 198c-94 51 -124 103 -124 176c0 100 92 205 247 205c160 0 244 -97 244 -193c0 -78 -40 -136 -128 -175c89 -49 139 -106 139 -204zM414 217c0 45 -35 82 -104 111
c-69 -30 -97 -65 -97 -108c0 -48 43 -88 95 -88c62 0 106 33 106 85zM249 558c0 -38 29 -70 93 -95c54 29 76 60 76 94c0 45 -34 76 -84 76c-53 0 -85 -30 -85 -75z" />
    <glyph glyph-name="nine" unicode="9" 
d="M242 -31l-124 144c122 43 210 102 261 177c-15 -3 -30 -4 -42 -4c-175 0 -296 89 -296 235c0 135 111 250 264 250c182 0 284 -131 284 -298c0 -225 -105 -380 -347 -504zM373 390c18 0 36 1 52 5c6 24 9 49 9 76c0 90 -58 151 -132 151c-58 0 -97 -41 -97 -102
c0 -70 57 -130 168 -130z" />
    <glyph glyph-name="colon" unicode=":" horiz-adv-x="271" 
d="M135 513c54 0 91 -37 91 -91c0 -52 -36 -90 -90 -90c-55 0 -91 36 -91 90s37 91 90 91zM135 163c54 0 91 -37 91 -91c0 -52 -36 -90 -90 -90c-55 0 -91 36 -91 90s37 91 90 91z" />
    <glyph glyph-name="semicolon" unicode=";" horiz-adv-x="271" 
d="M168 169c34 -28 56 -77 56 -130c0 -99 -74 -155 -167 -179l-13 26c34 13 60 45 60 90c0 39 -29 81 -69 108zM135 513c54 0 91 -37 91 -91c0 -52 -36 -90 -90 -90c-55 0 -91 36 -91 90s37 91 90 91z" />
    <glyph glyph-name="less" unicode="&#x3c;" horiz-adv-x="610" 
d="M540 381l-342 -124l342 -123v-123l-470 180v133l470 180v-123z" />
    <glyph glyph-name="equal" unicode="=" horiz-adv-x="610" 
d="M565 429v-121h-520v121h520zM565 209v-121h-520v121h520z" />
    <glyph glyph-name="greater" unicode="&#x3e;" horiz-adv-x="610" 
d="M70 11v123l341 123l-341 124v123l470 -180v-133z" />
    <glyph glyph-name="question" unicode="?" horiz-adv-x="496" 
d="M156 163c54 0 91 -37 91 -91c0 -52 -36 -90 -90 -90c-55 0 -91 36 -91 90s37 91 90 91zM225 236l-143 -30v221c133 5 213 49 213 125c0 56 -43 93 -120 93c-42 0 -78 -6 -110 -18l22 147c35 10 73 14 119 14c147 0 255 -78 255 -221c0 -125 -94 -212 -236 -239v-92z" />
    <glyph glyph-name="at" unicode="@" horiz-adv-x="936" 
d="M696 464l-53 -270c-4 -21 -6 -39 -6 -54c0 -14 10 -23 30 -23c67 0 122 62 122 171c0 170 -124 285 -300 285c-207 0 -346 -156 -346 -345c0 -207 146 -328 329 -328c79 0 161 23 219 68l46 -96c-65 -45 -161 -73 -266 -73c-252 0 -436 163 -436 428
c0 243 182 447 454 447c231 0 412 -150 412 -384c0 -184 -124 -284 -265 -284c-78 0 -117 26 -129 67c-36 -37 -85 -57 -142 -57c-89 0 -142 63 -142 169c0 172 112 301 236 301c52 0 92 -28 107 -58l7 36h123zM550 344c-9 22 -37 40 -71 40c-71 0 -127 -78 -127 -174
c0 -55 24 -88 68 -88c36 0 72 19 98 56z" />
    <glyph glyph-name="A" unicode="A" horiz-adv-x="805" 
d="M0 0l347 768l126 19l332 -787h-198l-64 167h-283l-62 -167h-198zM403 545l-100 -248h195z" />
    <glyph glyph-name="B" unicode="B" horiz-adv-x="669" 
d="M593 589c0 -69 -37 -133 -106 -166c94 -33 142 -99 142 -194c0 -137 -121 -229 -303 -229h-241v772h253c167 0 255 -79 255 -183zM260 328v-190h64c90 0 126 41 126 95s-41 95 -119 95h-71zM260 635v-180h47c84 0 117 42 117 96c0 44 -33 84 -98 84h-66z" />
    <glyph glyph-name="C" unicode="C" horiz-adv-x="743" 
d="M683 716l-15 -207h-3c-43 66 -123 109 -218 109c-139 0 -225 -101 -225 -232c0 -132 89 -230 227 -230c95 0 177 45 241 137h3l-18 -230c-65 -48 -157 -76 -244 -76c-230 0 -391 158 -391 402c0 210 159 396 393 396c100 0 183 -23 250 -69z" />
    <glyph glyph-name="D" unicode="D" horiz-adv-x="783" 
d="M316 0h-231v772h233c271 0 425 -154 425 -376c0 -253 -150 -396 -427 -396zM260 613v-453h64c156 0 240 83 240 236c0 119 -83 217 -238 217h-66z" />
    <glyph glyph-name="E" unicode="E" horiz-adv-x="600" 
d="M260 619v-149h239v-142h-239v-176h285v-152h-460v772h460v-153h-285z" />
    <glyph glyph-name="F" unicode="F" horiz-adv-x="575" 
d="M545 772v-153h-285v-167h259v-152h-259v-300h-175v772h460z" />
    <glyph glyph-name="G" unicode="G" horiz-adv-x="764" 
d="M714 372v-298c-86 -56 -185 -87 -285 -87c-230 0 -389 151 -389 392c0 209 144 406 406 406c88 0 169 -21 238 -62l-17 -200h-3c-43 57 -123 102 -215 102c-141 0 -227 -96 -227 -245c0 -144 82 -237 215 -237c40 0 72 8 94 23v206h183z" />
    <glyph glyph-name="H" unicode="H" horiz-adv-x="819" 
d="M260 0h-175v772h175v-291h299v291h175v-772h-175v321h-299v-321z" />
    <glyph glyph-name="I" unicode="I" horiz-adv-x="345" 
d="M260 0h-175v772h175v-772z" />
    <glyph glyph-name="J" unicode="J" horiz-adv-x="345" 
d="M85 772h175v-629c0 -174 -24 -268 -82 -333l-223 -47l-4 11c99 79 134 147 134 357v641z" />
    <glyph glyph-name="K" unicode="K" horiz-adv-x="785" 
d="M260 0h-175v772h175v-345l278 345h229l-327 -375l350 -397h-236l-294 359v-359z" />
    <glyph glyph-name="L" unicode="L" horiz-adv-x="611" 
d="M85 0v772h175v-612h336v-160h-511z" />
    <glyph glyph-name="M" unicode="M" horiz-adv-x="1094" 
d="M85 0v772h180l280 -535l282 535h182v-772h-169v470l-247 -470h-92l-247 470v-470h-169z" />
    <glyph glyph-name="N" unicode="N" horiz-adv-x="893" 
d="M638 772h170v-772h-137l-416 490v-490h-170v772h137l416 -488v488z" />
    <glyph glyph-name="O" unicode="O" horiz-adv-x="854" 
d="M635 386c0 138 -88 241 -208 241c-121 0 -208 -103 -208 -241s88 -241 208 -241c121 0 208 103 208 241zM814 386c0 -233 -161 -401 -387 -401c-227 0 -387 168 -387 401s161 401 387 401c227 0 387 -168 387 -401z" />
    <glyph glyph-name="P" unicode="P" horiz-adv-x="647" 
d="M260 0h-175v772h233c185 0 299 -91 299 -248c0 -182 -114 -272 -320 -272h-37v-252zM260 624v-224h47c91 0 141 40 141 114c0 69 -48 110 -135 110h-53z" />
    <glyph glyph-name="Q" unicode="Q" horiz-adv-x="862" 
d="M431 1c-29 0 -59 3 -87 11v-2c52 -13 133 -42 212 -59c54 -12 113 -18 172 -19l-51 -169c-58 3 -120 15 -181 36c-102 36 -188 80 -265 111c-36 14 -73 25 -101 31l70 141c-93 71 -160 181 -160 305c0 233 163 400 391 400c229 0 391 -167 391 -400
c0 -223 -163 -386 -391 -386zM635 387c0 136 -86 236 -204 236c-119 0 -204 -100 -204 -236c0 -138 85 -242 204 -242s204 104 204 242z" />
    <glyph glyph-name="R" unicode="R" horiz-adv-x="706" 
d="M85 0v772h239c186 0 297 -87 297 -238c0 -97 -61 -174 -160 -215l250 -319h-219l-212 287h-20v-287h-175zM260 624v-225h10c117 0 172 49 172 115c0 74 -52 110 -139 110h-43z" />
    <glyph glyph-name="S" unicode="S" horiz-adv-x="560" 
d="M58 232c73 -60 137 -91 205 -91c55 0 86 26 86 72c0 43 -28 69 -138 134c-133 78 -161 141 -161 239c0 117 98 201 236 201c66 0 131 -12 190 -34v-187c-79 48 -129 69 -177 69c-47 0 -72 -29 -72 -57c0 -38 15 -56 138 -125c127 -71 164 -135 164 -243
c0 -135 -110 -226 -275 -226c-70 0 -129 11 -182 40l-17 208h3z" />
    <glyph glyph-name="T" unicode="T" horiz-adv-x="707" 
d="M441 0h-175v612h-246v160h667v-160h-246v-612z" />
    <glyph glyph-name="U" unicode="U" horiz-adv-x="786" 
d="M78 772h175v-464c0 -104 64 -150 140 -150s140 46 140 150v464h175v-474c0 -218 -136 -312 -315 -312s-315 91 -315 302v484z" />
    <glyph glyph-name="V" unicode="V" horiz-adv-x="810" 
d="M0 772h204l194 -526l208 526h204l-341 -772h-146z" />
    <glyph glyph-name="W" unicode="W" horiz-adv-x="1233" 
d="M768 0l-153 361l-158 -361h-131l-326 772h202l200 -533l135 305l-96 228h203l191 -507l211 507h187l-338 -772h-127z" />
    <glyph glyph-name="X" unicode="X" horiz-adv-x="804" 
d="M7 0l285 399l-281 373h229l162 -231l150 231h220l-269 -362l301 -410h-229l-184 269l-183 -269h-201z" />
    <glyph glyph-name="Y" unicode="Y" horiz-adv-x="738" 
d="M442 0h-175v368l-271 404h213l153 -258l167 258h213l-300 -404v-368z" />
    <glyph glyph-name="Z" unicode="Z" horiz-adv-x="731" 
d="M675 0h-689l426 602h-350l15 170h658l-439 -603h408z" />
    <glyph glyph-name="bracketleft" unicode="[" horiz-adv-x="372" 
d="M70 -104v906h272v-81h-142v-744h142v-81h-272z" />
    <glyph glyph-name="backslash" unicode="\" horiz-adv-x="510" 
d="M339 -30l-309 810h142l308 -810h-141z" />
    <glyph glyph-name="bracketright" unicode="]" horiz-adv-x="372" 
d="M302 802v-906h-272v81h142v744h-142v81h272z" />
    <glyph glyph-name="asciicircum" unicode="^" horiz-adv-x="485" 
d="M340 410l-98 202l-98 -202h-134l154 320h157l154 -320h-135z" />
    <glyph glyph-name="underscore" unicode="_" horiz-adv-x="500" 
d="M500 -71v-91h-500v91h500z" />
    <glyph glyph-name="a" unicode="a" horiz-adv-x="528" 
d="M86 333v136c48 30 112 46 174 46c144 0 206 -71 206 -198v-302l-161 -32v55c-43 -32 -91 -52 -148 -52c-83 0 -132 41 -132 117c0 75 48 123 134 159c45 19 95 32 146 38v17c0 37 -22 65 -77 65c-47 0 -102 -17 -139 -49h-3zM305 143v90c-29 -6 -60 -18 -80 -31
c-21 -14 -32 -29 -32 -54c0 -27 15 -40 43 -40c22 0 52 11 69 35z" />
    <glyph glyph-name="b" unicode="b" horiz-adv-x="633" 
d="M304 -17c-43 0 -92 14 -118 35l-116 -31v760l165 33v-297c33 22 66 33 118 33c136 0 245 -95 245 -252c0 -170 -114 -281 -294 -281zM306 387c-30 0 -53 -8 -71 -24v-245c13 -7 33 -12 55 -12c85 0 138 49 138 144c0 84 -48 137 -122 137z" />
    <glyph glyph-name="c" unicode="c" horiz-adv-x="500" 
d="M470 195l-21 -173c-33 -21 -92 -39 -154 -39c-159 0 -260 99 -260 259c0 158 103 274 287 274c53 0 103 -12 137 -32l-15 -159c-30 28 -68 45 -116 45c-75 0 -123 -48 -123 -128c0 -66 44 -113 116 -113c61 0 105 20 146 66h3z" />
    <glyph glyph-name="d" unicode="d" horiz-adv-x="635" 
d="M414 -16l4 52c-37 -34 -90 -53 -148 -53c-148 0 -235 114 -235 255c0 155 113 278 270 278c35 0 67 -7 95 -20v252l165 32v-765zM323 115c30 0 59 9 77 26v230c-18 9 -41 14 -67 14c-77 0 -128 -53 -128 -144c0 -81 44 -126 118 -126z" />
    <glyph glyph-name="e" unicode="e" horiz-adv-x="524" 
d="M328 223c-41 -12 -99 -24 -147 -31c13 -41 48 -71 116 -71c67 0 126 30 169 78h3l-14 -162c-43 -36 -107 -54 -172 -54c-169 0 -251 114 -251 239c0 148 119 295 285 295c106 0 167 -59 167 -136s-50 -128 -156 -158zM275 400c-44 0 -90 -55 -98 -139c32 7 61 16 82 25
c43 18 62 39 62 68c0 30 -17 46 -46 46z" />
    <glyph glyph-name="f" unicode="f" horiz-adv-x="393" 
d="M258 525v-26h125v-135h-125v-364h-165v364h-78v135h78v57c0 99 37 172 111 199l186 25v-66c-105 -24 -132 -80 -132 -189z" />
    <glyph glyph-name="g" unicode="g" horiz-adv-x="535" 
d="M255 515c42 0 81 -10 114 -26c40 54 80 73 146 73v-130c-22 0 -45 -4 -65 -13c15 -24 24 -50 24 -77c0 -88 -58 -140 -174 -169c-28 -7 -62 -13 -83 -18c-14 -3 -19 -7 -19 -14c0 -9 10 -13 39 -18c37 -6 106 -16 142 -23c93 -17 130 -61 130 -132
c0 -117 -124 -205 -279 -205c-122 0 -194 71 -194 149c0 43 20 77 67 107c-45 15 -78 44 -78 78c0 43 48 79 114 112c-61 29 -98 76 -98 134c0 94 92 172 214 172zM307 -22c-35 7 -85 12 -135 22c-11 -11 -19 -29 -19 -48c0 -38 33 -61 93 -61c61 0 102 24 102 50
c0 17 -8 30 -41 37zM182 330c0 -31 18 -56 51 -72c4 -2 9 -3 13 -3c5 0 8 1 13 3c41 17 58 40 58 70c0 36 -25 68 -68 68c-38 0 -67 -26 -67 -66z" />
    <glyph glyph-name="h" unicode="h" horiz-adv-x="619" 
d="M70 0v748l165 32v-342c57 55 100 76 162 76c103 0 160 -60 160 -172v-342h-165v285c0 54 -21 79 -64 79c-27 0 -51 -10 -65 -26c-19 -21 -28 -40 -28 -78v-260h-165z" />
    <glyph glyph-name="i" unicode="i" horiz-adv-x="305" 
d="M70 483l165 33v-516h-165v483zM153 766c54 0 91 -37 91 -91c0 -52 -36 -90 -90 -90c-55 0 -91 36 -91 90s37 91 90 91z" />
    <glyph glyph-name="j" unicode="j" horiz-adv-x="305" 
d="M70 483l165 33v-516c0 -111 -17 -159 -46 -193l-210 -44l-6 16c61 37 97 111 97 210v494zM151 766c54 0 91 -37 91 -91c0 -52 -36 -90 -90 -90c-55 0 -91 36 -91 90s37 91 90 91z" />
    <glyph glyph-name="k" unicode="k" horiz-adv-x="614" 
d="M235 780v-492l161 211h205l-207 -230l240 -269h-229l-170 242v-242h-165v747z" />
    <glyph glyph-name="l" unicode="l" horiz-adv-x="305" 
d="M235 780v-780h-165v747z" />
    <glyph glyph-name="m" unicode="m" horiz-adv-x="915" 
d="M688 0v292c0 46 -21 72 -61 72c-29 0 -51 -12 -65 -32c-12 -17 -17 -33 -18 -57v-275h-165v292c0 46 -21 72 -61 72c-29 0 -50 -12 -65 -33c-13 -18 -18 -38 -18 -67v-264h-165v499h165v-57c27 42 80 72 144 72c71 0 121 -37 146 -85c36 52 94 85 163 85
c107 0 165 -70 165 -162v-352h-165z" />
    <glyph glyph-name="n" unicode="n" horiz-adv-x="619" 
d="M70 0v499h165v-61c57 55 100 76 162 76c103 0 160 -60 160 -172v-342h-165v285c0 54 -21 79 -64 79c-27 0 -51 -10 -65 -26c-19 -21 -28 -40 -28 -78v-260h-165z" />
    <glyph glyph-name="o" unicode="o" horiz-adv-x="620" 
d="M310 115c65 0 105 46 105 141c0 75 -40 130 -105 130c-62 0 -105 -47 -105 -130c0 -85 36 -141 105 -141zM310 -17c-158 0 -275 103 -275 273c0 161 120 260 275 260c158 0 275 -97 275 -260c0 -183 -130 -273 -275 -273z" />
    <glyph glyph-name="p" unicode="p" horiz-adv-x="625" 
d="M70 499h166c29 9 59 13 89 13c149 0 265 -97 265 -258c0 -164 -105 -271 -272 -271c-33 0 -59 5 -83 15v-203l-165 -32v736zM288 390c-24 0 -41 -4 -53 -14v-258c11 -8 33 -13 55 -13c80 0 130 54 130 145c0 85 -51 140 -132 140z" />
    <glyph glyph-name="q" unicode="q" horiz-adv-x="631" 
d="M561 499v-703l-165 -33v254c-33 -22 -72 -33 -118 -33c-147 0 -243 101 -243 260c0 166 110 272 276 272c34 0 70 -6 97 -17h153zM329 119c29 0 53 7 67 20v241c-12 8 -37 14 -63 14c-83 0 -128 -56 -128 -146c0 -80 43 -129 124 -129z" />
    <glyph glyph-name="r" unicode="r" horiz-adv-x="415" 
d="M405 506v-172c-28 7 -64 11 -93 11c-48 0 -77 -24 -77 -66v-279h-165v499h165v-73c31 48 75 85 134 85c14 0 26 -2 36 -5z" />
    <glyph glyph-name="s" unicode="s" horiz-adv-x="460" 
d="M49 31l8 145c47 -47 116 -75 172 -75c31 0 47 12 47 29c0 14 -7 25 -30 36c-27 13 -70 30 -106 48c-76 38 -100 86 -100 155c0 83 70 147 181 147c70 0 127 -11 175 -35l-29 -141c-35 33 -96 58 -136 58c-29 0 -42 -10 -42 -26c0 -15 7 -26 27 -35c26 -12 74 -32 104 -46
c79 -37 105 -88 105 -155c0 -91 -71 -153 -192 -153c-80 0 -142 20 -184 48z" />
    <glyph glyph-name="t" unicode="t" horiz-adv-x="410" 
d="M15 499h89v131l165 30v-161h126v-135h-126v-197c0 -94 20 -124 75 -155v-10l-173 -19c-43 20 -67 61 -67 158v223h-89v135z" />
    <glyph glyph-name="u" unicode="u" horiz-adv-x="610" 
d="M62 499h165v-290c0 -49 23 -72 63 -72c31 0 57 13 74 46c8 15 11 30 11 50v266h165v-484l-165 -32v78c-41 -49 -91 -75 -157 -75c-104 0 -156 65 -156 175v338z" />
    <glyph glyph-name="v" unicode="v" horiz-adv-x="566" 
d="M-5 499h177l101 -326l121 326h177l-216 -499h-173z" />
    <glyph glyph-name="w" unicode="w" horiz-adv-x="866" 
d="M359 499h150l80 -326l115 326h167l-209 -499h-165l-70 252l-87 -252h-166l-179 499h168l95 -325z" />
    <glyph glyph-name="x" unicode="x" horiz-adv-x="580" 
d="M569 499l-192 -237l197 -262h-196l-96 139l-105 -139h-182l202 247l-188 252h202l83 -128l93 128h182z" />
    <glyph glyph-name="y" unicode="y" horiz-adv-x="571" 
d="M52 -234c59 59 117 145 153 228l-210 505h178l112 -308l124 308h167l-219 -512c-47 -110 -80 -174 -113 -224h-192v3z" />
    <glyph glyph-name="z" unicode="z" horiz-adv-x="528" 
d="M478 0h-491l270 352h-213l15 147h464l-272 -352h252z" />
    <glyph glyph-name="braceleft" unicode="{" horiz-adv-x="372" 
d="M20 312v76c73 6 100 55 100 115v139c0 115 68 160 212 160v-77c-59 0 -86 -25 -86 -96v-147c0 -80 -41 -118 -110 -132c69 -14 110 -52 110 -132v-147c0 -73 27 -96 86 -96v-77c-144 0 -212 45 -212 160v139c0 60 -27 109 -100 115z" />
    <glyph glyph-name="bar" unicode="|" horiz-adv-x="303" 
d="M213 -110h-123v902h123v-902z" />
    <glyph glyph-name="braceright" unicode="}" horiz-adv-x="372" 
d="M352 388v-76c-73 -6 -100 -55 -100 -115v-139c0 -115 -68 -160 -212 -160v77c59 0 86 23 86 96v147c0 80 41 118 110 132c-69 14 -110 52 -110 132v147c0 71 -27 96 -86 96v77c144 0 212 -45 212 -160v-139c0 -60 27 -109 100 -115z" />
    <glyph glyph-name="asciitilde" unicode="~" horiz-adv-x="600" 
d="M580 241c-31 -62 -81 -104 -146 -104c-92 0 -155 88 -242 88c-46 0 -80 -29 -107 -78l-65 149c33 62 87 104 156 104c92 0 158 -88 242 -88c46 0 80 29 107 78z" />
    <glyph glyph-name="uni00A0" unicode="&#xa0;" horiz-adv-x="220" 
 />
    <glyph glyph-name="exclamdown" unicode="&#xa1;" horiz-adv-x="334" 
d="M173 322c-54 0 -91 37 -91 91c0 52 36 90 90 90c55 0 91 -36 91 -90s-37 -91 -90 -91zM269 -213l-204 -24c9 180 47 374 93 511l31 -5c44 -132 75 -327 80 -482z" />
    <glyph glyph-name="cent" unicode="&#xa2;" 
d="M532 666l-39 -162c20 -5 38 -12 54 -20l-15 -159c-22 19 -45 34 -72 43l-60 -249c59 4 104 28 146 77h2l-20 -164c-34 -25 -96 -47 -161 -49l-37 -153h-89l39 162c-115 26 -183 117 -183 250c0 158 106 274 297 274h12l37 150h89zM247 242c0 -50 24 -89 67 -109l59 246
c-78 -6 -126 -57 -126 -137z" />
    <glyph glyph-name="sterling" unicode="&#xa3;" 
d="M508 448l-35 -126c-48 2 -107 4 -164 4c6 -32 11 -63 11 -93c0 -16 -2 -32 -4 -46c45 -24 90 -50 147 -50c51 0 92 20 135 73h3l-20 -179c-30 -28 -77 -47 -125 -47c-83 0 -143 53 -196 82c-41 -50 -80 -74 -129 -74c-61 0 -92 41 -92 96c0 78 59 134 164 134h6
c0 35 -8 68 -19 101c-48 -3 -96 -9 -141 -16l39 135l52 5c-15 39 -27 77 -27 117c0 122 94 208 241 208c77 0 141 -17 204 -53l-31 -157c-55 49 -104 66 -157 66c-67 0 -98 -34 -98 -91c0 -28 4 -57 9 -85c68 0 164 -2 227 -4z" />
    <glyph glyph-name="currency" unicode="&#xa4;" 
d="M42 123l75 75c-19 34 -30 73 -30 115s11 81 30 115l-75 75l88 88l75 -75c34 19 73 30 115 30s81 -11 115 -30l75 75l88 -88l-75 -75c19 -34 30 -73 30 -115s-11 -81 -30 -115l75 -75l-88 -88l-75 75c-34 -19 -73 -30 -115 -30s-81 11 -115 30l-75 -75zM210 313
c0 -61 49 -110 110 -110c60 0 110 49 110 110c0 60 -50 110 -110 110c-61 0 -110 -50 -110 -110z" />
    <glyph glyph-name="yen" unicode="&#xa5;" 
d="M584 322v-90h-178v-232h-173v232h-179v90h179l-44 90h-135v90h91l-123 250h172l125 -291l126 291h172l-123 -250h90v-90h-134l-44 -90h178z" />
    <glyph glyph-name="brokenbar" unicode="&#xa6;" horiz-adv-x="303" 
d="M213 -110h-123v322h123v-322zM213 470h-123v322h123v-322z" />
    <glyph glyph-name="section" unicode="&#xa7;" horiz-adv-x="495" 
d="M19 329c0 53 33 107 102 119c-52 40 -71 78 -71 131c0 83 75 157 200 157c69 0 130 -13 182 -38l-16 -143h-3c-64 50 -125 71 -173 71c-35 0 -55 -19 -55 -42c0 -19 9 -33 36 -51c54 -36 112 -59 167 -95c64 -42 88 -79 88 -142c0 -54 -33 -108 -103 -120
c53 -40 72 -80 72 -130c0 -80 -78 -157 -200 -157c-74 0 -133 16 -170 40l-13 149h3c63 -58 131 -79 190 -79c35 0 55 19 55 42s-12 42 -52 65c-50 29 -102 46 -157 80c-59 36 -82 78 -82 143zM129 351c0 -27 22 -49 68 -79c49 -32 89 -47 121 -47c29 0 48 19 48 49
s-26 53 -69 79c-54 32 -89 47 -118 47c-35 0 -50 -22 -50 -49z" />
    <glyph glyph-name="copyright" unicode="&#xa9;" horiz-adv-x="893" 
d="M45 385c0 222 179 402 401 402s402 -180 402 -402s-180 -400 -402 -400s-401 178 -401 400zM129 385c0 -174 143 -316 317 -316c175 0 318 142 318 316c0 175 -143 318 -318 318c-174 0 -317 -143 -317 -318zM634 325l-17 -129c-38 -32 -97 -53 -161 -53
c-142 0 -231 91 -231 239c0 146 86 254 244 254c61 0 114 -17 155 -46l-15 -119c-37 38 -78 61 -136 61c-89 0 -137 -58 -137 -150c0 -74 44 -135 131 -135c68 0 119 25 164 78h3z" />
    <glyph glyph-name="guillemotleft" unicode="&#xab;" horiz-adv-x="525" 
d="M160 82l-130 165l130 165h115l-99 -165l99 -165h-115zM370 82l-130 165l130 165h115l-99 -165l99 -165h-115z" />
    <glyph glyph-name="logicalnot" unicode="&#xac;" horiz-adv-x="610" 
d="M73 413h510v-350h-141v219h-369v131z" />
    <glyph glyph-name="uni00AD" unicode="&#xad;" horiz-adv-x="324" 
d="M289 339v-141h-254v141h254z" />
    <glyph glyph-name="registered" unicode="&#xae;" horiz-adv-x="574" 
d="M25 525c0 146 116 262 262 262s262 -116 262 -262s-116 -262 -262 -262s-262 116 -262 262zM85 525c0 -111 91 -202 202 -202s202 91 202 202s-91 202 -202 202s-202 -91 -202 -202zM181 374v312h87c82 0 127 -36 127 -104c0 -47 -23 -78 -62 -95l77 -113h-75l-60 98
c-11 -1 -23 -1 -35 -1v-97h-59zM240 628v-99c64 0 92 15 92 52c0 28 -19 47 -67 47h-25z" />
    <glyph glyph-name="degree" unicode="&#xb0;" horiz-adv-x="356" 
d="M35 639c0 80 63 143 143 143c77 0 143 -63 143 -143s-63 -143 -143 -143s-143 63 -143 143zM110 639c0 -38 30 -68 68 -68c37 0 68 30 68 68s-30 68 -68 68s-68 -30 -68 -68z" />
    <glyph glyph-name="plusminus" unicode="&#xb1;" horiz-adv-x="610" 
d="M565 382v-111h-193v-108h-125v108h-202v111h202v121h125v-121h193zM565 129v-111h-520v111h520z" />
    <glyph glyph-name="multiply" unicode="&#xd7;" horiz-adv-x="610" 
d="M65 111l148 148l-158 158l92 92l158 -158l158 158l92 -92l-158 -158l148 -148l-92 -92l-148 148l-148 -148z" />
    <glyph glyph-name="divide" unicode="&#xf7;" horiz-adv-x="610" 
d="M565 319v-121h-520v121h520zM304 168c47 0 78 -31 78 -78c0 -46 -31 -75 -75 -75c-49 0 -78 29 -78 75c0 47 29 78 75 78zM304 502c47 0 78 -31 78 -78c0 -46 -31 -75 -75 -75c-49 0 -78 29 -78 75c0 47 29 78 75 78z" />
    <glyph glyph-name="mu" unicode="&#xb5;" horiz-adv-x="586" 
d="M277 -14c-31 0 -50 19 -56 44v-236l-161 -31v736h161v-280c0 -54 27 -72 61 -72c22 0 39 7 55 23c17 17 28 47 28 73v256h161v-484l-161 -32v68c-20 -44 -51 -65 -88 -65z" />
    <glyph glyph-name="paragraph" unicode="&#xb6;" horiz-adv-x="687" 
d="M212 772h435v-101h-92v-803h-112v803h-119v-803h-112v516c-118 0 -192 76 -192 194s74 194 192 194z" />
    <glyph glyph-name="periodcentered" unicode="&#xb7;" horiz-adv-x="271" 
d="M135 348c54 0 91 -37 91 -91c0 -52 -36 -90 -90 -90c-55 0 -91 36 -91 90s37 91 90 91z" />
    <glyph glyph-name="guillemotright" unicode="&#xbb;" horiz-adv-x="525" 
d="M155 412l130 -165l-130 -165h-115l99 165l-99 165h115zM365 412l130 -165l-130 -165h-115l99 165l-99 165h115z" />
    <glyph glyph-name="onequarter" unicode="&#xbc;" horiz-adv-x="855" 
d="M714 780l-519 -810h-106l518 810h107zM230 360h-111v304l-89 -4l14 92h186v-392zM666 0v88h-199v60l188 244h110v-225h59v-79h-59v-88h-99zM552 167h114v147z" />
    <glyph glyph-name="onehalf" unicode="&#xbd;" horiz-adv-x="855" 
d="M689 780l-519 -810h-106l518 810h107zM230 360h-111v304l-89 -4l14 92h186v-392zM713 148c-24 -22 -50 -41 -77 -58h168l-11 -90h-289v83c34 21 74 51 105 79c44 41 61 67 61 100c0 25 -19 44 -56 44c-38 0 -67 -10 -104 -40l11 109c31 18 72 27 116 27
c98 0 146 -52 146 -117c0 -45 -18 -89 -70 -137z" />
    <glyph glyph-name="threequarters" unicode="&#xbe;" horiz-adv-x="855" 
d="M733 780l-519 -810h-106l518 810h107zM670 0v88h-199v60l188 244h110v-225h59v-79h-59v-88h-99zM556 167h114v147zM300 668c0 -41 -26 -78 -72 -95c57 -16 90 -44 90 -95c0 -79 -67 -128 -166 -128c-48 0 -82 5 -109 14l-5 105c34 -20 65 -26 112 -26c38 0 59 18 59 39
c0 23 -24 38 -64 38c-31 0 -60 -4 -81 -10l18 91c12 -1 31 -2 47 -2c37 0 62 12 62 38c0 18 -19 34 -55 34c-35 0 -59 -6 -83 -22l21 101c25 8 58 12 95 12c84 0 131 -41 131 -94z" />
    <glyph glyph-name="questiondown" unicode="&#xbf;" horiz-adv-x="465" 
d="M310 322c-54 0 -91 37 -91 91c0 52 36 90 90 90c55 0 91 -36 91 -90s-37 -91 -90 -91zM241 249l143 30v-185c-115 -5 -183 -45 -183 -113c0 -46 31 -75 90 -75c38 0 70 5 100 16l-12 -145c-35 -10 -73 -14 -119 -14c-129 0 -225 72 -225 203c0 119 82 201 206 227v56z
" />
    <glyph glyph-name="Agrave" unicode="&#xc0;" horiz-adv-x="805" 
d="M0 0l347 768l126 19l332 -787h-198l-64 167h-283l-62 -167h-198zM403 545l-100 -248h195zM395 810l-149 159h163l70 -159h-84z" />
    <glyph glyph-name="Aacute" unicode="&#xc1;" horiz-adv-x="805" 
d="M0 0l347 768l126 19l332 -787h-198l-64 167h-283l-62 -167h-198zM403 545l-100 -248h195zM584 969l-149 -159h-84l70 159h163z" />
    <glyph glyph-name="Acircumflex" unicode="&#xc2;" horiz-adv-x="805" 
d="M0 0l347 768l126 19l332 -787h-198l-64 167h-283l-62 -167h-198zM403 545l-100 -248h195zM504 810l-90 82l-87 -82h-76l99 159h131l99 -159h-76z" />
    <glyph glyph-name="Atilde" unicode="&#xc3;" horiz-adv-x="805" 
d="M0 0l347 768l126 19l332 -787h-198l-64 167h-283l-62 -167h-198zM403 545l-100 -248h195zM343 847c-29 0 -52 -22 -54 -48l-55 12c9 96 54 155 110 155c52 0 102 -34 143 -34c31 0 50 21 54 48l55 -12c-9 -96 -54 -155 -110 -155c-52 0 -102 34 -143 34z" />
    <glyph glyph-name="Adieresis" unicode="&#xc4;" horiz-adv-x="805" 
d="M0 0l347 768l126 19l332 -787h-198l-64 167h-283l-62 -167h-198zM403 545l-100 -248h195zM294 978c48 0 81 -33 81 -81c0 -46 -32 -80 -80 -80c-49 0 -81 32 -81 80s33 81 80 81zM535 978c48 0 81 -33 81 -81c0 -46 -32 -80 -80 -80c-49 0 -81 32 -81 80s33 81 80 81z
" />
    <glyph glyph-name="Amacron" unicode="&#x100;" horiz-adv-x="805" 
d="M0 0l347 768l126 19l332 -787h-198l-64 167h-283l-62 -167h-198zM403 545l-100 -248h195zM582 941v-102h-334v102h334z" />
    <glyph glyph-name="Abreve" unicode="&#x102;" horiz-adv-x="805" 
d="M0 0l347 768l126 19l332 -787h-198l-64 167h-283l-62 -167h-198zM403 545l-100 -248h195zM415 903c57 0 80 30 83 76h61c0 -84 -38 -169 -144 -169c-110 0 -144 85 -144 169h61c3 -46 26 -76 83 -76z" />
    <glyph glyph-name="Aring" unicode="&#xc5;" horiz-adv-x="805" 
d="M0 0l347 768l126 19l332 -787h-198l-64 167h-283l-62 -167h-198zM403 545l-100 -248h195zM306 907c0 59 50 109 109 109s109 -50 109 -109s-50 -109 -109 -109s-109 50 -109 109zM357 907c0 -31 27 -58 58 -58s58 27 58 58s-27 58 -58 58s-58 -27 -58 -58z" />
    <glyph glyph-name="Aogonek" unicode="&#x104;" horiz-adv-x="805" 
d="M0 0l347 768l126 19l332 -787c-106 -10 -155 -50 -155 -98c0 -21 14 -37 42 -37c25 0 52 9 74 35h3l-7 -111c-30 -18 -65 -26 -108 -26c-84 0 -138 39 -138 107c0 46 27 86 91 130l-64 167h-283l-62 -167h-198zM403 545l-100 -248h195z" />
    <glyph glyph-name="AE" unicode="&#xc6;" horiz-adv-x="1001" 
d="M661 619v-149h239v-142h-239v-176h285v-152h-461v205h-223l-107 -205h-185l404 772h572v-153h-285zM478 619l-143 -274h150v274h-7z" />
    <glyph glyph-name="Cacute" unicode="&#x106;" horiz-adv-x="743" 
d="M683 716l-15 -207h-3c-43 66 -123 109 -218 109c-139 0 -225 -101 -225 -232c0 -132 89 -230 227 -230c95 0 177 45 241 137h3l-18 -230c-65 -48 -157 -76 -244 -76c-230 0 -391 158 -391 402c0 210 159 396 393 396c100 0 183 -23 250 -69zM584 969l-149 -159h-84
l70 159h163z" />
    <glyph glyph-name="Ccircumflex" unicode="&#x108;" horiz-adv-x="743" 
d="M683 716l-15 -207h-3c-43 66 -123 109 -218 109c-139 0 -225 -101 -225 -232c0 -132 89 -230 227 -230c95 0 177 45 241 137h3l-18 -230c-65 -48 -157 -76 -244 -76c-230 0 -391 158 -391 402c0 210 159 396 393 396c100 0 183 -23 250 -69zM504 810l-90 82l-87 -82h-76
l99 159h131l99 -159h-76z" />
    <glyph glyph-name="Ccaron" unicode="&#x10c;" horiz-adv-x="743" 
d="M683 716l-15 -207h-3c-43 66 -123 109 -218 109c-139 0 -225 -101 -225 -232c0 -132 89 -230 227 -230c95 0 177 45 241 137h3l-18 -230c-65 -48 -157 -76 -244 -76c-230 0 -391 158 -391 402c0 210 159 396 393 396c100 0 183 -23 250 -69zM250 969h76l89 -83l88 83h76
l-99 -159h-131z" />
    <glyph glyph-name="Ccedilla" unicode="&#xc7;" horiz-adv-x="743" 
d="M683 716l-15 -207h-3c-43 66 -123 109 -218 109c-139 0 -225 -101 -225 -232c0 -132 89 -230 227 -230c95 0 177 45 241 137h3l-18 -230c-60 -44 -143 -71 -223 -75l-20 -39c3 1 10 2 16 2c60 0 98 -33 98 -82c0 -56 -55 -97 -132 -97c-37 0 -69 9 -88 25l6 65
c16 -16 45 -24 73 -24c26 0 39 12 39 27c0 19 -18 30 -49 30c-18 0 -33 -2 -43 -5l-2 3l45 95c-211 15 -355 170 -355 401c0 210 159 396 393 396c100 0 183 -23 250 -69z" />
    <glyph glyph-name="Cdotaccent" unicode="&#x10a;" horiz-adv-x="743" 
d="M683 716l-15 -207h-3c-43 66 -123 109 -218 109c-139 0 -225 -101 -225 -232c0 -132 89 -230 227 -230c95 0 177 45 241 137h3l-18 -230c-65 -48 -157 -76 -244 -76c-230 0 -391 158 -391 402c0 210 159 396 393 396c100 0 183 -23 250 -69zM414 979c51 0 85 -34 85 -85
c0 -49 -33 -84 -84 -84c-52 0 -85 33 -85 84s34 85 84 85z" />
    <glyph glyph-name="Dcaron" unicode="&#x10e;" horiz-adv-x="783" 
d="M316 0h-231v772h233c271 0 425 -154 425 -376c0 -253 -150 -396 -427 -396zM260 613v-453h64c156 0 240 83 240 236c0 119 -83 217 -238 217h-66zM175 969h76l89 -83l88 83h76l-99 -159h-131z" />
    <glyph glyph-name="Dcroat" unicode="&#x110;" horiz-adv-x="783" 
d="M316 0h-231v326h-60v132h60v314h233c271 0 425 -154 425 -376c0 -253 -150 -396 -427 -396zM260 613v-155h149v-132h-149v-166h64c156 0 240 83 240 236c0 119 -83 217 -238 217h-66z" />
    <glyph glyph-name="Eth" unicode="&#xd0;" horiz-adv-x="783" 
d="M316 0h-231v326h-60v132h60v314h233c271 0 425 -154 425 -376c0 -253 -150 -396 -427 -396zM260 613v-155h149v-132h-149v-166h64c156 0 240 83 240 236c0 119 -83 217 -238 217h-66z" />
    <glyph glyph-name="Egrave" unicode="&#xc8;" horiz-adv-x="600" 
d="M260 619v-149h239v-142h-239v-176h285v-152h-460v772h460v-153h-285zM293 810l-149 159h163l70 -159h-84z" />
    <glyph glyph-name="Eacute" unicode="&#xc9;" horiz-adv-x="600" 
d="M260 619v-149h239v-142h-239v-176h285v-152h-460v772h460v-153h-285zM482 969l-149 -159h-84l70 159h163z" />
    <glyph glyph-name="Ecircumflex" unicode="&#xca;" horiz-adv-x="600" 
d="M260 619v-149h239v-142h-239v-176h285v-152h-460v772h460v-153h-285zM402 810l-90 82l-87 -82h-76l99 159h131l99 -159h-76z" />
    <glyph glyph-name="Edieresis" unicode="&#xcb;" horiz-adv-x="600" 
d="M260 619v-149h239v-142h-239v-176h285v-152h-460v772h460v-153h-285zM192 978c48 0 81 -33 81 -81c0 -46 -32 -80 -80 -80c-49 0 -81 32 -81 80s33 81 80 81zM433 978c48 0 81 -33 81 -81c0 -46 -32 -80 -80 -80c-49 0 -81 32 -81 80s33 81 80 81z" />
    <glyph glyph-name="Emacron" unicode="&#x112;" horiz-adv-x="600" 
d="M260 619v-149h239v-142h-239v-176h285v-152h-460v772h460v-153h-285zM480 941v-102h-334v102h334z" />
    <glyph glyph-name="Ebreve" unicode="&#x114;" horiz-adv-x="600" 
d="M260 619v-149h239v-142h-239v-176h285v-152h-460v772h460v-153h-285zM313 903c57 0 80 30 83 76h61c0 -84 -38 -169 -144 -169c-110 0 -144 85 -144 169h61c3 -46 26 -76 83 -76z" />
    <glyph glyph-name="Edotaccent" unicode="&#x116;" horiz-adv-x="600" 
d="M260 619v-149h239v-142h-239v-176h285v-152h-460v772h460v-153h-285zM312 979c51 0 85 -34 85 -85c0 -49 -33 -84 -84 -84c-52 0 -85 33 -85 84s34 85 84 85z" />
    <glyph glyph-name="Ecaron" unicode="&#x11a;" horiz-adv-x="600" 
d="M260 619v-149h239v-142h-239v-176h285v-152h-460v772h460v-153h-285zM148 969h76l89 -83l88 83h76l-99 -159h-131z" />
    <glyph glyph-name="Eogonek" unicode="&#x118;" horiz-adv-x="600" 
d="M380 0h-295v772h460v-153h-285v-149h239v-142h-239v-176h285v-152c-89 -14 -122 -56 -122 -98c0 -21 14 -37 42 -37c25 0 52 9 74 35h3l-7 -111c-30 -18 -65 -26 -108 -26c-84 0 -138 39 -138 107c0 46 27 86 91 130z" />
    <glyph glyph-name="Gcircumflex" unicode="&#x11c;" horiz-adv-x="764" 
d="M714 372v-298c-86 -56 -185 -87 -285 -87c-230 0 -389 151 -389 392c0 209 144 406 406 406c88 0 169 -21 238 -62l-17 -200h-3c-43 57 -123 102 -215 102c-141 0 -227 -96 -227 -245c0 -144 82 -237 215 -237c40 0 72 8 94 23v206h183zM515 810l-90 82l-87 -82h-76
l99 159h131l99 -159h-76z" />
    <glyph glyph-name="Gbreve" unicode="&#x11e;" horiz-adv-x="764" 
d="M714 372v-298c-86 -56 -185 -87 -285 -87c-230 0 -389 151 -389 392c0 209 144 406 406 406c88 0 169 -21 238 -62l-17 -200h-3c-43 57 -123 102 -215 102c-141 0 -227 -96 -227 -245c0 -144 82 -237 215 -237c40 0 72 8 94 23v206h183zM426 903c57 0 80 30 83 76h61
c0 -84 -38 -169 -144 -169c-110 0 -144 85 -144 169h61c3 -46 26 -76 83 -76z" />
    <glyph glyph-name="Gdotaccent" unicode="&#x120;" horiz-adv-x="764" 
d="M714 372v-298c-86 -56 -185 -87 -285 -87c-230 0 -389 151 -389 392c0 209 144 406 406 406c88 0 169 -21 238 -62l-17 -200h-3c-43 57 -123 102 -215 102c-141 0 -227 -96 -227 -245c0 -144 82 -237 215 -237c40 0 72 8 94 23v206h183zM425 979c51 0 85 -34 85 -85
c0 -49 -33 -84 -84 -84c-52 0 -85 33 -85 84s34 85 84 85z" />
    <glyph glyph-name="Gcommaaccent" unicode="&#x122;" horiz-adv-x="764" 
d="M714 372v-298c-86 -56 -185 -87 -285 -87c-230 0 -389 151 -389 392c0 209 144 406 406 406c88 0 169 -21 238 -62l-17 -200h-3c-43 57 -123 102 -215 102c-141 0 -227 -96 -227 -245c0 -144 82 -237 215 -237c40 0 72 8 94 23v206h183zM486 -49c9 -17 15 -41 15 -62
c0 -43 -20 -73 -97 -126h-75c40 55 50 84 50 117c0 15 -7 33 -16 47z" />
    <glyph glyph-name="Hcircumflex" unicode="&#x124;" horiz-adv-x="819" 
d="M260 0h-175v772h175v-291h299v291h175v-772h-175v321h-299v-321zM498 810l-90 82l-87 -82h-76l99 159h131l99 -159h-76z" />
    <glyph glyph-name="Hbar" unicode="&#x126;" horiz-adv-x="829" 
d="M260 0h-175v591h-60v92h60v89h175v-89h299v89h175v-89h60v-92h-60v-591h-175v321h-299v-321zM260 481h299v110h-299v-110z" />
    <glyph glyph-name="Igrave" unicode="&#xcc;" horiz-adv-x="345" 
d="M260 0h-175v772h175v-772zM152 810l-149 159h163l70 -159h-84z" />
    <glyph glyph-name="Iacute" unicode="&#xcd;" horiz-adv-x="345" 
d="M260 0h-175v772h175v-772zM341 969l-149 -159h-84l70 159h163z" />
    <glyph glyph-name="Icircumflex" unicode="&#xce;" horiz-adv-x="345" 
d="M260 0h-175v772h175v-772zM261 810l-90 82l-87 -82h-76l99 159h131l99 -159h-76z" />
    <glyph glyph-name="Itilde" unicode="&#x128;" horiz-adv-x="345" 
d="M260 0h-175v772h175v-772zM100 847c-29 0 -52 -22 -54 -48l-55 12c9 96 54 155 110 155c52 0 102 -34 143 -34c31 0 50 21 54 48l55 -12c-9 -96 -54 -155 -110 -155c-52 0 -102 34 -143 34z" />
    <glyph glyph-name="Idieresis" unicode="&#xcf;" horiz-adv-x="345" 
d="M260 0h-175v772h175v-772zM51 978c48 0 81 -33 81 -81c0 -46 -32 -80 -80 -80c-49 0 -81 32 -81 80s33 81 80 81zM292 978c48 0 81 -33 81 -81c0 -46 -32 -80 -80 -80c-49 0 -81 32 -81 80s33 81 80 81z" />
    <glyph glyph-name="Imacron" unicode="&#x12a;" horiz-adv-x="345" 
d="M260 0h-175v772h175v-772zM339 941v-102h-334v102h334z" />
    <glyph glyph-name="Ibreve" unicode="&#x12c;" horiz-adv-x="345" 
d="M260 0h-175v772h175v-772zM172 903c57 0 80 30 83 76h61c0 -84 -38 -169 -144 -169c-110 0 -144 85 -144 169h61c3 -46 26 -76 83 -76z" />
    <glyph glyph-name="Idotaccent" unicode="&#x130;" horiz-adv-x="345" 
d="M260 0h-175v772h175v-772zM171 979c51 0 85 -34 85 -85c0 -49 -33 -84 -84 -84c-52 0 -85 33 -85 84s34 85 84 85z" />
    <glyph glyph-name="Iogonek" unicode="&#x12e;" horiz-adv-x="345" 
d="M260 0c-84 -11 -118 -49 -118 -98c0 -21 14 -37 38 -37c30 0 57 10 78 35h3l-7 -111c-30 -18 -65 -26 -108 -26c-84 0 -138 39 -138 107c0 46 24 86 77 130v772h175v-772z" />
    <glyph glyph-name="IJ" unicode="&#x132;" horiz-adv-x="670" 
d="M260 0h-175v772h175v-772zM410 772h175v-629c0 -174 -24 -268 -82 -333l-223 -47l-4 11c99 79 134 147 134 357v641z" />
    <glyph glyph-name="Jcircumflex" unicode="&#x134;" horiz-adv-x="345" 
d="M85 772h175v-629c0 -174 -24 -268 -82 -333l-223 -47l-4 11c99 79 134 147 134 357v641zM261 810l-90 82l-87 -82h-76l99 159h131l99 -159h-76z" />
    <glyph glyph-name="Kcommaaccent" unicode="&#x136;" horiz-adv-x="785" 
d="M260 0h-175v772h175v-345l278 345h229l-327 -375l350 -397h-236l-294 359v-359zM450 -49c9 -17 15 -41 15 -62c0 -43 -20 -73 -97 -126h-75c40 55 50 84 50 117c0 15 -7 33 -16 47z" />
    <glyph glyph-name="Lacute" unicode="&#x139;" horiz-adv-x="611" 
d="M85 0v772h175v-612h336v-160h-511zM360 969l-149 -159h-84l70 159h163z" />
    <glyph glyph-name="Lcaron" unicode="&#x13d;" horiz-adv-x="611" 
d="M85 0v772h175v-612h336v-160h-511zM435 781c9 -19 13 -37 13 -61c0 -39 -22 -84 -83 -147h-59c20 60 26 92 26 127c0 18 -5 40 -12 57z" />
    <glyph glyph-name="Lcommaaccent" unicode="&#x13b;" horiz-adv-x="611" 
d="M85 0v772h175v-612h336v-160h-511zM397 -49c9 -17 15 -41 15 -62c0 -43 -20 -73 -97 -126h-75c40 55 50 84 50 117c0 15 -7 33 -16 47z" />
    <glyph glyph-name="Ldot" unicode="&#x13f;" horiz-adv-x="611" 
d="M85 0v772h175v-612h336v-160h-511zM475 572c51 0 85 -34 85 -85c0 -49 -33 -84 -84 -84c-52 0 -85 33 -85 84s34 85 84 85z" />
    <glyph glyph-name="Lslash" unicode="&#x141;" horiz-adv-x="611" 
d="M85 0v273l-60 -39v129l60 39v370h175v-255l145 95v-129l-145 -95v-228h336v-160h-511z" />
    <glyph glyph-name="Nacute" unicode="&#x143;" horiz-adv-x="893" 
d="M638 772h170v-772h-137l-416 490v-490h-170v772h137l416 -488v488zM615 969l-149 -159h-84l70 159h163z" />
    <glyph glyph-name="Ncaron" unicode="&#x147;" horiz-adv-x="893" 
d="M638 772h170v-772h-137l-416 490v-490h-170v772h137l416 -488v488zM281 969h76l89 -83l88 83h76l-99 -159h-131z" />
    <glyph glyph-name="Ntilde" unicode="&#xd1;" horiz-adv-x="893" 
d="M638 772h170v-772h-137l-416 490v-490h-170v772h137l416 -488v488zM374 847c-29 0 -52 -22 -54 -48l-55 12c9 96 54 155 110 155c52 0 102 -34 143 -34c31 0 50 21 54 48l55 -12c-9 -96 -54 -155 -110 -155c-52 0 -102 34 -143 34z" />
    <glyph glyph-name="Ncommaaccent" unicode="&#x145;" horiz-adv-x="893" 
d="M638 772h170v-772h-137l-416 490v-490h-170v772h137l416 -488v488zM503 -49c9 -17 15 -41 15 -62c0 -43 -20 -73 -97 -126h-75c40 55 50 84 50 117c0 15 -7 33 -16 47z" />
    <glyph glyph-name="Eng" unicode="&#x14a;" horiz-adv-x="893" 
d="M808 772v-799c0 -130 -78 -210 -207 -210c-41 0 -76 8 -106 22l-21 159c23 -21 43 -29 81 -29c47 0 78 30 78 89v41l-378 445v-490h-170v772h137l416 -488v488h170z" />
    <glyph glyph-name="Ograve" unicode="&#xd2;" horiz-adv-x="854" 
d="M635 386c0 138 -88 241 -208 241c-121 0 -208 -103 -208 -241s88 -241 208 -241c121 0 208 103 208 241zM814 386c0 -233 -161 -401 -387 -401c-227 0 -387 168 -387 401s161 401 387 401c227 0 387 -168 387 -401zM407 810l-149 159h163l70 -159h-84z" />
    <glyph glyph-name="Oacute" unicode="&#xd3;" horiz-adv-x="854" 
d="M635 386c0 138 -88 241 -208 241c-121 0 -208 -103 -208 -241s88 -241 208 -241c121 0 208 103 208 241zM814 386c0 -233 -161 -401 -387 -401c-227 0 -387 168 -387 401s161 401 387 401c227 0 387 -168 387 -401zM596 969l-149 -159h-84l70 159h163z" />
    <glyph glyph-name="Ocircumflex" unicode="&#xd4;" horiz-adv-x="854" 
d="M635 386c0 138 -88 241 -208 241c-121 0 -208 -103 -208 -241s88 -241 208 -241c121 0 208 103 208 241zM814 386c0 -233 -161 -401 -387 -401c-227 0 -387 168 -387 401s161 401 387 401c227 0 387 -168 387 -401zM516 810l-90 82l-87 -82h-76l99 159h131l99 -159h-76z
" />
    <glyph glyph-name="Otilde" unicode="&#xd5;" horiz-adv-x="854" 
d="M635 386c0 138 -88 241 -208 241c-121 0 -208 -103 -208 -241s88 -241 208 -241c121 0 208 103 208 241zM814 386c0 -233 -161 -401 -387 -401c-227 0 -387 168 -387 401s161 401 387 401c227 0 387 -168 387 -401zM355 847c-29 0 -52 -22 -54 -48l-55 12
c9 96 54 155 110 155c52 0 102 -34 143 -34c31 0 50 21 54 48l55 -12c-9 -96 -54 -155 -110 -155c-52 0 -102 34 -143 34z" />
    <glyph glyph-name="Odieresis" unicode="&#xd6;" horiz-adv-x="854" 
d="M635 386c0 138 -88 241 -208 241c-121 0 -208 -103 -208 -241s88 -241 208 -241c121 0 208 103 208 241zM814 386c0 -233 -161 -401 -387 -401c-227 0 -387 168 -387 401s161 401 387 401c227 0 387 -168 387 -401zM306 978c48 0 81 -33 81 -81c0 -46 -32 -80 -80 -80
c-49 0 -81 32 -81 80s33 81 80 81zM547 978c48 0 81 -33 81 -81c0 -46 -32 -80 -80 -80c-49 0 -81 32 -81 80s33 81 80 81z" />
    <glyph glyph-name="Omacron" unicode="&#x14c;" horiz-adv-x="854" 
d="M635 386c0 138 -88 241 -208 241c-121 0 -208 -103 -208 -241s88 -241 208 -241c121 0 208 103 208 241zM814 386c0 -233 -161 -401 -387 -401c-227 0 -387 168 -387 401s161 401 387 401c227 0 387 -168 387 -401zM594 941v-102h-334v102h334z" />
    <glyph glyph-name="Obreve" unicode="&#x14e;" horiz-adv-x="854" 
d="M635 386c0 138 -88 241 -208 241c-121 0 -208 -103 -208 -241s88 -241 208 -241c121 0 208 103 208 241zM814 386c0 -233 -161 -401 -387 -401c-227 0 -387 168 -387 401s161 401 387 401c227 0 387 -168 387 -401zM427 903c57 0 80 30 83 76h61
c0 -84 -38 -169 -144 -169c-110 0 -144 85 -144 169h61c3 -46 26 -76 83 -76z" />
    <glyph glyph-name="Ohungarumlaut" unicode="&#x150;" horiz-adv-x="854" 
d="M635 386c0 138 -88 241 -208 241c-121 0 -208 -103 -208 -241s88 -241 208 -241c121 0 208 103 208 241zM814 386c0 -233 -161 -401 -387 -401c-227 0 -387 168 -387 401s161 401 387 401c227 0 387 -168 387 -401zM361 969h154l-150 -159h-74zM530 969h153l-149 -159
h-74z" />
    <glyph glyph-name="Oslash" unicode="&#xd8;" horiz-adv-x="854" 
d="M814 386c0 -233 -161 -401 -387 -401c-82 0 -156 22 -216 61l-44 -54l-101 36l69 84c-60 70 -95 165 -95 274c0 233 161 401 387 401c81 0 153 -22 213 -60l43 53l103 -35l-69 -84c61 -70 97 -166 97 -275zM635 386c0 51 -12 97 -33 135l-283 -344c31 -20 67 -32 108 -32
c121 0 208 103 208 241zM219 386c0 -50 11 -96 32 -133l281 343c-30 20 -66 31 -105 31c-121 0 -208 -103 -208 -241z" />
    <glyph glyph-name="OE" unicode="&#x152;" horiz-adv-x="1019" 
d="M679 619v-149h239v-142h-239v-176h285v-152h-533c-223 0 -391 161 -391 386s169 386 391 386h533v-153h-285zM219 386c0 -136 96 -234 214 -234h70v467h-70c-119 0 -214 -92 -214 -233z" />
    <glyph glyph-name="Racute" unicode="&#x154;" horiz-adv-x="706" 
d="M85 0v772h239c186 0 297 -87 297 -238c0 -97 -61 -174 -160 -215l250 -319h-219l-212 287h-20v-287h-175zM260 624v-225h10c117 0 172 49 172 115c0 74 -52 110 -139 110h-43zM487 969l-149 -159h-84l70 159h163z" />
    <glyph glyph-name="Rcaron" unicode="&#x158;" horiz-adv-x="706" 
d="M85 0v772h239c186 0 297 -87 297 -238c0 -97 -61 -174 -160 -215l250 -319h-219l-212 287h-20v-287h-175zM260 624v-225h10c117 0 172 49 172 115c0 74 -52 110 -139 110h-43zM153 969h76l89 -83l88 83h76l-99 -159h-131z" />
    <glyph glyph-name="Rcommaaccent" unicode="&#x156;" horiz-adv-x="706" 
d="M85 0v772h239c186 0 297 -87 297 -238c0 -97 -61 -174 -160 -215l250 -319h-219l-212 287h-20v-287h-175zM260 624v-225h10c117 0 172 49 172 115c0 74 -52 110 -139 110h-43zM418 -49c9 -17 15 -41 15 -62c0 -43 -20 -73 -97 -126h-75c40 55 50 84 50 117
c0 15 -7 33 -16 47z" />
    <glyph glyph-name="Sacute" unicode="&#x15a;" horiz-adv-x="560" 
d="M58 232c73 -60 137 -91 205 -91c55 0 86 26 86 72c0 43 -28 69 -138 134c-133 78 -161 141 -161 239c0 117 98 201 236 201c66 0 131 -12 190 -34v-187c-79 48 -129 69 -177 69c-47 0 -72 -29 -72 -57c0 -38 15 -56 138 -125c127 -71 164 -135 164 -243
c0 -135 -110 -226 -275 -226c-70 0 -129 11 -182 40l-17 208h3zM454 969l-149 -159h-84l70 159h163z" />
    <glyph glyph-name="Scaron" unicode="&#x160;" horiz-adv-x="560" 
d="M58 232c73 -60 137 -91 205 -91c55 0 86 26 86 72c0 43 -28 69 -138 134c-133 78 -161 141 -161 239c0 117 98 201 236 201c66 0 131 -12 190 -34v-187c-79 48 -129 69 -177 69c-47 0 -72 -29 -72 -57c0 -38 15 -56 138 -125c127 -71 164 -135 164 -243
c0 -135 -110 -226 -275 -226c-70 0 -129 11 -182 40l-17 208h3zM120 969h76l89 -83l88 83h76l-99 -159h-131z" />
    <glyph glyph-name="Scircumflex" unicode="&#x15c;" horiz-adv-x="560" 
d="M58 232c73 -60 137 -91 205 -91c55 0 86 26 86 72c0 43 -28 69 -138 134c-133 78 -161 141 -161 239c0 117 98 201 236 201c66 0 131 -12 190 -34v-187c-79 48 -129 69 -177 69c-47 0 -72 -29 -72 -57c0 -38 15 -56 138 -125c127 -71 164 -135 164 -243
c0 -135 -110 -226 -275 -226c-70 0 -129 11 -182 40l-17 208h3zM374 810l-90 82l-87 -82h-76l99 159h131l99 -159h-76z" />
    <glyph glyph-name="Scedilla" unicode="&#x15e;" horiz-adv-x="560" 
d="M58 232c73 -60 137 -91 205 -91c55 0 86 26 86 72c0 43 -28 69 -138 134c-133 78 -161 141 -161 239c0 117 98 201 236 201c66 0 131 -12 190 -34v-187c-79 48 -129 69 -177 69c-47 0 -72 -29 -72 -57c0 -38 15 -56 138 -125c127 -71 164 -135 164 -243
c0 -124 -92 -210 -234 -224l-19 -37c3 1 10 2 16 2c60 0 98 -33 98 -82c0 -56 -55 -97 -132 -97c-37 0 -69 9 -88 25l6 65c16 -16 45 -24 73 -24c26 0 39 12 39 27c0 19 -18 30 -49 30c-18 0 -33 -2 -43 -5l-2 3l43 91c-63 2 -117 14 -165 40l-17 208h3z" />
    <glyph glyph-name="uni0218" unicode="&#x218;" horiz-adv-x="560" 
d="M58 232c73 -60 137 -91 205 -91c55 0 86 26 86 72c0 43 -28 69 -138 134c-133 78 -161 141 -161 239c0 117 98 201 236 201c66 0 131 -12 190 -34v-187c-79 48 -129 69 -177 69c-47 0 -72 -29 -72 -57c0 -38 15 -56 138 -125c127 -71 164 -135 164 -243
c0 -135 -110 -226 -275 -226c-70 0 -129 11 -182 40l-17 208h3zM332 -49c9 -17 15 -41 15 -62c0 -43 -20 -73 -97 -126h-75c40 55 50 84 50 117c0 15 -7 33 -16 47z" />
    <glyph glyph-name="Tcaron" unicode="&#x164;" horiz-adv-x="707" 
d="M441 0h-175v612h-246v160h667v-160h-246v-612zM188 969h76l89 -83l88 83h76l-99 -159h-131z" />
    <glyph glyph-name="uni0162" unicode="&#x162;" horiz-adv-x="707" 
d="M441 0h-175v612h-246v160h667v-160h-246v-612zM412 -49c9 -17 15 -41 15 -62c0 -43 -20 -73 -97 -126h-75c40 55 50 84 50 117c0 15 -7 33 -16 47z" />
    <glyph glyph-name="uni021A" unicode="&#x21a;" horiz-adv-x="707" 
d="M441 0h-175v612h-246v160h667v-160h-246v-612zM412 -49c9 -17 15 -41 15 -62c0 -43 -20 -73 -97 -126h-75c40 55 50 84 50 117c0 15 -7 33 -16 47z" />
    <glyph glyph-name="Tbar" unicode="&#x166;" horiz-adv-x="707" 
d="M441 0h-175v326h-100v132h100v154h-246v160h667v-160h-246v-154h100v-132h-100v-326z" />
    <glyph glyph-name="Ugrave" unicode="&#xd9;" horiz-adv-x="786" 
d="M78 772h175v-464c0 -104 64 -150 140 -150s140 46 140 150v464h175v-474c0 -218 -136 -312 -315 -312s-315 91 -315 302v484zM373 810l-149 159h163l70 -159h-84z" />
    <glyph glyph-name="Uacute" unicode="&#xda;" horiz-adv-x="786" 
d="M78 772h175v-464c0 -104 64 -150 140 -150s140 46 140 150v464h175v-474c0 -218 -136 -312 -315 -312s-315 91 -315 302v484zM562 969l-149 -159h-84l70 159h163z" />
    <glyph glyph-name="Ucircumflex" unicode="&#xdb;" horiz-adv-x="786" 
d="M78 772h175v-464c0 -104 64 -150 140 -150s140 46 140 150v464h175v-474c0 -218 -136 -312 -315 -312s-315 91 -315 302v484zM482 810l-90 82l-87 -82h-76l99 159h131l99 -159h-76z" />
    <glyph glyph-name="Utilde" unicode="&#x168;" horiz-adv-x="786" 
d="M78 772h175v-464c0 -104 64 -150 140 -150s140 46 140 150v464h175v-474c0 -218 -136 -312 -315 -312s-315 91 -315 302v484zM321 847c-29 0 -52 -22 -54 -48l-55 12c9 96 54 155 110 155c52 0 102 -34 143 -34c31 0 50 21 54 48l55 -12c-9 -96 -54 -155 -110 -155
c-52 0 -102 34 -143 34z" />
    <glyph glyph-name="Udieresis" unicode="&#xdc;" horiz-adv-x="786" 
d="M78 772h175v-464c0 -104 64 -150 140 -150s140 46 140 150v464h175v-474c0 -218 -136 -312 -315 -312s-315 91 -315 302v484zM272 978c48 0 81 -33 81 -81c0 -46 -32 -80 -80 -80c-49 0 -81 32 -81 80s33 81 80 81zM513 978c48 0 81 -33 81 -81c0 -46 -32 -80 -80 -80
c-49 0 -81 32 -81 80s33 81 80 81z" />
    <glyph glyph-name="Umacron" unicode="&#x16a;" horiz-adv-x="786" 
d="M78 772h175v-464c0 -104 64 -150 140 -150s140 46 140 150v464h175v-474c0 -218 -136 -312 -315 -312s-315 91 -315 302v484zM560 941v-102h-334v102h334z" />
    <glyph glyph-name="Ubreve" unicode="&#x16c;" horiz-adv-x="786" 
d="M78 772h175v-464c0 -104 64 -150 140 -150s140 46 140 150v464h175v-474c0 -218 -136 -312 -315 -312s-315 91 -315 302v484zM393 903c57 0 80 30 83 76h61c0 -84 -38 -169 -144 -169c-110 0 -144 85 -144 169h61c3 -46 26 -76 83 -76z" />
    <glyph glyph-name="Uring" unicode="&#x16e;" horiz-adv-x="786" 
d="M78 772h175v-464c0 -104 64 -150 140 -150s140 46 140 150v464h175v-474c0 -218 -136 -312 -315 -312s-315 91 -315 302v484zM284 907c0 59 50 109 109 109s109 -50 109 -109s-50 -109 -109 -109s-109 50 -109 109zM335 907c0 -31 27 -58 58 -58s58 27 58 58
s-27 58 -58 58s-58 -27 -58 -58z" />
    <glyph glyph-name="Uhungarumlaut" unicode="&#x170;" horiz-adv-x="786" 
d="M78 772h175v-464c0 -104 64 -150 140 -150s140 46 140 150v464h175v-474c0 -218 -136 -312 -315 -312s-315 91 -315 302v484zM327 969h154l-150 -159h-74zM496 969h153l-149 -159h-74z" />
    <glyph glyph-name="Uogonek" unicode="&#x172;" horiz-adv-x="786" 
d="M627 -211c-30 -18 -65 -26 -108 -26c-84 0 -138 39 -138 107c0 39 18 78 75 120c-19 -3 -41 -4 -63 -4c-179 0 -315 91 -315 302v484h175v-464c0 -104 64 -150 140 -150s140 46 140 150v464h175v-474c0 -103 -31 -179 -81 -229c-102 -102 -112 -125 -112 -167
c0 -21 14 -37 42 -37c25 0 52 9 74 35h3z" />
    <glyph glyph-name="Wgrave" unicode="&#x1e80;" horiz-adv-x="1233" 
d="M768 0l-153 361l-158 -361h-131l-326 772h202l200 -533l135 305l-96 228h203l191 -507l211 507h187l-338 -772h-127zM550 810l-149 159h163l70 -159h-84z" />
    <glyph glyph-name="Wacute" unicode="&#x1e82;" horiz-adv-x="1233" 
d="M768 0l-153 361l-158 -361h-131l-326 772h202l200 -533l135 305l-96 228h203l191 -507l211 507h187l-338 -772h-127zM739 969l-149 -159h-84l70 159h163z" />
    <glyph glyph-name="Wcircumflex" unicode="&#x174;" horiz-adv-x="1233" 
d="M768 0l-153 361l-158 -361h-131l-326 772h202l200 -533l135 305l-96 228h203l191 -507l211 507h187l-338 -772h-127zM659 810l-90 82l-87 -82h-76l99 159h131l99 -159h-76z" />
    <glyph glyph-name="Wdieresis" unicode="&#x1e84;" horiz-adv-x="1233" 
d="M768 0l-153 361l-158 -361h-131l-326 772h202l200 -533l135 305l-96 228h203l191 -507l211 507h187l-338 -772h-127zM449 978c48 0 81 -33 81 -81c0 -46 -32 -80 -80 -80c-49 0 -81 32 -81 80s33 81 80 81zM690 978c48 0 81 -33 81 -81c0 -46 -32 -80 -80 -80
c-49 0 -81 32 -81 80s33 81 80 81z" />
    <glyph glyph-name="Ygrave" unicode="&#x1ef2;" horiz-adv-x="738" 
d="M442 0h-175v368l-271 404h213l153 -258l167 258h213l-300 -404v-368zM349 810l-149 159h163l70 -159h-84z" />
    <glyph glyph-name="Yacute" unicode="&#xdd;" horiz-adv-x="738" 
d="M442 0h-175v368l-271 404h213l153 -258l167 258h213l-300 -404v-368zM538 969l-149 -159h-84l70 159h163z" />
    <glyph glyph-name="Ycircumflex" unicode="&#x176;" horiz-adv-x="738" 
d="M442 0h-175v368l-271 404h213l153 -258l167 258h213l-300 -404v-368zM458 810l-90 82l-87 -82h-76l99 159h131l99 -159h-76z" />
    <glyph glyph-name="Ydieresis" unicode="&#x178;" horiz-adv-x="738" 
d="M442 0h-175v368l-271 404h213l153 -258l167 258h213l-300 -404v-368zM248 978c48 0 81 -33 81 -81c0 -46 -32 -80 -80 -80c-49 0 -81 32 -81 80s33 81 80 81zM489 978c48 0 81 -33 81 -81c0 -46 -32 -80 -80 -80c-49 0 -81 32 -81 80s33 81 80 81z" />
    <glyph glyph-name="Zacute" unicode="&#x179;" horiz-adv-x="731" 
d="M675 0h-689l426 602h-350l15 170h658l-439 -603h408zM529 969l-149 -159h-84l70 159h163z" />
    <glyph glyph-name="Zcaron" unicode="&#x17d;" horiz-adv-x="731" 
d="M675 0h-689l426 602h-350l15 170h658l-439 -603h408zM195 969h76l89 -83l88 83h76l-99 -159h-131z" />
    <glyph glyph-name="Zdotaccent" unicode="&#x17b;" horiz-adv-x="731" 
d="M675 0h-689l426 602h-350l15 170h658l-439 -603h408zM359 979c51 0 85 -34 85 -85c0 -49 -33 -84 -84 -84c-52 0 -85 33 -85 84s34 85 84 85z" />
    <glyph glyph-name="germandblS" unicode="&#x1e9e;" horiz-adv-x="774" 
d="M718 692l-156 -235c115 -29 172 -116 172 -219c0 -168 -117 -255 -270 -255c-61 0 -107 9 -138 24l-18 180h3c28 -31 76 -52 135 -52c77 0 123 39 123 103c0 62 -52 106 -152 106c-37 0 -72 -5 -98 -14l-2 2l187 281c-25 11 -54 17 -84 17c-105 0 -176 -62 -176 -174
v-456h-175v457c0 197 144 327 361 327c117 0 211 -35 288 -92z" />
    <glyph glyph-name="Thorn" unicode="&#xde;" horiz-adv-x="637" 
d="M260 0h-175v772h175v-114h58c185 0 299 -91 299 -248c0 -182 -114 -272 -320 -272h-37v-138zM260 510v-224h47c91 0 141 40 141 114c0 69 -48 110 -135 110h-53z" />
    <glyph glyph-name="agrave" unicode="&#xe0;" horiz-adv-x="528" 
d="M86 333v136c48 30 112 46 174 46c144 0 206 -71 206 -198v-302l-161 -32v55c-43 -32 -91 -52 -148 -52c-83 0 -132 41 -132 117c0 75 48 123 134 159c45 19 95 32 146 38v17c0 37 -22 65 -77 65c-47 0 -102 -17 -139 -49h-3zM305 143v90c-29 -6 -60 -18 -80 -31
c-21 -14 -32 -29 -32 -54c0 -27 15 -40 43 -40c22 0 52 11 69 35zM260 598l-163 189h165l67 -189h-69z" />
    <glyph glyph-name="aacute" unicode="&#xe1;" horiz-adv-x="528" 
d="M86 333v136c48 30 112 46 174 46c144 0 206 -71 206 -198v-302l-161 -32v55c-43 -32 -91 -52 -148 -52c-83 0 -132 41 -132 117c0 75 48 123 134 159c45 19 95 32 146 38v17c0 37 -22 65 -77 65c-47 0 -102 -17 -139 -49h-3zM305 143v90c-29 -6 -60 -18 -80 -31
c-21 -14 -32 -29 -32 -54c0 -27 15 -40 43 -40c22 0 52 11 69 35zM433 787l-163 -189h-69l67 189h165z" />
    <glyph glyph-name="acircumflex" unicode="&#xe2;" horiz-adv-x="528" 
d="M86 333v136c48 30 112 46 174 46c144 0 206 -71 206 -198v-302l-161 -32v55c-43 -32 -91 -52 -148 -52c-83 0 -132 41 -132 117c0 75 48 123 134 159c45 19 95 32 146 38v17c0 37 -22 65 -77 65c-47 0 -102 -17 -139 -49h-3zM305 143v90c-29 -6 -60 -18 -80 -31
c-21 -14 -32 -29 -32 -54c0 -27 15 -40 43 -40c22 0 52 11 69 35zM349 598l-84 100l-84 -100h-75l106 189h106l106 -189h-75z" />
    <glyph glyph-name="atilde" unicode="&#xe3;" horiz-adv-x="528" 
d="M86 333v136c48 30 112 46 174 46c144 0 206 -71 206 -198v-302l-161 -32v55c-43 -32 -91 -52 -148 -52c-83 0 -132 41 -132 117c0 75 48 123 134 159c45 19 95 32 146 38v17c0 37 -22 65 -77 65c-47 0 -102 -17 -139 -49h-3zM305 143v90c-29 -6 -60 -18 -80 -31
c-21 -14 -32 -29 -32 -54c0 -27 15 -40 43 -40c22 0 52 11 69 35zM204 653c-29 0 -49 -22 -54 -48l-55 12c10 96 59 155 120 155c44 0 88 -34 123 -34c29 0 49 22 54 48l55 -12c-10 -96 -59 -155 -120 -155c-44 0 -88 34 -123 34z" />
    <glyph glyph-name="adieresis" unicode="&#xe4;" horiz-adv-x="528" 
d="M86 333v136c48 30 112 46 174 46c144 0 206 -71 206 -198v-302l-161 -32v55c-43 -32 -91 -52 -148 -52c-83 0 -132 41 -132 117c0 75 48 123 134 159c45 19 95 32 146 38v17c0 37 -22 65 -77 65c-47 0 -102 -17 -139 -49h-3zM305 143v90c-29 -6 -60 -18 -80 -31
c-21 -14 -32 -29 -32 -54c0 -27 15 -40 43 -40c22 0 52 11 69 35zM153 764c46 0 77 -31 77 -77c0 -44 -30 -76 -76 -76c-47 0 -77 30 -77 76s31 77 76 77zM376 764c46 0 77 -31 77 -77c0 -44 -30 -76 -76 -76c-47 0 -77 30 -77 76s31 77 76 77z" />
    <glyph glyph-name="amacron" unicode="&#x101;" horiz-adv-x="528" 
d="M86 333v136c48 30 112 46 174 46c144 0 206 -71 206 -198v-302l-161 -32v55c-43 -32 -91 -52 -148 -52c-83 0 -132 41 -132 117c0 75 48 123 134 159c45 19 95 32 146 38v17c0 37 -22 65 -77 65c-47 0 -102 -17 -139 -49h-3zM305 143v90c-29 -6 -60 -18 -80 -31
c-21 -14 -32 -29 -32 -54c0 -27 15 -40 43 -40c22 0 52 11 69 35zM411 743v-112h-294v112h294z" />
    <glyph glyph-name="abreve" unicode="&#x103;" horiz-adv-x="528" 
d="M86 333v136c48 30 112 46 174 46c144 0 206 -71 206 -198v-302l-161 -32v55c-43 -32 -91 -52 -148 -52c-83 0 -132 41 -132 117c0 75 48 123 134 159c45 19 95 32 146 38v17c0 37 -22 65 -77 65c-47 0 -102 -17 -139 -49h-3zM305 143v90c-29 -6 -60 -18 -80 -31
c-21 -14 -32 -29 -32 -54c0 -27 15 -40 43 -40c22 0 52 11 69 35zM265 701c60 0 83 33 83 86h61c0 -114 -38 -189 -144 -189c-110 0 -144 75 -144 189h61c0 -53 23 -86 83 -86z" />
    <glyph glyph-name="aring" unicode="&#xe5;" horiz-adv-x="528" 
d="M86 333v136c48 30 112 46 174 46c144 0 206 -71 206 -198v-302l-161 -32v55c-43 -32 -91 -52 -148 -52c-83 0 -132 41 -132 117c0 75 48 123 134 159c45 19 95 32 146 38v17c0 37 -22 65 -77 65c-47 0 -102 -17 -139 -49h-3zM305 143v90c-29 -6 -60 -18 -80 -31
c-21 -14 -32 -29 -32 -54c0 -27 15 -40 43 -40c22 0 52 11 69 35zM152 691c0 61 52 113 113 113s113 -52 113 -113s-52 -113 -113 -113s-113 52 -113 113zM211 691c0 -30 24 -54 54 -54s54 24 54 54s-24 54 -54 54s-54 -24 -54 -54z" />
    <glyph glyph-name="aogonek" unicode="&#x105;" horiz-adv-x="528" 
d="M86 333v136c48 30 112 46 174 46c144 0 206 -71 206 -198v-302c-85 -27 -122 -65 -122 -113c0 -21 14 -37 42 -37c25 0 52 9 74 35h3l-7 -111c-30 -18 -65 -26 -108 -26c-84 0 -138 39 -138 107c0 46 29 86 95 130v38c-43 -32 -91 -52 -148 -52c-83 0 -132 41 -132 117
c0 75 48 123 134 159c45 19 95 32 146 38v17c0 37 -22 65 -77 65c-47 0 -102 -17 -139 -49h-3zM305 143v90c-29 -6 -60 -18 -80 -31c-21 -14 -32 -29 -32 -54c0 -27 15 -40 43 -40c22 0 52 11 69 35z" />
    <glyph glyph-name="ae" unicode="&#xe6;" horiz-adv-x="763" 
d="M87 465c46 34 112 52 174 52c68 0 115 -22 141 -61c43 36 98 58 165 58c104 0 156 -60 156 -138c0 -71 -57 -133 -185 -159c-27 -6 -62 -11 -95 -15c10 -57 44 -81 100 -81c63 0 125 29 162 78h3l-12 -162c-40 -32 -107 -54 -173 -54c-80 0 -137 25 -173 72
c-50 -41 -114 -72 -178 -72c-90 0 -147 46 -147 122c0 81 55 130 142 164c38 15 87 26 134 31v17c0 43 -27 68 -72 68c-50 0 -99 -19 -139 -60h-3v140zM233 111c27 0 55 9 77 30c-6 27 -9 57 -9 89c-25 -4 -56 -14 -76 -25c-22 -12 -33 -26 -33 -53c0 -22 14 -41 41 -41z
M521 401c-42 0 -75 -56 -81 -130c19 5 40 11 59 18c43 15 61 38 61 72c0 22 -15 40 -39 40z" />
    <glyph glyph-name="cacute" unicode="&#x107;" horiz-adv-x="500" 
d="M470 195l-21 -173c-33 -21 -92 -39 -154 -39c-159 0 -260 99 -260 259c0 158 103 274 287 274c53 0 103 -12 137 -32l-15 -159c-30 28 -68 45 -116 45c-75 0 -123 -48 -123 -128c0 -66 44 -113 116 -113c61 0 105 20 146 66h3zM455 787l-163 -189h-69l67 189h165z" />
    <glyph glyph-name="ccircumflex" unicode="&#x109;" horiz-adv-x="500" 
d="M470 195l-21 -173c-33 -21 -92 -39 -154 -39c-159 0 -260 99 -260 259c0 158 103 274 287 274c53 0 103 -12 137 -32l-15 -159c-30 28 -68 45 -116 45c-75 0 -123 -48 -123 -128c0 -66 44 -113 116 -113c61 0 105 20 146 66h3zM371 598l-84 100l-84 -100h-75l106 189h106
l106 -189h-75z" />
    <glyph glyph-name="ccaron" unicode="&#x10d;" horiz-adv-x="500" 
d="M470 195l-21 -173c-33 -21 -92 -39 -154 -39c-159 0 -260 99 -260 259c0 158 103 274 287 274c53 0 103 -12 137 -32l-15 -159c-30 28 -68 45 -116 45c-75 0 -123 -48 -123 -128c0 -66 44 -113 116 -113c61 0 105 20 146 66h3zM128 787h75l84 -100l84 100h75l-106 -189
h-106z" />
    <glyph glyph-name="ccedilla" unicode="&#xe7;" horiz-adv-x="500" 
d="M470 195l-21 -173c-30 -19 -81 -35 -136 -38l-18 -35c3 1 10 2 16 2c60 0 98 -33 98 -82c0 -56 -55 -97 -132 -97c-37 0 -69 9 -88 25l6 65c16 -16 45 -24 73 -24c26 0 39 12 39 27c0 19 -18 30 -49 30c-18 0 -33 -2 -43 -5l-2 3l43 92c-136 15 -221 110 -221 257
c0 158 103 274 287 274c53 0 103 -12 137 -32l-15 -159c-30 28 -68 45 -116 45c-75 0 -123 -48 -123 -128c0 -66 44 -113 116 -113c61 0 105 20 146 66h3z" />
    <glyph glyph-name="cdotaccent" unicode="&#x10b;" horiz-adv-x="500" 
d="M470 195l-21 -173c-33 -21 -92 -39 -154 -39c-159 0 -260 99 -260 259c0 158 103 274 287 274c53 0 103 -12 137 -32l-15 -159c-30 28 -68 45 -116 45c-75 0 -123 -48 -123 -128c0 -66 44 -113 116 -113c61 0 105 20 146 66h3zM286 786c54 0 91 -37 91 -91
c0 -52 -36 -90 -90 -90c-55 0 -91 36 -91 90s37 91 90 91z" />
    <glyph glyph-name="dcaron" unicode="&#x10f;" horiz-adv-x="635" 
d="M414 -16l4 52c-37 -34 -90 -53 -148 -53c-148 0 -235 114 -235 255c0 155 113 278 270 278c35 0 67 -7 95 -20v252l165 32v-765zM323 115c30 0 59 9 77 26v230c-18 9 -41 14 -67 14c-77 0 -128 -53 -128 -144c0 -81 44 -126 118 -126zM729 781c9 -19 13 -37 13 -61
c0 -39 -22 -84 -83 -147h-59c20 60 26 92 26 127c0 18 -5 40 -12 57z" />
    <glyph glyph-name="dcroat" unicode="&#x111;" horiz-adv-x="635" 
d="M414 -16l4 52c-37 -34 -90 -53 -148 -53c-148 0 -235 114 -235 255c0 155 113 278 270 278c35 0 67 -7 95 -20v95h-150v92h150v65l165 32v-97h50v-92h-50v-576zM323 115c30 0 59 9 77 26v230c-18 9 -41 14 -67 14c-77 0 -128 -53 -128 -144c0 -81 44 -126 118 -126z" />
    <glyph glyph-name="eth" unicode="&#xf0;" horiz-adv-x="611" 
d="M101 550l-6 80l132 42c-31 24 -65 42 -101 55v2l170 61c35 -16 69 -37 100 -63l131 42l6 -80l-77 -25c73 -91 120 -216 120 -362c0 -201 -104 -319 -285 -319c-153 0 -256 116 -256 265c0 164 103 267 251 267c27 0 52 -4 75 -12c-18 40 -42 77 -69 108zM407 280
c0 30 -3 58 -7 86c-21 18 -47 28 -78 28c-71 0 -117 -60 -117 -146c0 -78 36 -138 92 -138c71 0 110 63 110 170z" />
    <glyph glyph-name="egrave" unicode="&#xe8;" horiz-adv-x="524" 
d="M328 223c-41 -12 -99 -24 -147 -31c13 -41 48 -71 116 -71c67 0 126 30 169 78h3l-14 -162c-43 -36 -107 -54 -172 -54c-169 0 -251 114 -251 239c0 148 119 295 285 295c106 0 167 -59 167 -136s-50 -128 -156 -158zM275 400c-44 0 -90 -55 -98 -139c32 7 61 16 82 25
c43 18 62 39 62 68c0 30 -17 46 -46 46zM275 598l-163 189h165l67 -189h-69z" />
    <glyph glyph-name="eacute" unicode="&#xe9;" horiz-adv-x="524" 
d="M328 223c-41 -12 -99 -24 -147 -31c13 -41 48 -71 116 -71c67 0 126 30 169 78h3l-14 -162c-43 -36 -107 -54 -172 -54c-169 0 -251 114 -251 239c0 148 119 295 285 295c106 0 167 -59 167 -136s-50 -128 -156 -158zM275 400c-44 0 -90 -55 -98 -139c32 7 61 16 82 25
c43 18 62 39 62 68c0 30 -17 46 -46 46zM448 787l-163 -189h-69l67 189h165z" />
    <glyph glyph-name="ecircumflex" unicode="&#xea;" horiz-adv-x="524" 
d="M328 223c-41 -12 -99 -24 -147 -31c13 -41 48 -71 116 -71c67 0 126 30 169 78h3l-14 -162c-43 -36 -107 -54 -172 -54c-169 0 -251 114 -251 239c0 148 119 295 285 295c106 0 167 -59 167 -136s-50 -128 -156 -158zM275 400c-44 0 -90 -55 -98 -139c32 7 61 16 82 25
c43 18 62 39 62 68c0 30 -17 46 -46 46zM364 598l-84 100l-84 -100h-75l106 189h106l106 -189h-75z" />
    <glyph glyph-name="edieresis" unicode="&#xeb;" horiz-adv-x="524" 
d="M328 223c-41 -12 -99 -24 -147 -31c13 -41 48 -71 116 -71c67 0 126 30 169 78h3l-14 -162c-43 -36 -107 -54 -172 -54c-169 0 -251 114 -251 239c0 148 119 295 285 295c106 0 167 -59 167 -136s-50 -128 -156 -158zM275 400c-44 0 -90 -55 -98 -139c32 7 61 16 82 25
c43 18 62 39 62 68c0 30 -17 46 -46 46zM168 764c46 0 77 -31 77 -77c0 -44 -30 -76 -76 -76c-47 0 -77 30 -77 76s31 77 76 77zM391 764c46 0 77 -31 77 -77c0 -44 -30 -76 -76 -76c-47 0 -77 30 -77 76s31 77 76 77z" />
    <glyph glyph-name="emacron" unicode="&#x113;" horiz-adv-x="524" 
d="M328 223c-41 -12 -99 -24 -147 -31c13 -41 48 -71 116 -71c67 0 126 30 169 78h3l-14 -162c-43 -36 -107 -54 -172 -54c-169 0 -251 114 -251 239c0 148 119 295 285 295c106 0 167 -59 167 -136s-50 -128 -156 -158zM275 400c-44 0 -90 -55 -98 -139c32 7 61 16 82 25
c43 18 62 39 62 68c0 30 -17 46 -46 46zM426 743v-112h-294v112h294z" />
    <glyph glyph-name="ebreve" unicode="&#x115;" horiz-adv-x="524" 
d="M328 223c-41 -12 -99 -24 -147 -31c13 -41 48 -71 116 -71c67 0 126 30 169 78h3l-14 -162c-43 -36 -107 -54 -172 -54c-169 0 -251 114 -251 239c0 148 119 295 285 295c106 0 167 -59 167 -136s-50 -128 -156 -158zM275 400c-44 0 -90 -55 -98 -139c32 7 61 16 82 25
c43 18 62 39 62 68c0 30 -17 46 -46 46zM280 701c60 0 83 33 83 86h61c0 -114 -38 -189 -144 -189c-110 0 -144 75 -144 189h61c0 -53 23 -86 83 -86z" />
    <glyph glyph-name="edotaccent" unicode="&#x117;" horiz-adv-x="524" 
d="M328 223c-41 -12 -99 -24 -147 -31c13 -41 48 -71 116 -71c67 0 126 30 169 78h3l-14 -162c-43 -36 -107 -54 -172 -54c-169 0 -251 114 -251 239c0 148 119 295 285 295c106 0 167 -59 167 -136s-50 -128 -156 -158zM275 400c-44 0 -90 -55 -98 -139c32 7 61 16 82 25
c43 18 62 39 62 68c0 30 -17 46 -46 46zM279 786c54 0 91 -37 91 -91c0 -52 -36 -90 -90 -90c-55 0 -91 36 -91 90s37 91 90 91z" />
    <glyph glyph-name="ecaron" unicode="&#x11b;" horiz-adv-x="524" 
d="M328 223c-41 -12 -99 -24 -147 -31c13 -41 48 -71 116 -71c67 0 126 30 169 78h3l-14 -162c-43 -36 -107 -54 -172 -54c-169 0 -251 114 -251 239c0 148 119 295 285 295c106 0 167 -59 167 -136s-50 -128 -156 -158zM275 400c-44 0 -90 -55 -98 -139c32 7 61 16 82 25
c43 18 62 39 62 68c0 30 -17 46 -46 46zM121 787h75l84 -100l84 100h75l-106 -189h-106z" />
    <glyph glyph-name="eogonek" unicode="&#x119;" horiz-adv-x="524" 
d="M206 -140c0 57 33 96 89 123h-12c-169 0 -251 114 -251 239c0 148 119 295 285 295c106 0 167 -59 167 -135c0 -78 -50 -129 -156 -159c-41 -12 -99 -24 -147 -31c13 -41 48 -71 116 -71c66 0 126 30 169 78h3l-14 -162c-92 -65 -115 -96 -115 -135c0 -21 14 -37 38 -37
c31 0 56 10 78 35h3l-7 -111c-30 -18 -65 -26 -108 -26c-84 0 -138 35 -138 97zM275 400c-44 0 -90 -55 -98 -139c32 7 61 16 82 25c42 18 62 38 62 69c0 29 -17 45 -46 45z" />
    <glyph glyph-name="gcircumflex" unicode="&#x11d;" horiz-adv-x="535" 
d="M255 515c42 0 81 -10 114 -26c40 54 80 73 146 73v-130c-22 0 -45 -4 -65 -13c15 -24 24 -50 24 -77c0 -88 -58 -140 -174 -169c-28 -7 -62 -13 -83 -18c-14 -3 -19 -7 -19 -14c0 -9 10 -13 39 -18c37 -6 106 -16 142 -23c93 -17 130 -61 130 -132
c0 -117 -124 -205 -279 -205c-122 0 -194 71 -194 149c0 43 20 77 67 107c-45 15 -78 44 -78 78c0 43 48 79 114 112c-61 29 -98 76 -98 134c0 94 92 172 214 172zM307 -22c-35 7 -85 12 -135 22c-11 -11 -19 -29 -19 -48c0 -38 33 -61 93 -61c61 0 102 24 102 50
c0 17 -8 30 -41 37zM182 330c0 -31 18 -56 51 -72c4 -2 9 -3 13 -3c5 0 8 1 13 3c41 17 58 40 58 70c0 36 -25 68 -68 68c-38 0 -67 -26 -67 -66zM339 598l-84 100l-84 -100h-75l106 189h106l106 -189h-75z" />
    <glyph glyph-name="gbreve" unicode="&#x11f;" horiz-adv-x="535" 
d="M255 515c42 0 81 -10 114 -26c40 54 80 73 146 73v-130c-22 0 -45 -4 -65 -13c15 -24 24 -50 24 -77c0 -88 -58 -140 -174 -169c-28 -7 -62 -13 -83 -18c-14 -3 -19 -7 -19 -14c0 -9 10 -13 39 -18c37 -6 106 -16 142 -23c93 -17 130 -61 130 -132
c0 -117 -124 -205 -279 -205c-122 0 -194 71 -194 149c0 43 20 77 67 107c-45 15 -78 44 -78 78c0 43 48 79 114 112c-61 29 -98 76 -98 134c0 94 92 172 214 172zM307 -22c-35 7 -85 12 -135 22c-11 -11 -19 -29 -19 -48c0 -38 33 -61 93 -61c61 0 102 24 102 50
c0 17 -8 30 -41 37zM182 330c0 -31 18 -56 51 -72c4 -2 9 -3 13 -3c5 0 8 1 13 3c41 17 58 40 58 70c0 36 -25 68 -68 68c-38 0 -67 -26 -67 -66zM255 701c60 0 83 33 83 86h61c0 -114 -38 -189 -144 -189c-110 0 -144 75 -144 189h61c0 -53 23 -86 83 -86z" />
    <glyph glyph-name="gdotaccent" unicode="&#x121;" horiz-adv-x="535" 
d="M255 515c42 0 81 -10 114 -26c40 54 80 73 146 73v-130c-22 0 -45 -4 -65 -13c15 -24 24 -50 24 -77c0 -88 -58 -140 -174 -169c-28 -7 -62 -13 -83 -18c-14 -3 -19 -7 -19 -14c0 -9 10 -13 39 -18c37 -6 106 -16 142 -23c93 -17 130 -61 130 -132
c0 -117 -124 -205 -279 -205c-122 0 -194 71 -194 149c0 43 20 77 67 107c-45 15 -78 44 -78 78c0 43 48 79 114 112c-61 29 -98 76 -98 134c0 94 92 172 214 172zM307 -22c-35 7 -85 12 -135 22c-11 -11 -19 -29 -19 -48c0 -38 33 -61 93 -61c61 0 102 24 102 50
c0 17 -8 30 -41 37zM182 330c0 -31 18 -56 51 -72c4 -2 9 -3 13 -3c5 0 8 1 13 3c41 17 58 40 58 70c0 36 -25 68 -68 68c-38 0 -67 -26 -67 -66zM254 786c54 0 91 -37 91 -91c0 -52 -36 -90 -90 -90c-55 0 -91 36 -91 90s37 91 90 91z" />
    <glyph glyph-name="gcommaaccent" unicode="&#x123;" horiz-adv-x="535" 
d="M255 515c42 0 81 -10 114 -26c40 54 80 73 146 73v-130c-22 0 -45 -4 -65 -13c15 -24 24 -50 24 -77c0 -88 -58 -140 -174 -169c-28 -7 -62 -13 -83 -18c-14 -3 -19 -7 -19 -14c0 -9 10 -13 39 -18c37 -6 106 -16 142 -23c93 -17 130 -61 130 -132
c0 -117 -124 -205 -279 -205c-122 0 -194 71 -194 149c0 43 20 77 67 107c-45 15 -78 44 -78 78c0 43 48 79 114 112c-61 29 -98 76 -98 134c0 94 92 172 214 172zM307 -22c-35 7 -85 12 -135 22c-11 -11 -19 -29 -19 -48c0 -38 33 -61 93 -61c61 0 102 24 102 50
c0 17 -8 30 -41 37zM182 330c0 -31 18 -56 51 -72c4 -2 9 -3 13 -3c5 0 8 1 13 3c41 17 58 40 58 70c0 36 -25 68 -68 68c-38 0 -67 -26 -67 -66zM181 593c-10 19 -15 37 -15 61c0 33 20 69 97 127h76c-40 -52 -51 -83 -51 -117c0 -15 6 -33 16 -47z" />
    <glyph glyph-name="hcircumflex" unicode="&#x125;" horiz-adv-x="619" 
d="M70 0v748l165 32v-342c57 55 100 76 162 76c103 0 160 -60 160 -172v-342h-165v285c0 54 -21 79 -64 79c-27 0 -51 -10 -65 -26c-19 -21 -28 -40 -28 -78v-260h-165zM389 810l-90 82l-87 -82h-76l99 159h131l99 -159h-76z" />
    <glyph glyph-name="hbar" unicode="&#x127;" horiz-adv-x="619" 
d="M70 0v591h-50v92h50v65l165 32v-97h150v-92h-150v-153c57 55 100 76 162 76c103 0 160 -60 160 -172v-342h-165v285c0 54 -21 79 -64 79c-27 0 -51 -10 -65 -26c-19 -21 -28 -40 -28 -78v-260h-165z" />
    <glyph glyph-name="dotlessi" unicode="&#x131;" horiz-adv-x="305" 
d="M70 483l165 33v-516h-165v483z" />
    <glyph glyph-name="igrave" unicode="&#xec;" horiz-adv-x="305" 
d="M70 483l165 33v-516h-165v483zM147 598l-163 189h165l67 -189h-69z" />
    <glyph glyph-name="iacute" unicode="&#xed;" horiz-adv-x="305" 
d="M70 483l165 33v-516h-165v483zM320 787l-163 -189h-69l67 189h165z" />
    <glyph glyph-name="icircumflex" unicode="&#xee;" horiz-adv-x="305" 
d="M70 483l165 33v-516h-165v483zM236 598l-84 100l-84 -100h-75l106 189h106l106 -189h-75z" />
    <glyph glyph-name="itilde" unicode="&#x129;" horiz-adv-x="305" 
d="M96 633c-29 0 -49 -22 -54 -48l-55 12c10 96 59 155 120 155c36 0 74 -34 103 -34s49 22 54 48l55 -12c-10 -96 -59 -155 -120 -155c-36 0 -74 34 -103 34zM70 483l165 33v-516h-165v483z" />
    <glyph glyph-name="idieresis" unicode="&#xef;" horiz-adv-x="305" 
d="M45 744c46 0 77 -31 77 -77c0 -44 -30 -76 -76 -76c-47 0 -77 30 -77 76s31 77 76 77zM248 744c46 0 77 -31 77 -77c0 -44 -30 -76 -76 -76c-47 0 -77 30 -77 76s31 77 76 77zM70 483l165 33v-516h-165v483z" />
    <glyph glyph-name="imacron" unicode="&#x12b;" horiz-adv-x="305" 
d="M70 483l165 33v-516h-165v483zM298 743v-112h-294v112h294z" />
    <glyph glyph-name="ibreve" unicode="&#x12d;" horiz-adv-x="305" 
d="M70 483l165 33v-516h-165v483zM152 701c60 0 83 33 83 86h61c0 -114 -38 -189 -144 -189c-110 0 -144 75 -144 189h61c0 -53 23 -86 83 -86z" />
    <glyph glyph-name="iogonek" unicode="&#x12f;" horiz-adv-x="305" 
d="M70 483l165 33v-516c-75 -14 -102 -56 -102 -98c0 -21 14 -37 38 -37c30 0 55 9 78 35h3l-7 -111c-30 -18 -65 -26 -108 -26c-84 0 -138 39 -138 107c0 46 21 86 71 130v483zM153 766c54 0 91 -37 91 -91c0 -52 -36 -90 -90 -90c-55 0 -91 36 -91 90s37 91 90 91z" />
    <glyph glyph-name="ij" unicode="&#x133;" horiz-adv-x="575" 
d="M70 483l165 33v-516h-165v483zM153 766c54 0 91 -37 91 -91c0 -52 -36 -90 -90 -90c-55 0 -91 36 -91 90s37 91 90 91zM340 483l165 33v-516c0 -111 -17 -159 -46 -193l-210 -44l-6 16c61 37 97 111 97 210v494zM421 766c54 0 91 -37 91 -91c0 -52 -36 -90 -90 -90
c-55 0 -91 36 -91 90s37 91 90 91z" />
    <glyph glyph-name="dotlessj" unicode="&#x237;" horiz-adv-x="305" 
d="M70 483l165 33v-516c0 -111 -17 -159 -46 -193l-210 -44l-6 16c61 37 97 111 97 210v494z" />
    <glyph glyph-name="jcircumflex" unicode="&#x135;" horiz-adv-x="305" 
d="M70 483l165 33v-516c0 -111 -17 -159 -46 -193l-210 -44l-6 16c61 37 97 111 97 210v494zM236 598l-84 100l-84 -100h-75l106 189h106l106 -189h-75z" />
    <glyph glyph-name="kcommaaccent" unicode="&#x137;" horiz-adv-x="614" 
d="M235 780v-492l161 211h205l-207 -230l240 -269h-229l-170 242v-242h-165v747zM367 -49c9 -17 15 -41 15 -62c0 -43 -20 -73 -97 -126h-75c40 55 50 84 50 117c0 15 -7 33 -16 47z" />
    <glyph glyph-name="kgreenlandic" unicode="&#x138;" horiz-adv-x="614" 
d="M235 499v-211l161 211h205l-207 -230l240 -269h-229l-170 242v-242h-165v499h165z" />
    <glyph glyph-name="lacute" unicode="&#x13a;" horiz-adv-x="305" 
d="M235 780v-780h-165v747zM315 969l-149 -159h-84l70 159h163z" />
    <glyph glyph-name="lcaron" unicode="&#x13e;" horiz-adv-x="305" 
d="M235 780v-780h-165v747zM399 781c9 -19 13 -37 13 -61c0 -39 -22 -84 -83 -147h-59c20 60 26 92 26 127c0 18 -5 40 -12 57z" />
    <glyph glyph-name="lcommaaccent" unicode="&#x13c;" horiz-adv-x="305" 
d="M235 780v-780h-165v747zM209 -49c9 -17 15 -41 15 -62c0 -43 -20 -73 -97 -126h-75c40 55 50 84 50 117c0 15 -7 33 -16 47z" />
    <glyph glyph-name="ldot" unicode="&#x140;" horiz-adv-x="456" 
d="M235 780v-780h-165v747zM375 505c54 0 91 -37 91 -91c0 -52 -36 -90 -90 -90c-55 0 -91 36 -91 90s37 91 90 91z" />
    <glyph glyph-name="lslash" unicode="&#x142;" horiz-adv-x="335" 
d="M250 780v-280l60 40v-129l-60 -40v-371h-165v263l-60 -39v129l60 39v355z" />
    <glyph glyph-name="nacute" unicode="&#x144;" horiz-adv-x="619" 
d="M70 0v499h165v-61c57 55 100 76 162 76c103 0 160 -60 160 -172v-342h-165v285c0 54 -21 79 -64 79c-27 0 -51 -10 -65 -26c-19 -21 -28 -40 -28 -78v-260h-165zM475 787l-163 -189h-69l67 189h165z" />
    <glyph glyph-name="ncaron" unicode="&#x148;" horiz-adv-x="619" 
d="M70 0v499h165v-61c57 55 100 76 162 76c103 0 160 -60 160 -172v-342h-165v285c0 54 -21 79 -64 79c-27 0 -51 -10 -65 -26c-19 -21 -28 -40 -28 -78v-260h-165zM148 787h75l84 -100l84 100h75l-106 -189h-106z" />
    <glyph glyph-name="ntilde" unicode="&#xf1;" horiz-adv-x="619" 
d="M70 0v499h165v-61c57 55 100 76 162 76c103 0 160 -60 160 -172v-342h-165v285c0 54 -21 79 -64 79c-27 0 -51 -10 -65 -26c-19 -21 -28 -40 -28 -78v-260h-165zM246 653c-29 0 -49 -22 -54 -48l-55 12c10 96 59 155 120 155c44 0 88 -34 123 -34c29 0 49 22 54 48
l55 -12c-10 -96 -59 -155 -120 -155c-44 0 -88 34 -123 34z" />
    <glyph glyph-name="ncommaaccent" unicode="&#x146;" horiz-adv-x="619" 
d="M70 0v499h165v-61c57 55 100 76 162 76c103 0 160 -60 160 -172v-342h-165v285c0 54 -21 79 -64 79c-27 0 -51 -10 -65 -26c-19 -21 -28 -40 -28 -78v-260h-165zM370 -49c9 -17 15 -41 15 -62c0 -43 -20 -73 -97 -126h-75c40 55 50 84 50 117c0 15 -7 33 -16 47z" />
    <glyph glyph-name="napostrophe" unicode="&#x149;" horiz-adv-x="619" 
d="M70 0v499h165v-61c57 55 100 76 162 76c103 0 160 -60 160 -172v-342h-165v285c0 54 -21 79 -64 79c-27 0 -51 -10 -65 -26c-19 -21 -28 -40 -28 -78v-260h-165zM154 781c9 -19 13 -37 13 -61c0 -39 -22 -84 -83 -147h-59c20 60 26 92 26 127c0 18 -5 40 -12 57z" />
    <glyph glyph-name="eng" unicode="&#x14b;" horiz-adv-x="619" 
d="M70 0v499h165v-61c57 55 100 76 162 76c103 0 160 -60 160 -172v-369c0 -130 -72 -210 -197 -210c-29 0 -53 5 -70 14l-15 122c14 -10 26 -14 47 -14c43 0 70 32 70 89v311c0 54 -21 79 -64 79c-27 0 -51 -10 -65 -26c-19 -21 -28 -40 -28 -78v-260h-165z" />
    <glyph glyph-name="ograve" unicode="&#xf2;" horiz-adv-x="620" 
d="M310 115c65 0 105 46 105 141c0 75 -40 130 -105 130c-62 0 -105 -47 -105 -130c0 -85 36 -141 105 -141zM310 -17c-158 0 -275 103 -275 273c0 161 120 260 275 260c158 0 275 -97 275 -260c0 -183 -130 -273 -275 -273zM305 598l-163 189h165l67 -189h-69z" />
    <glyph glyph-name="oacute" unicode="&#xf3;" horiz-adv-x="620" 
d="M310 115c65 0 105 46 105 141c0 75 -40 130 -105 130c-62 0 -105 -47 -105 -130c0 -85 36 -141 105 -141zM310 -17c-158 0 -275 103 -275 273c0 161 120 260 275 260c158 0 275 -97 275 -260c0 -183 -130 -273 -275 -273zM478 787l-163 -189h-69l67 189h165z" />
    <glyph glyph-name="ocircumflex" unicode="&#xf4;" horiz-adv-x="620" 
d="M310 115c65 0 105 46 105 141c0 75 -40 130 -105 130c-62 0 -105 -47 -105 -130c0 -85 36 -141 105 -141zM310 -17c-158 0 -275 103 -275 273c0 161 120 260 275 260c158 0 275 -97 275 -260c0 -183 -130 -273 -275 -273zM394 598l-84 100l-84 -100h-75l106 189h106
l106 -189h-75z" />
    <glyph glyph-name="otilde" unicode="&#xf5;" horiz-adv-x="620" 
d="M310 115c65 0 105 46 105 141c0 75 -40 130 -105 130c-62 0 -105 -47 -105 -130c0 -85 36 -141 105 -141zM310 -17c-158 0 -275 103 -275 273c0 161 120 260 275 260c158 0 275 -97 275 -260c0 -183 -130 -273 -275 -273zM249 653c-29 0 -49 -22 -54 -48l-55 12
c10 96 59 155 120 155c44 0 88 -34 123 -34c29 0 49 22 54 48l55 -12c-10 -96 -59 -155 -120 -155c-44 0 -88 34 -123 34z" />
    <glyph glyph-name="odieresis" unicode="&#xf6;" horiz-adv-x="620" 
d="M310 115c65 0 105 46 105 141c0 75 -40 130 -105 130c-62 0 -105 -47 -105 -130c0 -85 36 -141 105 -141zM310 -17c-158 0 -275 103 -275 273c0 161 120 260 275 260c158 0 275 -97 275 -260c0 -183 -130 -273 -275 -273zM198 764c46 0 77 -31 77 -77
c0 -44 -30 -76 -76 -76c-47 0 -77 30 -77 76s31 77 76 77zM421 764c46 0 77 -31 77 -77c0 -44 -30 -76 -76 -76c-47 0 -77 30 -77 76s31 77 76 77z" />
    <glyph glyph-name="omacron" unicode="&#x14d;" horiz-adv-x="620" 
d="M310 115c65 0 105 46 105 141c0 75 -40 130 -105 130c-62 0 -105 -47 -105 -130c0 -85 36 -141 105 -141zM310 -17c-158 0 -275 103 -275 273c0 161 120 260 275 260c158 0 275 -97 275 -260c0 -183 -130 -273 -275 -273zM456 743v-112h-294v112h294z" />
    <glyph glyph-name="obreve" unicode="&#x14f;" horiz-adv-x="620" 
d="M310 115c65 0 105 46 105 141c0 75 -40 130 -105 130c-62 0 -105 -47 -105 -130c0 -85 36 -141 105 -141zM310 -17c-158 0 -275 103 -275 273c0 161 120 260 275 260c158 0 275 -97 275 -260c0 -183 -130 -273 -275 -273zM310 701c60 0 83 33 83 86h61
c0 -114 -38 -189 -144 -189c-110 0 -144 75 -144 189h61c0 -53 23 -86 83 -86z" />
    <glyph glyph-name="ohungarumlaut" unicode="&#x151;" horiz-adv-x="620" 
d="M310 115c65 0 105 46 105 141c0 75 -40 130 -105 130c-62 0 -105 -47 -105 -130c0 -85 36 -141 105 -141zM310 -17c-158 0 -275 103 -275 273c0 161 120 260 275 260c158 0 275 -97 275 -260c0 -183 -130 -273 -275 -273zM224 787h151l-124 -189h-67zM393 787h152
l-124 -189h-67z" />
    <glyph glyph-name="oslash" unicode="&#xf8;" horiz-adv-x="620" 
d="M310 -17c-52 0 -99 11 -139 31l-31 -41l-75 21l48 62c-49 47 -78 115 -78 200c0 161 120 260 275 260c49 0 95 -10 134 -28l30 39l75 -21l-44 -58c50 -44 80 -110 80 -192c0 -183 -130 -273 -275 -273zM310 115c65 0 105 46 105 141c0 24 -5 47 -13 66l-146 -192
c15 -10 32 -15 54 -15zM205 256c0 -28 3 -52 11 -72l144 188c-14 9 -31 14 -50 14c-62 0 -105 -47 -105 -130z" />
    <glyph glyph-name="oe" unicode="&#x153;" horiz-adv-x="865" 
d="M286 517c76 0 142 -34 183 -93c47 56 112 93 189 93c106 0 167 -61 167 -136c0 -77 -50 -128 -156 -158c-41 -12 -101 -25 -146 -32c13 -41 47 -70 115 -70c66 0 126 30 169 78h3l-14 -162c-43 -36 -107 -54 -172 -54c-77 0 -134 29 -172 73c-43 -49 -102 -73 -166 -73
c-144 0 -251 101 -251 269c0 162 110 265 251 265zM296 115c57 0 91 50 91 141c0 71 -35 130 -91 130c-50 0 -91 -54 -91 -134c0 -79 31 -137 91 -137zM616 400c-44 0 -90 -55 -98 -139c32 7 61 16 82 25c43 18 62 39 62 68c0 30 -17 46 -46 46z" />
    <glyph glyph-name="racute" unicode="&#x155;" horiz-adv-x="415" 
d="M405 506v-172c-28 7 -64 11 -93 11c-48 0 -77 -24 -77 -66v-279h-165v499h165v-73c31 48 75 85 134 85c14 0 26 -2 36 -5zM393 787l-163 -189h-69l67 189h165z" />
    <glyph glyph-name="rcaron" unicode="&#x159;" horiz-adv-x="415" 
d="M405 506v-172c-28 7 -64 11 -93 11c-48 0 -77 -24 -77 -66v-279h-165v499h165v-73c31 48 75 85 134 85c14 0 26 -2 36 -5zM66 787h75l84 -100l84 100h75l-106 -189h-106z" />
    <glyph glyph-name="rcommaaccent" unicode="&#x157;" horiz-adv-x="415" 
d="M405 506v-172c-28 7 -64 11 -93 11c-48 0 -77 -24 -77 -66v-279h-165v499h165v-73c31 48 75 85 134 85c14 0 26 -2 36 -5zM209 -49c9 -17 15 -41 15 -62c0 -43 -20 -73 -97 -126h-75c40 55 50 84 50 117c0 15 -7 33 -16 47z" />
    <glyph glyph-name="sacute" unicode="&#x15b;" horiz-adv-x="460" 
d="M49 31l8 145c47 -47 116 -75 172 -75c31 0 47 12 47 29c0 14 -7 25 -30 36c-27 13 -70 30 -106 48c-76 38 -100 86 -100 155c0 83 70 147 181 147c70 0 127 -11 175 -35l-29 -141c-35 33 -96 58 -136 58c-29 0 -42 -10 -42 -26c0 -15 7 -26 27 -35c26 -12 74 -32 104 -46
c79 -37 105 -88 105 -155c0 -91 -71 -153 -192 -153c-80 0 -142 20 -184 48zM396 787l-163 -189h-69l67 189h165z" />
    <glyph glyph-name="scaron" unicode="&#x161;" horiz-adv-x="460" 
d="M49 31l8 145c47 -47 116 -75 172 -75c31 0 47 12 47 29c0 14 -7 25 -30 36c-27 13 -70 30 -106 48c-76 38 -100 86 -100 155c0 83 70 147 181 147c70 0 127 -11 175 -35l-29 -141c-35 33 -96 58 -136 58c-29 0 -42 -10 -42 -26c0 -15 7 -26 27 -35c26 -12 74 -32 104 -46
c79 -37 105 -88 105 -155c0 -91 -71 -153 -192 -153c-80 0 -142 20 -184 48zM69 787h75l84 -100l84 100h75l-106 -189h-106z" />
    <glyph glyph-name="scircumflex" unicode="&#x15d;" horiz-adv-x="460" 
d="M49 31l8 145c47 -47 116 -75 172 -75c31 0 47 12 47 29c0 14 -7 25 -30 36c-27 13 -70 30 -106 48c-76 38 -100 86 -100 155c0 83 70 147 181 147c70 0 127 -11 175 -35l-29 -141c-35 33 -96 58 -136 58c-29 0 -42 -10 -42 -26c0 -15 7 -26 27 -35c26 -12 74 -32 104 -46
c79 -37 105 -88 105 -155c0 -91 -71 -153 -192 -153c-80 0 -142 20 -184 48zM312 598l-84 100l-84 -100h-75l106 189h106l106 -189h-75z" />
    <glyph glyph-name="scedilla" unicode="&#x15f;" horiz-adv-x="460" 
d="M49 31l8 145c47 -47 116 -75 172 -75c31 0 47 12 47 29c0 14 -7 25 -30 36c-27 13 -70 30 -106 48c-76 38 -100 86 -100 155c0 83 70 147 181 147c70 0 127 -11 175 -35l-29 -141c-35 33 -96 58 -136 58c-29 0 -42 -10 -42 -26c0 -15 7 -26 27 -35c26 -12 74 -32 104 -46
c79 -37 105 -88 105 -155c0 -89 -67 -149 -182 -153l-17 -34c3 1 10 2 16 2c60 0 98 -33 98 -82c0 -56 -55 -97 -132 -97c-37 0 -69 9 -88 25l6 65c16 -16 45 -24 73 -24c26 0 39 12 39 27c0 19 -18 30 -49 30c-18 0 -33 -2 -43 -5l-2 3l44 93c-59 6 -105 22 -139 45z" />
    <glyph glyph-name="uni0219" unicode="&#x219;" horiz-adv-x="460" 
d="M49 31l8 145c47 -47 116 -75 172 -75c31 0 47 12 47 29c0 14 -7 25 -30 36c-27 13 -70 30 -106 48c-76 38 -100 86 -100 155c0 83 70 147 181 147c70 0 127 -11 175 -35l-29 -141c-35 33 -96 58 -136 58c-29 0 -42 -10 -42 -26c0 -15 7 -26 27 -35c26 -12 74 -32 104 -46
c79 -37 105 -88 105 -155c0 -91 -71 -153 -192 -153c-80 0 -142 20 -184 48zM282 -49c9 -17 15 -41 15 -62c0 -43 -20 -73 -97 -126h-75c40 55 50 84 50 117c0 15 -7 33 -16 47z" />
    <glyph glyph-name="tcaron" unicode="&#x165;" horiz-adv-x="410" 
d="M15 499h89v131l165 30v-161h126v-135h-126v-197c0 -94 20 -124 75 -155v-10l-173 -19c-43 20 -67 61 -67 158v223h-89v135zM438 781c9 -19 13 -37 13 -61c0 -39 -22 -84 -83 -147h-59c20 60 26 92 26 127c0 18 -5 40 -12 57z" />
    <glyph glyph-name="uni0163" unicode="&#x163;" horiz-adv-x="410" 
d="M15 499h89v131l165 30v-161h126v-135h-126v-197c0 -94 20 -124 75 -155v-10l-173 -19c-43 20 -67 61 -67 158v223h-89v135zM270 -49c9 -17 15 -41 15 -62c0 -43 -20 -73 -97 -126h-75c40 55 50 84 50 117c0 15 -7 33 -16 47z" />
    <glyph glyph-name="uni021B" unicode="&#x21b;" horiz-adv-x="410" 
d="M15 499h89v131l165 30v-161h126v-135h-126v-197c0 -94 20 -124 75 -155v-10l-173 -19c-43 20 -67 61 -67 158v223h-89v135zM270 -49c9 -17 15 -41 15 -62c0 -43 -20 -73 -97 -126h-75c40 55 50 84 50 117c0 15 -7 33 -16 47z" />
    <glyph glyph-name="tbar" unicode="&#x167;" horiz-adv-x="410" 
d="M15 499h89v131l165 30v-161h126v-135h-126v-93h102v-92h-102v-12c0 -94 20 -124 75 -155v-10l-173 -19c-43 20 -67 61 -67 158v38h-78v92h78v93h-89v135z" />
    <glyph glyph-name="ugrave" unicode="&#xf9;" horiz-adv-x="610" 
d="M62 499h165v-290c0 -49 23 -72 63 -72c31 0 57 13 74 46c8 15 11 30 11 50v266h165v-484l-165 -32v78c-41 -49 -91 -75 -157 -75c-104 0 -156 65 -156 175v338zM296 598l-163 189h165l67 -189h-69z" />
    <glyph glyph-name="uacute" unicode="&#xfa;" horiz-adv-x="610" 
d="M62 499h165v-290c0 -49 23 -72 63 -72c31 0 57 13 74 46c8 15 11 30 11 50v266h165v-484l-165 -32v78c-41 -49 -91 -75 -157 -75c-104 0 -156 65 -156 175v338zM469 787l-163 -189h-69l67 189h165z" />
    <glyph glyph-name="ucircumflex" unicode="&#xfb;" horiz-adv-x="610" 
d="M62 499h165v-290c0 -49 23 -72 63 -72c31 0 57 13 74 46c8 15 11 30 11 50v266h165v-484l-165 -32v78c-41 -49 -91 -75 -157 -75c-104 0 -156 65 -156 175v338zM385 598l-84 100l-84 -100h-75l106 189h106l106 -189h-75z" />
    <glyph glyph-name="utilde" unicode="&#x169;" horiz-adv-x="610" 
d="M62 499h165v-290c0 -49 23 -72 63 -72c31 0 57 13 74 46c8 15 11 30 11 50v266h165v-484l-165 -32v78c-41 -49 -91 -75 -157 -75c-104 0 -156 65 -156 175v338zM240 653c-29 0 -49 -22 -54 -48l-55 12c10 96 59 155 120 155c44 0 88 -34 123 -34c29 0 49 22 54 48l55 -12
c-10 -96 -59 -155 -120 -155c-44 0 -88 34 -123 34z" />
    <glyph glyph-name="udieresis" unicode="&#xfc;" horiz-adv-x="610" 
d="M62 499h165v-290c0 -49 23 -72 63 -72c31 0 57 13 74 46c8 15 11 30 11 50v266h165v-484l-165 -32v78c-41 -49 -91 -75 -157 -75c-104 0 -156 65 -156 175v338zM189 764c46 0 77 -31 77 -77c0 -44 -30 -76 -76 -76c-47 0 -77 30 -77 76s31 77 76 77zM412 764
c46 0 77 -31 77 -77c0 -44 -30 -76 -76 -76c-47 0 -77 30 -77 76s31 77 76 77z" />
    <glyph glyph-name="umacron" unicode="&#x16b;" horiz-adv-x="610" 
d="M62 499h165v-290c0 -49 23 -72 63 -72c31 0 57 13 74 46c8 15 11 30 11 50v266h165v-484l-165 -32v78c-41 -49 -91 -75 -157 -75c-104 0 -156 65 -156 175v338zM447 743v-112h-294v112h294z" />
    <glyph glyph-name="ubreve" unicode="&#x16d;" horiz-adv-x="610" 
d="M62 499h165v-290c0 -49 23 -72 63 -72c31 0 57 13 74 46c8 15 11 30 11 50v266h165v-484l-165 -32v78c-41 -49 -91 -75 -157 -75c-104 0 -156 65 -156 175v338zM301 701c60 0 83 33 83 86h61c0 -114 -38 -189 -144 -189c-110 0 -144 75 -144 189h61c0 -53 23 -86 83 -86z
" />
    <glyph glyph-name="uring" unicode="&#x16f;" horiz-adv-x="610" 
d="M62 499h165v-290c0 -49 23 -72 63 -72c31 0 57 13 74 46c8 15 11 30 11 50v266h165v-484l-165 -32v78c-41 -49 -91 -75 -157 -75c-104 0 -156 65 -156 175v338zM188 691c0 61 52 113 113 113s113 -52 113 -113s-52 -113 -113 -113s-113 52 -113 113zM247 691
c0 -30 24 -54 54 -54s54 24 54 54s-24 54 -54 54s-54 -24 -54 -54z" />
    <glyph glyph-name="uhungarumlaut" unicode="&#x171;" horiz-adv-x="610" 
d="M62 499h165v-290c0 -49 23 -72 63 -72c31 0 57 13 74 46c8 15 11 30 11 50v266h165v-484l-165 -32v78c-41 -49 -91 -75 -157 -75c-104 0 -156 65 -156 175v338zM215 787h151l-124 -189h-67zM384 787h152l-124 -189h-67z" />
    <glyph glyph-name="uogonek" unicode="&#x173;" horiz-adv-x="610" 
d="M375 0v61c-41 -49 -91 -75 -157 -75c-104 0 -156 65 -156 175v338h165v-290c0 -49 23 -72 63 -72c31 0 57 13 74 46c8 15 11 30 11 50v266h165v-499c-89 -14 -122 -56 -122 -98c0 -21 14 -37 42 -37c25 0 52 9 74 35h3l-7 -111c-30 -18 -65 -26 -108 -26
c-84 0 -138 39 -138 107c0 46 27 86 91 130z" />
    <glyph glyph-name="wgrave" unicode="&#x1e81;" horiz-adv-x="866" 
d="M359 499h150l80 -326l115 326h167l-209 -499h-165l-70 252l-87 -252h-166l-179 499h168l95 -325zM429 598l-163 189h165l67 -189h-69z" />
    <glyph glyph-name="wacute" unicode="&#x1e83;" horiz-adv-x="866" 
d="M359 499h150l80 -326l115 326h167l-209 -499h-165l-70 252l-87 -252h-166l-179 499h168l95 -325zM602 787l-163 -189h-69l67 189h165z" />
    <glyph glyph-name="wcircumflex" unicode="&#x175;" horiz-adv-x="866" 
d="M359 499h150l80 -326l115 326h167l-209 -499h-165l-70 252l-87 -252h-166l-179 499h168l95 -325zM518 598l-84 100l-84 -100h-75l106 189h106l106 -189h-75z" />
    <glyph glyph-name="wdieresis" unicode="&#x1e85;" horiz-adv-x="866" 
d="M359 499h150l80 -326l115 326h167l-209 -499h-165l-70 252l-87 -252h-166l-179 499h168l95 -325zM322 764c46 0 77 -31 77 -77c0 -44 -30 -76 -76 -76c-47 0 -77 30 -77 76s31 77 76 77zM545 764c46 0 77 -31 77 -77c0 -44 -30 -76 -76 -76c-47 0 -77 30 -77 76
s31 77 76 77z" />
    <glyph glyph-name="ygrave" unicode="&#x1ef3;" horiz-adv-x="571" 
d="M52 -234c59 59 117 145 153 228l-210 505h178l112 -308l124 308h167l-219 -512c-47 -110 -80 -174 -113 -224h-192v3zM287 598l-163 189h165l67 -189h-69z" />
    <glyph glyph-name="yacute" unicode="&#xfd;" horiz-adv-x="571" 
d="M52 -234c59 59 117 145 153 228l-210 505h178l112 -308l124 308h167l-219 -512c-47 -110 -80 -174 -113 -224h-192v3zM460 787l-163 -189h-69l67 189h165z" />
    <glyph glyph-name="ycircumflex" unicode="&#x177;" horiz-adv-x="571" 
d="M52 -234c59 59 117 145 153 228l-210 505h178l112 -308l124 308h167l-219 -512c-47 -110 -80 -174 -113 -224h-192v3zM376 598l-84 100l-84 -100h-75l106 189h106l106 -189h-75z" />
    <glyph glyph-name="ydieresis" unicode="&#xff;" horiz-adv-x="571" 
d="M52 -234c59 59 117 145 153 228l-210 505h178l112 -308l124 308h167l-219 -512c-47 -110 -80 -174 -113 -224h-192v3zM180 764c46 0 77 -31 77 -77c0 -44 -30 -76 -76 -76c-47 0 -77 30 -77 76s31 77 76 77zM403 764c46 0 77 -31 77 -77c0 -44 -30 -76 -76 -76
c-47 0 -77 30 -77 76s31 77 76 77z" />
    <glyph glyph-name="zacute" unicode="&#x17a;" horiz-adv-x="528" 
d="M478 0h-491l270 352h-213l15 147h464l-272 -352h252zM430 787l-163 -189h-69l67 189h165z" />
    <glyph glyph-name="zcaron" unicode="&#x17e;" horiz-adv-x="528" 
d="M478 0h-491l270 352h-213l15 147h464l-272 -352h252zM103 787h75l84 -100l84 100h75l-106 -189h-106z" />
    <glyph glyph-name="zdotaccent" unicode="&#x17c;" horiz-adv-x="528" 
d="M478 0h-491l270 352h-213l15 147h464l-272 -352h252zM261 786c54 0 91 -37 91 -91c0 -52 -36 -90 -90 -90c-55 0 -91 36 -91 90s37 91 90 91z" />
    <glyph glyph-name="germandbls" unicode="&#xdf;" horiz-adv-x="650" 
d="M566 594c0 -71 -38 -130 -125 -174c110 -40 179 -120 179 -218c0 -128 -84 -219 -226 -219c-43 0 -89 10 -114 25l-18 155h3c18 -24 50 -40 93 -40c64 0 93 33 93 85c0 60 -44 113 -172 132v130c85 16 122 63 122 107c0 43 -23 67 -68 67c-62 0 -103 -43 -103 -119v-525
h-165v526c0 147 110 254 277 254c140 0 224 -76 224 -186z" />
    <glyph glyph-name="thorn" unicode="&#xfe;" horiz-adv-x="625" 
d="M70 747l165 33v-282c29 9 60 14 90 14c149 0 265 -97 265 -258c0 -164 -105 -271 -272 -271c-33 0 -59 5 -83 15v-203l-165 -32v984zM288 390c-24 0 -41 -4 -53 -14v-258c11 -8 33 -13 55 -13c80 0 130 54 130 145c0 85 -51 140 -132 140z" />
    <glyph glyph-name="florin" unicode="&#x192;" 
d="M40 41c15 -13 39 -18 64 -18c56 0 84 49 104 178l22 139h-94v139h116l13 79c25 153 104 214 223 214c43 0 82 -10 112 -31l-30 -144c-13 17 -35 28 -57 28c-52 0 -78 -26 -90 -102l-7 -44h135v-139h-157l-26 -164c-34 -216 -116 -300 -237 -300c-32 0 -62 7 -80 17z" />
    <glyph glyph-name="uni02C9" unicode="&#x2c9;" horiz-adv-x="334" 
d="M304 723v-112h-294v112h294z" />
    <glyph glyph-name="uni0394" unicode="&#x394;" horiz-adv-x="785" 
d="M780 0h-775l337 751l108 8zM397 558l-190 -426h372z" />
    <glyph glyph-name="uni03A9" unicode="&#x3a9;" horiz-adv-x="798" 
d="M35 0l-20 143h181c-20 23 -48 64 -65 93c-48 82 -68 148 -68 230c0 184 120 321 336 321s336 -137 336 -321c0 -82 -20 -148 -68 -230c-17 -29 -45 -70 -65 -93h181l-20 -143h-316v145c31 30 63 79 85 124c31 64 42 119 42 184c0 100 -59 180 -175 180
c-123 0 -185 -80 -185 -180c0 -65 12 -121 43 -184c23 -46 59 -94 94 -124v-145h-316z" />
    <glyph glyph-name="uni03BC" unicode="&#x3bc;" horiz-adv-x="586" 
d="M277 -14c-31 0 -50 19 -56 44v-236l-161 -31v736h161v-280c0 -54 27 -72 61 -72c22 0 39 7 55 23c17 17 28 47 28 73v256h161v-484l-161 -32v68c-20 -44 -51 -65 -88 -65z" />
    <glyph glyph-name="pi" unicode="&#x3c0;" horiz-adv-x="627" 
d="M25 499h582v-129h-106v-169c0 -60 16 -78 54 -78c17 0 32 4 49 15l-10 -126c-23 -11 -59 -19 -90 -19c-100 0 -146 38 -146 148v229h-104v-192c0 -71 -13 -130 -50 -178h-153c43 52 60 101 60 178v192h-86v129z" />
    <glyph glyph-name="endash" unicode="&#x2013;" horiz-adv-x="600" 
d="M575 319v-101h-550v101h550z" />
    <glyph glyph-name="emdash" unicode="&#x2014;" horiz-adv-x="1000" 
d="M975 319v-101h-950v101h950z" />
    <glyph glyph-name="quoteleft" unicode="&#x2018;" horiz-adv-x="238" 
d="M88 485c-34 28 -56 77 -56 130c0 99 74 155 167 179l13 -26c-34 -13 -60 -45 -60 -90c0 -39 29 -81 69 -108z" />
    <glyph glyph-name="quoteright" unicode="&#x2019;" horiz-adv-x="238" 
d="M150 794c34 -28 56 -77 56 -130c0 -99 -74 -155 -167 -179l-13 26c34 13 60 45 60 90c0 39 -29 81 -69 108z" />
    <glyph glyph-name="quotesinglbase" unicode="&#x201a;" horiz-adv-x="277" 
d="M169 169c34 -28 56 -77 56 -130c0 -99 -74 -155 -167 -179l-13 26c34 13 60 45 60 90c0 39 -29 81 -69 108z" />
    <glyph glyph-name="quotedblleft" unicode="&#x201c;" horiz-adv-x="446" 
d="M295 485c-34 28 -56 77 -56 130c0 99 74 155 167 179l13 -26c-34 -13 -60 -45 -60 -90c0 -39 29 -81 69 -108zM88 485c-34 28 -56 77 -56 130c0 99 74 155 167 179l13 -26c-34 -13 -60 -45 -60 -90c0 -39 29 -81 69 -108z" />
    <glyph glyph-name="quotedblright" unicode="&#x201d;" horiz-adv-x="446" 
d="M358 794c34 -28 56 -77 56 -130c0 -99 -74 -155 -167 -179l-13 26c34 13 60 45 60 90c0 39 -29 81 -69 108zM151 794c34 -28 56 -77 56 -130c0 -99 -74 -155 -167 -179l-13 26c34 13 60 45 60 90c0 39 -29 81 -69 108z" />
    <glyph glyph-name="quotedblbase" unicode="&#x201e;" horiz-adv-x="484" 
d="M376 169c34 -28 56 -77 56 -130c0 -99 -74 -155 -167 -179l-13 26c34 13 60 45 60 90c0 39 -29 81 -69 108zM169 169c34 -28 56 -77 56 -130c0 -99 -74 -155 -167 -179l-13 26c34 13 60 45 60 90c0 39 -29 81 -69 108z" />
    <glyph glyph-name="dagger" unicode="&#x2020;" horiz-adv-x="496" 
d="M168 735h160l-26 -206l179 21v-147l-179 21l24 -139c-19 -132 -29 -261 -29 -397h-98c0 136 -10 265 -29 397l24 139l-179 -21v147l179 -21z" />
    <glyph glyph-name="daggerdbl" unicode="&#x2021;" horiz-adv-x="516" 
d="M338 -112h-160l26 196l-179 -21v147l179 -21l-24 123l24 122l-179 -21v147l179 -21l-26 196h160l-26 -196l179 21v-147l-179 21l24 -122l-24 -123l179 21v-147l-179 21z" />
    <glyph glyph-name="bullet" unicode="&#x2022;" horiz-adv-x="330" 
d="M35 400c0 70 57 130 130 130c70 0 130 -60 130 -130c0 -73 -60 -130 -130 -130c-73 0 -130 57 -130 130z" />
    <glyph glyph-name="ellipsis" unicode="&#x2026;" horiz-adv-x="817" 
d="M408 163c54 0 91 -37 91 -91c0 -52 -36 -90 -90 -90c-55 0 -91 36 -91 90s37 91 90 91zM681 163c54 0 91 -37 91 -91c0 -52 -36 -90 -90 -90c-55 0 -91 36 -91 90s37 91 90 91zM135 163c54 0 91 -37 91 -91c0 -52 -36 -90 -90 -90c-55 0 -91 36 -91 90s37 91 90 91z" />
    <glyph glyph-name="perthousand" unicode="&#x2030;" horiz-adv-x="1172" 
d="M685 752l-459 -752h-103l458 752h104zM196 370c-88 0 -146 59 -146 161c0 105 82 211 188 211c88 0 146 -59 146 -161c0 -105 -82 -211 -188 -211zM235 650c-51 0 -89 -58 -89 -126c0 -40 19 -62 53 -62c51 0 89 58 89 126c0 40 -19 62 -53 62zM564 10
c-88 0 -146 59 -146 161c0 105 82 211 188 211c88 0 146 -59 146 -161c0 -105 -82 -211 -188 -211zM603 290c-51 0 -89 -58 -89 -126c0 -40 19 -62 53 -62c51 0 89 58 89 126c0 40 -19 62 -53 62zM934 10c-88 0 -146 59 -146 161c0 105 82 211 188 211
c88 0 146 -59 146 -161c0 -105 -82 -211 -188 -211zM973 290c-51 0 -89 -58 -89 -126c0 -40 19 -62 53 -62c51 0 89 58 89 126c0 40 -19 62 -53 62z" />
    <glyph glyph-name="guilsinglleft" unicode="&#x2039;" horiz-adv-x="335" 
d="M160 82l-130 165l130 165h135l-99 -165l99 -165h-135z" />
    <glyph glyph-name="guilsinglright" unicode="&#x203a;" horiz-adv-x="335" 
d="M175 412l130 -165l-130 -165h-135l99 165l-99 165h135z" />
    <glyph glyph-name="fraction" unicode="&#x2044;" horiz-adv-x="145" 
d="M385 780l-519 -810h-106l518 810h107z" />
    <glyph glyph-name="Euro" unicode="&#x20ac;" 
d="M32 423l22 94h41c46 158 172 248 360 248c60 0 106 -9 144 -25l-32 -135c-27 16 -70 26 -116 26c-94 0 -159 -42 -193 -114h287l-22 -94h-290c-1 -16 -2 -32 -2 -48v-26h275l-22 -94h-233c33 -83 107 -122 210 -122c52 0 105 13 147 44l-18 -163
c-37 -17 -81 -25 -135 -25c-204 0 -332 85 -369 266h-66l22 94h34v22c0 18 1 35 2 52h-46z" />
    <glyph glyph-name="uni20B9" unicode="&#x20b9;" 
d="M29 452l40 104h269c-19 63 -73 92 -152 92h-157l40 104h525l-40 -104h-106c23 -25 39 -56 47 -92h99l-40 -104h-60c-17 -83 -77 -146 -166 -183l206 -269h-219l-230 324v4c156 19 229 59 251 124h-307z" />
    <glyph glyph-name="uni20BA" unicode="&#x20ba;" 
d="M38 413v120l62 32v187h167v-108l135 71v-120l-135 -71v-84l135 71v-120l-135 -71v-167c5 -2 11 -3 17 -3c79 0 149 60 181 184l148 -87c-51 -167 -180 -261 -349 -261c-68 0 -123 10 -164 27v228l-62 -32v120l62 32v84z" />
    <glyph glyph-name="afii61289" unicode="&#x2113;" horiz-adv-x="412" 
d="M363 31c-27 -29 -84 -46 -125 -46c-117 0 -169 42 -169 165v21l-27 -26l-22 97l49 49v289c0 138 72 200 174 200c91 0 144 -64 144 -168c0 -98 -60 -190 -215 -342v-80c0 -72 24 -93 82 -93c45 0 81 19 116 57h3zM172 580v-183c84 92 112 147 112 205c0 48 -18 76 -51 76
c-37 0 -61 -25 -61 -98z" />
    <glyph glyph-name="trademark" unicode="&#x2122;" horiz-adv-x="982" 
d="M252 350h-113v299h-122v103h357v-103h-122v-299zM430 350v402h123l130 -249l130 249h124v-402h-109v221l-115 -221h-57l-117 222v-222h-109z" />
    <glyph glyph-name="Omega" unicode="&#x2126;" horiz-adv-x="798" 
d="M35 0l-20 143h181c-20 23 -48 64 -65 93c-48 82 -68 148 -68 230c0 184 120 321 336 321s336 -137 336 -321c0 -82 -20 -148 -68 -230c-17 -29 -45 -70 -65 -93h181l-20 -143h-316v145c31 30 63 79 85 124c31 64 42 119 42 184c0 100 -59 180 -175 180
c-123 0 -185 -80 -185 -180c0 -65 12 -121 43 -184c23 -46 59 -94 94 -124v-145h-316z" />
    <glyph glyph-name="partialdiff" unicode="&#x2202;" horiz-adv-x="572" 
d="M282 489c50 0 93 -19 126 -49c-11 127 -69 201 -167 201c-55 0 -95 -16 -134 -60h-3l-12 136c45 40 100 55 170 55c169 0 280 -135 280 -370c0 -263 -122 -419 -295 -419c-138 0 -225 92 -225 225c0 173 106 281 260 281zM267 124c71 0 123 65 139 184
c-31 42 -69 62 -114 62c-76 0 -125 -54 -125 -132c0 -68 35 -114 100 -114z" />
    <glyph glyph-name="Delta" unicode="&#x2206;" horiz-adv-x="785" 
d="M780 0h-775l337 751l108 8zM397 558l-190 -426h372z" />
    <glyph glyph-name="product" unicode="&#x220f;" horiz-adv-x="707" 
d="M213 -220h-143v952h567v-952h-141v820h-283v-820z" />
    <glyph glyph-name="summation" unicode="&#x2211;" horiz-adv-x="538" 
d="M518 -220h-508l288 476l-288 476h508v-122h-281l215 -354l-215 -354h281v-122z" />
    <glyph glyph-name="minus" unicode="&#x2212;" horiz-adv-x="610" 
d="M565 329v-141h-520v141h520z" />
    <glyph glyph-name="uni2215" unicode="&#x2215;" horiz-adv-x="145" 
d="M385 780l-519 -810h-106l518 810h107z" />
    <glyph glyph-name="uni2219" unicode="&#x2219;" horiz-adv-x="271" 
d="M135 348c54 0 91 -37 91 -91c0 -52 -36 -90 -90 -90c-55 0 -91 36 -91 90s37 91 90 91z" />
    <glyph glyph-name="radical" unicode="&#x221a;" horiz-adv-x="610" 
d="M263 -99l-123 369l-96 -35l-42 116l198 72l112 -337l195 804h101l-240 -989h-105z" />
    <glyph glyph-name="infinity" unicode="&#x221e;" horiz-adv-x="610" 
d="M179 407c55 0 96 -32 128 -79c26 41 68 79 119 79c91 0 147 -64 147 -150c0 -93 -62 -146 -143 -146c-56 0 -97 31 -128 78c-27 -41 -69 -78 -119 -78c-91 0 -147 64 -147 150c0 93 62 146 143 146zM430 320c-37 0 -64 -21 -86 -59c21 -42 47 -65 82 -65
c37 0 65 24 65 61c0 39 -22 63 -61 63zM179 198c36 0 64 20 86 59c-22 41 -47 65 -82 65c-37 0 -65 -24 -65 -61c0 -39 22 -63 61 -63z" />
    <glyph glyph-name="integral" unicode="&#x222b;" horiz-adv-x="486" 
d="M181 35v463c0 173 63 254 201 254c34 0 69 -7 94 -21l-19 -133c-19 18 -43 27 -67 27c-57 0 -85 -36 -85 -122v-439c0 -199 -68 -284 -211 -284c-30 0 -62 8 -84 27l25 123c19 -19 33 -27 64 -27c57 0 82 36 82 132z" />
    <glyph glyph-name="approxequal" unicode="&#x2248;" horiz-adv-x="610" 
d="M565 366c-29 -50 -75 -84 -136 -84c-92 0 -155 78 -242 78c-39 0 -67 -14 -89 -44l-53 106c29 44 75 68 136 68c92 0 158 -78 242 -78c38 0 65 17 87 48zM565 115c-29 -44 -75 -68 -136 -68c-92 0 -155 78 -242 78c-38 0 -65 -17 -87 -48l-55 94c29 50 75 84 136 84
c92 0 158 -78 242 -78c37 0 66 14 89 44z" />
    <glyph glyph-name="notequal" unicode="&#x2260;" horiz-adv-x="610" 
d="M565 209v-121h-309l-35 -58h-119l35 58h-92v121h166l61 99h-227v121h301l36 58h120l-36 -58h99v-121h-173l-61 -99h234z" />
    <glyph glyph-name="lessequal" unicode="&#x2264;" horiz-adv-x="610" 
d="M565 401l-390 -74l390 -73v-113l-520 120v133l520 120v-113zM565 119v-111h-520v111h520z" />
    <glyph glyph-name="greaterequal" unicode="&#x2265;" horiz-adv-x="610" 
d="M45 141v113l390 73l-390 74v113l520 -120v-133zM565 119v-111h-520v111h520z" />
    <glyph glyph-name="lozenge" unicode="&#x25ca;" horiz-adv-x="521" 
d="M35 390l187 390h77l187 -390l-187 -390h-77zM149 391l111 -231l111 232l-111 230z" />
    <glyph glyph-name="fi" unicode="&#xfb01;" horiz-adv-x="698" 
d="M258 525v-26h125v-135h-125v-364h-165v364h-78v135h78v57c0 99 37 172 111 199l186 25v-66c-105 -24 -132 -80 -132 -189zM463 483l165 33v-516h-165v483zM546 766c54 0 91 -37 91 -91c0 -52 -36 -90 -90 -90c-55 0 -91 36 -91 90s37 91 90 91z" />
    <glyph glyph-name="fl" unicode="&#xfb02;" horiz-adv-x="698" 
d="M258 525v-26h125v-135h-125v-364h-165v364h-78v135h78v57c0 99 37 172 111 199l186 25v-66c-105 -24 -132 -80 -132 -189zM628 780v-780h-165v747z" />
    <glyph glyph-name="questiondown.cap" horiz-adv-x="496" 
d="M370 602c-54 0 -91 37 -91 91c0 52 36 90 90 90c55 0 91 -36 91 -90s-37 -91 -90 -91zM301 529l143 30v-216c-133 -5 -213 -49 -213 -125c0 -56 43 -93 120 -93c42 0 78 6 110 18l-22 -147c-35 -10 -73 -14 -119 -14c-147 0 -255 78 -255 221c0 125 94 212 236 239v87z
" />
    <glyph glyph-name="exclamdown.cap" horiz-adv-x="334" 
d="M173 602c-54 0 -91 37 -91 91c0 52 36 90 90 90c55 0 91 -36 91 -90s-37 -91 -90 -91zM269 6l-204 -24c9 198 47 417 93 572l31 -5c44 -150 75 -370 80 -543z" />
    <glyph glyph-name="periodcenterd.cap" horiz-adv-x="271" 
d="M135 477c54 0 91 -37 91 -91c0 -52 -36 -90 -90 -90c-55 0 -91 36 -91 90s37 91 90 91z" />
    <glyph glyph-name="hyphen.cap" horiz-adv-x="324" 
d="M289 457v-141h-254v141h254z" />
    <glyph glyph-name="endash.cap" horiz-adv-x="600" 
d="M575 436v-101h-550v101h550z" />
    <glyph glyph-name="emdash.cap" horiz-adv-x="1000" 
d="M975 436v-101h-950v101h950z" />
    <glyph glyph-name="uni00AD.cap" horiz-adv-x="324" 
d="M289 457v-141h-254v141h254z" />
    <glyph glyph-name="parenleft.cap" horiz-adv-x="372" 
d="M60 386c0 186 52 313 158 423h109c-95 -132 -134 -251 -134 -423s39 -291 134 -423h-109c-106 110 -158 237 -158 423z" />
    <glyph glyph-name="parenright.cap" horiz-adv-x="372" 
d="M312 386c0 -186 -52 -313 -158 -423h-109c95 132 134 251 134 423s-39 291 -134 423h109c106 -110 158 -237 158 -423z" />
    <glyph glyph-name="bracketleft.cap" horiz-adv-x="372" 
d="M70 -37v846h272v-81h-142v-684h142v-81h-272z" />
    <glyph glyph-name="bracketright.cap" horiz-adv-x="372" 
d="M302 809v-846h-272v81h142v684h-142v81h272z" />
    <glyph glyph-name="braceleft.cap" horiz-adv-x="372" 
d="M20 348v76c73 6 100 55 100 115v110c0 115 68 160 212 160v-77c-59 0 -86 -25 -86 -96v-118c0 -80 -41 -118 -110 -132c69 -14 110 -52 110 -132v-118c0 -73 27 -96 86 -96v-77c-144 0 -212 45 -212 160v110c0 60 -27 109 -100 115z" />
    <glyph glyph-name="braceright.cap" horiz-adv-x="372" 
d="M352 424v-76c-73 -6 -100 -55 -100 -115v-110c0 -115 -68 -160 -212 -160v77c59 0 86 25 86 96v118c0 80 41 118 110 132c-69 14 -110 52 -110 132v118c0 73 -27 96 -86 96v77c144 0 212 -45 212 -160v-110c0 -60 27 -109 100 -115z" />
    <glyph glyph-name="guilsinglleft.cap" horiz-adv-x="335" 
d="M160 221l-130 165l130 165h135l-99 -165l99 -165h-135z" />
    <glyph glyph-name="guilsinglright.cap" horiz-adv-x="335" 
d="M175 551l130 -165l-130 -165h-135l99 165l-99 165h135z" />
    <glyph glyph-name="guillemotleft.cap" horiz-adv-x="525" 
d="M160 221l-130 165l130 165h115l-99 -165l99 -165h-115zM370 221l-130 165l130 165h115l-99 -165l99 -165h-115z" />
    <glyph glyph-name="guillemotright.cap" horiz-adv-x="525" 
d="M155 551l130 -165l-130 -165h-115l99 165l-99 165h115zM365 551l130 -165l-130 -165h-115l99 165l-99 165h115z" />
    <glyph glyph-name="A.superior" horiz-adv-x="440" 
d="M3 350l181 400l80 12l173 -412h-128l-23 62h-134l-21 -62h-128zM218 610l-43 -115h86z" />
    <glyph glyph-name="B.superior" horiz-adv-x="369" 
d="M327 657c0 -41 -19 -70 -53 -86c48 -18 73 -53 73 -102c0 -71 -65 -119 -163 -119h-139v402h146c91 0 136 -41 136 -95zM154 518v-80h32c37 0 49 17 49 42c0 21 -16 38 -49 38h-32zM154 664v-73h24c28 0 43 13 43 39c0 19 -14 34 -38 34h-29z" />
    <glyph glyph-name="C.superior" horiz-adv-x="397" 
d="M361 723l-9 -128h-3c-23 33 -62 56 -111 56c-63 0 -98 -42 -98 -100c0 -54 38 -99 101 -99c48 0 90 26 121 69h3l-10 -139c-33 -25 -78 -39 -126 -39c-122 0 -207 82 -207 210c0 108 82 206 207 206c51 0 96 -12 132 -36z" />
    <glyph glyph-name="D.superior" horiz-adv-x="423" 
d="M179 350h-134v402h135c141 0 221 -80 221 -196c0 -132 -78 -206 -222 -206zM158 649v-196h27c66 0 101 36 101 103c0 50 -34 93 -100 93h-28z" />
    <glyph glyph-name="E.superior" horiz-adv-x="330" 
d="M158 654v-52h113v-91h-113v-63h137v-98h-250v402h248v-98h-135z" />
    <glyph glyph-name="F.superior" horiz-adv-x="315" 
d="M295 752v-98h-137v-68h123v-97h-123v-139h-113v402h250z" />
    <glyph glyph-name="G.superior" horiz-adv-x="405" 
d="M378 548v-164c-46 -27 -99 -41 -151 -41c-122 0 -205 77 -205 203c0 106 74 213 217 213c43 0 85 -10 123 -30l-11 -123h-3c-23 28 -59 50 -107 50c-63 0 -101 -40 -101 -109c0 -63 33 -104 93 -104c12 0 24 2 32 6v99h113z" />
    <glyph glyph-name="H.superior" horiz-adv-x="445" 
d="M158 350h-113v402h113v-142h129v142h113v-402h-113v157h-129v-157z" />
    <glyph glyph-name="I.superior" horiz-adv-x="203" 
d="M158 350h-113v402h113v-402z" />
    <glyph glyph-name="J.superior" horiz-adv-x="203" 
d="M44 752h114v-325c0 -90 -13 -140 -43 -173l-139 -27l-2 5c52 44 70 78 70 188v332z" />
    <glyph glyph-name="K.superior" horiz-adv-x="440" 
d="M158 350h-113v402h113v-171l126 171h147l-158 -195l168 -207h-151l-132 179v-179z" />
    <glyph glyph-name="L.superior" horiz-adv-x="330" 
d="M45 350v402h113v-299h160v-103h-273z" />
    <glyph glyph-name="M.superior" horiz-adv-x="597" 
d="M45 350v402h123l130 -249l130 249h124v-402h-109v221l-115 -221h-57l-117 222v-222h-109z" />
    <glyph glyph-name="N.superior" horiz-adv-x="480" 
d="M325 752h110v-402h-87l-193 220v-220h-110v402h86l194 -219v219z" />
    <glyph glyph-name="O.superior" horiz-adv-x="456" 
d="M318 551c0 60 -38 106 -90 106s-90 -46 -90 -106s38 -106 90 -106s90 46 90 106zM434 551c0 -121 -86 -209 -206 -209c-121 0 -206 88 -206 209s86 209 206 209c121 0 206 -88 206 -209z" />
    <glyph glyph-name="P.superior" horiz-adv-x="363" 
d="M158 350h-113v402h138c99 0 160 -49 160 -134c0 -100 -61 -149 -171 -149h-14v-119zM158 657v-93h19c36 0 57 17 57 47c0 28 -19 46 -54 46h-22z" />
    <glyph glyph-name="Q.superior" horiz-adv-x="461" 
d="M231 351c-15 0 -29 2 -43 5v-1c23 -7 65 -16 94 -20c35 -5 75 -9 108 -9l-33 -109c-33 2 -66 8 -101 19c-53 17 -100 39 -140 54c-20 7 -40 13 -55 16l43 90c-48 36 -82 91 -82 152c0 124 87 212 209 212s208 -88 208 -210c0 -115 -87 -199 -208 -199zM318 550
c0 60 -37 104 -87 104c-51 0 -88 -45 -88 -106c0 -60 34 -105 88 -105c50 0 87 47 87 107z" />
    <glyph glyph-name="R.superior" horiz-adv-x="389" 
d="M46 350v402h135c102 0 163 -48 163 -131c0 -48 -28 -87 -72 -110l118 -161h-132l-93 139h-6v-139h-113zM159 657v-98h3c42 0 67 18 67 48c0 35 -25 50 -62 50h-8z" />
    <glyph glyph-name="S.superior" horiz-adv-x="301" 
d="M34 493c41 -32 75 -50 108 -50c18 0 27 7 27 21c0 18 -11 26 -65 60c-69 44 -78 78 -78 127c0 64 54 109 129 109c35 0 71 -6 104 -17v-119c-46 26 -74 38 -97 38c-15 0 -22 -7 -22 -17c0 -11 4 -18 67 -55s79 -69 79 -127c0 -71 -59 -121 -148 -121c-37 0 -66 4 -96 19
l-11 132h3z" />
    <glyph glyph-name="T.superior" horiz-adv-x="391" 
d="M252 350h-113v299h-122v103h357v-103h-122v-299z" />
    <glyph glyph-name="U.superior" horiz-adv-x="426" 
d="M41 752h113v-237c0 -42 25 -61 59 -61s59 19 59 61v237h113v-243c0 -116 -74 -166 -172 -166s-172 50 -172 166v243z" />
    <glyph glyph-name="V.superior" horiz-adv-x="446" 
d="M3 752h133l83 -242l91 242h133l-178 -402h-94z" />
    <glyph glyph-name="W.superior" horiz-adv-x="677" 
d="M412 350l-76 170l-77 -170h-81l-175 402h131l94 -248l59 127l-53 121h131l89 -231l99 231h121l-181 -402h-81z" />
    <glyph glyph-name="X.superior" horiz-adv-x="441" 
d="M8 350l142 207l-145 195h148l67 -107l61 107h142l-136 -187l155 -215h-148l-80 131l-78 -131h-128z" />
    <glyph glyph-name="Y.superior" horiz-adv-x="404" 
d="M250 350h-113v175l-136 227h138l60 -121l67 121h137l-153 -225v-177z" />
    <glyph glyph-name="Z.superior" horiz-adv-x="394" 
d="M361 350h-367l197 292h-157l9 110h356l-207 -293h187z" />
    <glyph glyph-name="ordfeminine" unicode="&#xaa;" horiz-adv-x="366" 
d="M60 585v91c33 21 78 32 121 32c98 0 141 -49 141 -136v-212l-107 -22v40c-30 -23 -65 -38 -105 -38c-58 0 -92 29 -92 82c0 51 32 85 91 110c32 13 68 22 106 27v13c0 27 -17 47 -55 47c-34 0 -71 -12 -97 -34h-3zM215 449v64c-22 -4 -46 -13 -61 -22
c-16 -10 -24 -21 -24 -39c0 -20 11 -30 32 -30c17 0 39 9 53 27z" />
    <glyph glyph-name="b.superior" horiz-adv-x="439" 
d="M210 338c-34 0 -72 10 -92 24l-68 -21v501l110 22v-179c23 16 47 24 84 24c94 0 170 -66 170 -175c0 -119 -79 -196 -204 -196zM213 623c-23 0 -40 -7 -53 -19v-175c10 -5 25 -9 41 -9c61 0 99 36 99 104c0 60 -34 99 -87 99z" />
    <glyph glyph-name="c.superior" horiz-adv-x="349" 
d="M327 481l-14 -115c-23 -15 -64 -28 -108 -28c-110 0 -180 69 -180 180c0 110 71 191 199 191c37 0 72 -9 96 -23l-11 -106c-21 20 -48 32 -81 32c-55 0 -90 -36 -90 -94c0 -48 32 -83 84 -83c42 0 73 13 102 46h3z" />
    <glyph glyph-name="d.superior" horiz-adv-x="440" 
d="M289 339l3 36c-26 -24 -64 -37 -104 -37c-103 0 -163 79 -163 177c0 109 79 194 187 194c25 0 48 -5 68 -15v148l110 22v-504zM223 426c22 0 44 7 57 19v166c-13 7 -30 10 -49 10c-56 0 -93 -38 -93 -103c0 -59 32 -92 85 -92z" />
    <glyph glyph-name="e.superior" horiz-adv-x="365" 
d="M226 505c-29 -8 -69 -17 -103 -22c9 -31 34 -53 83 -53c45 0 87 20 116 53h3l-9 -107c-30 -25 -74 -38 -119 -38c-117 0 -174 79 -174 166c0 103 82 206 197 206c74 0 116 -41 116 -95c0 -53 -35 -89 -110 -110zM193 631c-34 0 -68 -41 -74 -101c23 5 45 11 62 18
c32 13 46 28 46 49c0 22 -13 34 -34 34z" />
    <glyph glyph-name="f.superior" horiz-adv-x="271" 
d="M176 699v-2h88v-90h-88v-257h-109v257h-56v90h56v11c0 69 25 119 76 138l126 18v-45c-74 -16 -93 -51 -93 -120z" />
    <glyph glyph-name="g.superior" horiz-adv-x="372" 
d="M177 708c30 0 57 -7 80 -18c27 36 55 50 100 50v-87c-16 0 -31 -4 -46 -10c12 -17 18 -36 18 -55c0 -61 -41 -97 -120 -117c-21 -5 -45 -9 -60 -13c-11 -3 -15 -5 -15 -11c0 -7 8 -9 29 -13c26 -4 75 -12 100 -17c64 -12 90 -42 90 -91c0 -80 -86 -141 -193 -141
c-85 0 -135 49 -135 103c0 31 14 55 48 76c-32 11 -54 31 -54 54c0 30 33 55 79 77c-42 20 -68 53 -68 93c0 66 63 120 147 120zM215 336c-24 5 -59 8 -94 16c-10 -9 -17 -22 -17 -37c0 -27 23 -45 67 -45c45 0 75 19 75 39c0 12 -7 22 -31 27zM124 580c0 -23 13 -41 37 -52
c3 -1 6 -2 9 -2c4 0 8 1 11 2c30 11 43 28 43 51c0 26 -19 49 -51 49c-28 0 -49 -19 -49 -48z" />
    <glyph glyph-name="h.superior" horiz-adv-x="429" 
d="M50 350v492l110 22v-211c39 39 70 54 114 54c71 0 111 -41 111 -119v-238h-110v200c0 39 -15 57 -47 57c-20 0 -38 -8 -49 -20c-13 -15 -19 -28 -19 -55v-182h-110z" />
    <glyph glyph-name="i.superior" horiz-adv-x="209" 
d="M50 686l110 22v-358h-110v336zM105 881c37 0 61 -25 61 -61c0 -35 -24 -60 -60 -60c-37 0 -61 24 -61 60s25 61 60 61z" />
    <glyph glyph-name="j.superior" horiz-adv-x="209" 
d="M49 686l110 22v-359c0 -77 -12 -111 -32 -134l-141 -30l-4 11c43 26 67 76 67 146v344zM103 881c37 0 61 -25 61 -61c0 -35 -24 -60 -60 -60c-37 0 -61 24 -61 60s25 61 60 61z" />
    <glyph glyph-name="k.superior" horiz-adv-x="423" 
d="M160 864v-314l115 147h137l-141 -160l166 -187h-152l-125 169v-169h-110v492z" />
    <glyph glyph-name="l.superior" horiz-adv-x="210" 
d="M160 864v-514h-110v492z" />
    <glyph glyph-name="m.superior" horiz-adv-x="633" 
d="M480 350v205c0 33 -16 52 -45 52c-21 0 -38 -9 -48 -24c-8 -11 -11 -23 -12 -39v-194h-110v205c0 33 -16 52 -45 52c-21 0 -37 -9 -48 -25c-9 -13 -12 -26 -12 -46v-186h-110v347h110v-41c19 30 56 51 100 51c50 0 84 -26 102 -59c25 36 65 59 113 59
c74 0 114 -49 114 -113v-244h-109z" />
    <glyph glyph-name="n.superior" unicode="&#x207f;" horiz-adv-x="429" 
d="M50 350v347h110v-44c39 39 70 54 114 54c71 0 111 -41 111 -119v-238h-110v200c0 39 -15 57 -47 57c-20 0 -38 -8 -49 -20c-13 -15 -19 -28 -19 -55v-182h-110z" />
    <glyph glyph-name="ordmasculine" unicode="&#xba;" horiz-adv-x="429" 
d="M215 426c47 0 76 34 76 102c0 55 -29 94 -76 94c-46 0 -77 -35 -77 -94c0 -61 26 -102 77 -102zM215 338c-109 0 -190 72 -190 190c0 112 83 181 190 181c108 0 189 -67 189 -181c0 -127 -89 -190 -189 -190z" />
    <glyph glyph-name="p.superior" horiz-adv-x="433" 
d="M50 697h112c20 6 42 9 63 9c103 0 183 -67 183 -179c0 -114 -73 -189 -188 -189c-24 0 -43 4 -60 11v-143l-110 -21v512zM200 624c-18 0 -31 -3 -40 -10v-184c10 -6 25 -10 41 -10c58 0 94 38 94 104c0 61 -36 100 -95 100z" />
    <glyph glyph-name="q.superior" horiz-adv-x="437" 
d="M387 697v-490l-109 -22v177c-24 -15 -52 -23 -84 -23c-102 0 -169 70 -169 181c0 115 76 189 192 189c23 0 48 -4 68 -12h102zM227 429c22 0 40 5 51 15v173c-10 6 -28 10 -47 10c-60 0 -93 -40 -93 -105c0 -58 31 -93 89 -93z" />
    <glyph glyph-name="r.superior" horiz-adv-x="287" 
d="M280 702v-115c-20 4 -43 6 -66 6c-34 0 -54 -19 -54 -49v-194h-110v347h110v-52c22 34 53 60 94 60c10 0 18 -1 26 -3z" />
    <glyph glyph-name="s.superior" horiz-adv-x="319" 
d="M34 372l6 97c32 -33 79 -52 119 -52c24 0 36 9 36 23c0 10 -6 19 -22 27c-20 10 -50 22 -75 34c-52 26 -69 59 -69 106c0 58 48 102 125 102c48 0 87 -8 121 -25l-20 -94c-25 23 -67 40 -97 40c-20 0 -30 -8 -30 -21c0 -11 5 -19 20 -26c19 -9 53 -22 74 -32
c54 -26 72 -61 72 -107c0 -63 -49 -106 -133 -106c-55 0 -98 14 -127 34z" />
    <glyph glyph-name="t.superior" horiz-adv-x="282" 
d="M11 697h62v92l110 21v-113h89v-90h-89v-141c0 -65 14 -86 53 -108v-7l-116 -12c-30 14 -47 42 -47 110v158h-62v90z" />
    <glyph glyph-name="u.superior" horiz-adv-x="423" 
d="M44 697h110v-204c0 -36 17 -52 46 -52c23 0 41 10 55 34c6 11 8 21 8 35v187h110v-337l-110 -22v56c-29 -35 -64 -54 -110 -54c-73 0 -109 45 -109 122v235z" />
    <glyph glyph-name="v.superior" horiz-adv-x="389" 
d="M-3 697h118l72 -232l87 232h118l-150 -347h-115z" />
    <glyph glyph-name="w.superior" horiz-adv-x="597" 
d="M249 697h100l57 -233l83 233h111l-145 -347h-110l-50 204l-63 -204h-111l-124 347h112l68 -232z" />
    <glyph glyph-name="x.superior" horiz-adv-x="401" 
d="M393 697l-135 -165l138 -182h-130l-70 101l-77 -101h-122l141 172l-131 175h135l61 -93l68 93h122z" />
    <glyph glyph-name="y.superior" horiz-adv-x="393" 
d="M36 188c42 41 81 100 107 158l-146 351h118l81 -219l88 219h111l-152 -356c-33 -77 -55 -121 -79 -156h-128v3z" />
    <glyph glyph-name="z.superior" horiz-adv-x="368" 
d="M333 350h-340l192 249h-153l10 98h321l-194 -249h180z" />
    <glyph glyph-name="zero.superior" unicode="&#x2070;" horiz-adv-x="410" 
d="M205 448c-103 0 -175 72 -175 206s72 206 175 206s175 -72 175 -206c0 -133 -72 -206 -175 -206zM205 537c41 0 66 41 66 117s-25 117 -66 117s-66 -41 -66 -117s25 -117 66 -117z" />
    <glyph glyph-name="onesuperior" unicode="&#xb9;" horiz-adv-x="290" 
d="M210 458h-111v304l-89 -4l14 92h186v-392z" />
    <glyph glyph-name="twosuperior" unicode="&#xb2;" horiz-adv-x="370" 
d="M249 606c-24 -22 -50 -41 -77 -58h168l-11 -90h-289v83c34 21 74 51 105 79c44 41 61 67 61 100c0 25 -19 44 -56 44c-38 0 -67 -10 -104 -40l11 109c31 18 72 27 116 27c98 0 146 -52 146 -117c0 -45 -18 -89 -70 -137z" />
    <glyph glyph-name="threesuperior" unicode="&#xb3;" horiz-adv-x="360" 
d="M302 766c0 -41 -26 -78 -72 -95c57 -16 90 -44 90 -95c0 -79 -67 -128 -166 -128c-48 0 -82 5 -109 14l-5 105c34 -20 65 -26 112 -26c38 0 59 18 59 39c0 23 -24 38 -64 38c-31 0 -60 -4 -81 -10l18 91c12 -1 31 -2 47 -2c37 0 62 12 62 38c0 18 -19 34 -55 34
c-35 0 -59 -6 -83 -22l21 101c25 8 58 12 95 12c84 0 131 -41 131 -94z" />
    <glyph glyph-name="four.superior" unicode="&#x2074;" horiz-adv-x="385" 
d="M209 458v88h-199v60l188 244h110v-225h59v-79h-59v-88h-99zM95 625h114v147z" />
    <glyph glyph-name="five.superior" unicode="&#x2075;" horiz-adv-x="359" 
d="M318 850l-13 -82h-158l-8 -52c6 1 13 1 20 1c100 0 156 -54 156 -122c0 -89 -76 -151 -222 -151c-21 0 -36 1 -53 3l13 94c20 -5 38 -6 66 -6c60 0 92 24 92 57c0 30 -29 52 -89 52c-25 0 -51 -4 -73 -10l27 216h242z" />
    <glyph glyph-name="six.superior" unicode="&#x2076;" horiz-adv-x="362" 
d="M285 768c-74 -5 -121 -32 -146 -74c16 6 33 9 53 9c82 0 140 -45 140 -121c0 -73 -58 -134 -147 -134c-99 0 -155 61 -155 164c0 122 77 235 272 250zM178 644c-24 0 -43 -5 -58 -14c-1 -7 -1 -15 -1 -22c0 -50 23 -73 67 -73c33 0 55 23 55 52c0 33 -26 57 -63 57z" />
    <glyph glyph-name="seven.superior" unicode="&#x2077;" horiz-adv-x="342" 
d="M67 458c36 108 83 214 125 302l-182 -4l35 94h282c-63 -145 -111 -271 -139 -392h-121z" />
    <glyph glyph-name="eight.superior" unicode="&#x2078;" horiz-adv-x="387" 
d="M352 569c0 -65 -55 -121 -161 -121c-100 0 -156 48 -156 118c0 40 24 72 68 93c-35 19 -56 47 -56 88c0 61 61 113 144 113c90 0 140 -50 140 -109c0 -34 -18 -61 -52 -82c47 -19 73 -55 73 -100zM249 574c0 26 -19 47 -65 58c-31 -11 -48 -34 -48 -58
c0 -25 20 -47 55 -47c38 0 58 20 58 47zM144 745c0 -27 16 -41 55 -54c22 10 37 25 37 50c0 22 -18 41 -45 41c-26 0 -47 -17 -47 -37z" />
    <glyph glyph-name="nine.superior" unicode="&#x2079;" horiz-adv-x="371" 
d="M123 441l-63 79c63 21 107 44 135 73c-98 2 -165 52 -165 133c0 74 54 134 143 134c100 0 159 -66 159 -160c0 -117 -69 -208 -209 -259zM117 723c0 -42 42 -69 107 -69h7c4 13 6 28 6 44c0 47 -24 79 -63 79c-36 0 -57 -24 -57 -54z" />
    <glyph glyph-name="zero.inferior" unicode="&#x2080;" horiz-adv-x="410" 
d="M205 -152c-103 0 -175 72 -175 206s72 206 175 206s175 -72 175 -206c0 -133 -72 -206 -175 -206zM205 -63c41 0 66 41 66 117s-25 117 -66 117s-66 -41 -66 -117s25 -117 66 -117z" />
    <glyph glyph-name="one.inferior" unicode="&#x2081;" horiz-adv-x="290" 
d="M210 -142h-111v304l-89 -4l14 92h186v-392z" />
    <glyph glyph-name="two.inferior" unicode="&#x2082;" horiz-adv-x="370" 
d="M249 6c-24 -22 -50 -41 -77 -58h168l-11 -90h-289v83c34 21 74 51 105 79c44 41 61 67 61 100c0 25 -19 44 -56 44c-38 0 -67 -10 -104 -40l11 109c31 18 72 27 116 27c98 0 146 -52 146 -117c0 -45 -18 -89 -70 -137z" />
    <glyph glyph-name="three.inferior" unicode="&#x2083;" horiz-adv-x="360" 
d="M302 166c0 -41 -26 -78 -72 -95c57 -16 90 -44 90 -95c0 -79 -67 -128 -166 -128c-48 0 -82 5 -109 14l-5 105c34 -20 65 -26 112 -26c38 0 59 18 59 39c0 23 -24 38 -64 38c-31 0 -60 -4 -81 -10l18 91c12 -1 31 -2 47 -2c37 0 62 12 62 38c0 18 -19 34 -55 34
c-35 0 -59 -6 -83 -22l21 101c25 8 58 12 95 12c84 0 131 -41 131 -94z" />
    <glyph glyph-name="four.inferior" unicode="&#x2084;" horiz-adv-x="385" 
d="M209 -142v88h-199v60l188 244h110v-225h59v-79h-59v-88h-99zM95 25h114v147z" />
    <glyph glyph-name="five.inferior" unicode="&#x2085;" horiz-adv-x="359" 
d="M318 250l-13 -82h-158l-8 -52c6 1 13 1 20 1c100 0 156 -54 156 -122c0 -89 -76 -151 -222 -151c-21 0 -36 1 -53 3l13 94c20 -5 38 -6 66 -6c60 0 92 24 92 57c0 30 -29 52 -89 52c-25 0 -51 -4 -73 -10l27 216h242z" />
    <glyph glyph-name="six.inferior" unicode="&#x2086;" horiz-adv-x="362" 
d="M285 168c-74 -5 -121 -32 -146 -74c16 6 33 9 53 9c82 0 140 -45 140 -121c0 -73 -58 -134 -147 -134c-99 0 -155 61 -155 164c0 122 77 235 272 250zM178 44c-24 0 -43 -5 -58 -14c-1 -7 -1 -15 -1 -22c0 -50 23 -73 67 -73c33 0 55 23 55 52c0 33 -26 57 -63 57z" />
    <glyph glyph-name="seven.inferior" unicode="&#x2087;" horiz-adv-x="342" 
d="M67 -142c36 108 83 214 125 302l-182 -4l35 94h282c-63 -145 -111 -271 -139 -392h-121z" />
    <glyph glyph-name="eight.inferior" unicode="&#x2088;" horiz-adv-x="387" 
d="M352 -31c0 -65 -55 -121 -161 -121c-100 0 -156 48 -156 118c0 40 24 72 68 93c-35 19 -56 47 -56 88c0 61 61 113 144 113c90 0 140 -50 140 -109c0 -34 -18 -61 -52 -82c47 -19 73 -55 73 -100zM249 -26c0 26 -19 47 -65 58c-31 -11 -48 -34 -48 -58
c0 -25 20 -47 55 -47c38 0 58 20 58 47zM144 145c0 -27 16 -41 55 -54c22 10 37 25 37 50c0 22 -18 41 -45 41c-26 0 -47 -17 -47 -37z" />
    <glyph glyph-name="nine.inferior" unicode="&#x2089;" horiz-adv-x="371" 
d="M123 -159l-63 79c63 21 107 44 135 73c-98 2 -165 52 -165 133c0 74 54 134 143 134c100 0 159 -66 159 -160c0 -117 -69 -208 -209 -259zM117 123c0 -42 42 -69 107 -69h7c4 13 6 28 6 44c0 47 -24 79 -63 79c-36 0 -57 -24 -57 -54z" />
    <glyph glyph-name="zero.numerator" horiz-adv-x="410" 
d="M205 350c-103 0 -175 72 -175 206s72 206 175 206s175 -72 175 -206c0 -133 -72 -206 -175 -206zM205 439c41 0 66 41 66 117s-25 117 -66 117s-66 -41 -66 -117s25 -117 66 -117z" />
    <glyph glyph-name="one.numerator" horiz-adv-x="290" 
d="M210 360h-111v304l-89 -4l14 92h186v-392z" />
    <glyph glyph-name="two.numerator" horiz-adv-x="370" 
d="M249 508c-24 -22 -50 -41 -77 -58h168l-11 -90h-289v83c34 21 74 51 105 79c44 41 61 67 61 100c0 25 -19 44 -56 44c-38 0 -67 -10 -104 -40l11 109c31 18 72 27 116 27c98 0 146 -52 146 -117c0 -45 -18 -89 -70 -137z" />
    <glyph glyph-name="three.numerator" horiz-adv-x="360" 
d="M302 668c0 -41 -26 -78 -72 -95c57 -16 90 -44 90 -95c0 -79 -67 -128 -166 -128c-48 0 -82 5 -109 14l-5 105c34 -20 65 -26 112 -26c38 0 59 18 59 39c0 23 -24 38 -64 38c-31 0 -60 -4 -81 -10l18 91c12 -1 31 -2 47 -2c37 0 62 12 62 38c0 18 -19 34 -55 34
c-35 0 -59 -6 -83 -22l21 101c25 8 58 12 95 12c84 0 131 -41 131 -94z" />
    <glyph glyph-name="four.numerator" horiz-adv-x="385" 
d="M209 360v88h-199v60l188 244h110v-225h59v-79h-59v-88h-99zM95 527h114v147z" />
    <glyph glyph-name="five.numerator" horiz-adv-x="359" 
d="M318 752l-13 -82h-158l-8 -52c6 1 13 1 20 1c100 0 156 -54 156 -122c0 -89 -76 -151 -222 -151c-21 0 -36 1 -53 3l13 94c20 -5 38 -6 66 -6c60 0 92 24 92 57c0 30 -29 52 -89 52c-25 0 -51 -4 -73 -10l27 216h242z" />
    <glyph glyph-name="six.numerator" horiz-adv-x="362" 
d="M285 670c-74 -5 -121 -32 -146 -74c16 6 33 9 53 9c82 0 140 -45 140 -121c0 -73 -58 -134 -147 -134c-99 0 -155 61 -155 164c0 122 77 235 272 250zM178 546c-24 0 -43 -5 -58 -14c-1 -7 -1 -15 -1 -22c0 -50 23 -73 67 -73c33 0 55 23 55 52c0 33 -26 57 -63 57z" />
    <glyph glyph-name="seven.numerator" horiz-adv-x="342" 
d="M67 360c36 108 83 214 125 302l-182 -4l35 94h282c-63 -145 -111 -271 -139 -392h-121z" />
    <glyph glyph-name="eight.numerator" horiz-adv-x="387" 
d="M352 471c0 -65 -55 -121 -161 -121c-100 0 -156 48 -156 118c0 40 24 72 68 93c-35 19 -56 47 -56 88c0 61 61 113 144 113c90 0 140 -50 140 -109c0 -34 -18 -61 -52 -82c47 -19 73 -55 73 -100zM249 476c0 26 -19 47 -65 58c-31 -11 -48 -34 -48 -58
c0 -25 20 -47 55 -47c38 0 58 20 58 47zM144 647c0 -27 16 -41 55 -54c22 10 37 25 37 50c0 22 -18 41 -45 41c-26 0 -47 -17 -47 -37z" />
    <glyph glyph-name="nine.numerator" horiz-adv-x="371" 
d="M123 343l-63 79c63 21 107 44 135 73c-98 2 -165 52 -165 133c0 74 54 134 143 134c100 0 159 -66 159 -160c0 -117 -69 -208 -209 -259zM117 625c0 -42 42 -69 107 -69h7c4 13 6 28 6 44c0 47 -24 79 -63 79c-36 0 -57 -24 -57 -54z" />
    <glyph glyph-name="zero.denominator" horiz-adv-x="410" 
d="M205 -10c-103 0 -175 72 -175 206s72 206 175 206s175 -72 175 -206c0 -133 -72 -206 -175 -206zM205 79c41 0 66 41 66 117s-25 117 -66 117s-66 -41 -66 -117s25 -117 66 -117z" />
    <glyph glyph-name="one.denominator" horiz-adv-x="290" 
d="M210 0h-111v304l-89 -4l14 92h186v-392z" />
    <glyph glyph-name="two.denominator" horiz-adv-x="370" 
d="M249 148c-24 -22 -50 -41 -77 -58h168l-11 -90h-289v83c34 21 74 51 105 79c44 41 61 67 61 100c0 25 -19 44 -56 44c-38 0 -67 -10 -104 -40l11 109c31 18 72 27 116 27c98 0 146 -52 146 -117c0 -45 -18 -89 -70 -137z" />
    <glyph glyph-name="three.denominator" horiz-adv-x="360" 
d="M302 308c0 -41 -26 -78 -72 -95c57 -16 90 -44 90 -95c0 -79 -67 -128 -166 -128c-48 0 -82 5 -109 14l-5 105c34 -20 65 -26 112 -26c38 0 59 18 59 39c0 23 -24 38 -64 38c-31 0 -60 -4 -81 -10l18 91c12 -1 31 -2 47 -2c37 0 62 12 62 38c0 18 -19 34 -55 34
c-35 0 -59 -6 -83 -22l21 101c25 8 58 12 95 12c84 0 131 -41 131 -94z" />
    <glyph glyph-name="four.denominator" horiz-adv-x="385" 
d="M209 0v88h-199v60l188 244h110v-225h59v-79h-59v-88h-99zM95 167h114v147z" />
    <glyph glyph-name="five.denominator" horiz-adv-x="359" 
d="M318 392l-13 -82h-158l-8 -52c6 1 13 1 20 1c100 0 156 -54 156 -122c0 -89 -76 -151 -222 -151c-21 0 -36 1 -53 3l13 94c20 -5 38 -6 66 -6c60 0 92 24 92 57c0 30 -29 52 -89 52c-25 0 -51 -4 -73 -10l27 216h242z" />
    <glyph glyph-name="six.denominator" horiz-adv-x="362" 
d="M285 310c-74 -5 -121 -32 -146 -74c16 6 33 9 53 9c82 0 140 -45 140 -121c0 -73 -58 -134 -147 -134c-99 0 -155 61 -155 164c0 122 77 235 272 250zM178 186c-24 0 -43 -5 -58 -14c-1 -7 -1 -15 -1 -22c0 -50 23 -73 67 -73c33 0 55 23 55 52c0 33 -26 57 -63 57z" />
    <glyph glyph-name="seven.denominator" horiz-adv-x="342" 
d="M67 0c36 108 83 214 125 302l-182 -4l35 94h282c-63 -145 -111 -271 -139 -392h-121z" />
    <glyph glyph-name="eight.denominator" horiz-adv-x="387" 
d="M352 111c0 -65 -55 -121 -161 -121c-100 0 -156 48 -156 118c0 40 24 72 68 93c-35 19 -56 47 -56 88c0 61 61 113 144 113c90 0 140 -50 140 -109c0 -34 -18 -61 -52 -82c47 -19 73 -55 73 -100zM249 116c0 26 -19 47 -65 58c-31 -11 -48 -34 -48 -58
c0 -25 20 -47 55 -47c38 0 58 20 58 47zM144 287c0 -27 16 -41 55 -54c22 10 37 25 37 50c0 22 -18 41 -45 41c-26 0 -47 -17 -47 -37z" />
    <glyph glyph-name="nine.denominator" horiz-adv-x="371" 
d="M123 -17l-63 79c63 21 107 44 135 73c-98 2 -165 52 -165 133c0 74 54 134 143 134c100 0 159 -66 159 -160c0 -117 -69 -208 -209 -259zM117 265c0 -42 42 -69 107 -69h7c4 13 6 28 6 44c0 47 -24 79 -63 79c-36 0 -57 -24 -57 -54z" />
    <glyph glyph-name="zero.scprop" horiz-adv-x="606" 
d="M303 -14c-158 0 -267 98 -267 280c0 184 109 279 267 279s267 -95 267 -279c0 -182 -109 -280 -267 -280zM303 117c57 0 93 52 93 149s-36 148 -93 148s-93 -50 -93 -148c0 -97 36 -149 93 -149z" />
    <glyph glyph-name="one.scprop" horiz-adv-x="391" 
d="M311 0h-170v381l-136 -8l20 159h286v-532z" />
    <glyph glyph-name="two.scprop" horiz-adv-x="499" 
d="M338 210c-22 -19 -56 -45 -87 -67h208l-15 -143h-399v125c51 33 109 76 155 119c43 41 59 69 59 97c0 42 -28 67 -74 67c-49 0 -92 -11 -137 -42l22 149c43 21 100 31 162 31c129 0 192 -75 192 -165c0 -61 -24 -115 -86 -171z" />
    <glyph glyph-name="three.scprop" horiz-adv-x="476" 
d="M403 412c0 -59 -31 -105 -95 -129c72 -25 113 -68 113 -132c0 -100 -83 -165 -206 -165c-68 0 -122 7 -160 24l-5 143c41 -24 77 -34 133 -34c48 0 73 21 73 48c0 28 -28 50 -78 50c-39 0 -74 -3 -102 -9l23 121c18 -3 41 -3 63 -3c46 0 76 13 76 45c0 22 -21 41 -61 41
c-50 0 -82 -9 -118 -34l29 148c36 13 82 19 134 19c116 0 181 -59 181 -133z" />
    <glyph glyph-name="four.scprop" horiz-adv-x="579" 
d="M293 0v107h-263v91l239 334h177v-303h78v-122h-78v-107h-153zM161 229h132v187z" />
    <glyph glyph-name="five.scprop" horiz-adv-x="477" 
d="M412 532l-17 -116h-175l-11 -80h8c135 0 205 -71 205 -160c0 -137 -110 -210 -316 -210c-18 0 -43 1 -61 3l18 136c20 -5 42 -6 71 -6c87 0 133 28 133 74c0 35 -37 63 -106 63c-36 0 -68 -3 -99 -10l37 306h313z" />
    <glyph glyph-name="six.scprop" horiz-adv-x="528" 
d="M412 414c-102 -3 -169 -38 -204 -95c23 9 48 14 76 14c121 0 204 -64 204 -165c0 -100 -90 -182 -225 -182c-154 0 -233 87 -233 226c0 172 137 343 404 348zM236 242c-21 0 -38 -4 -54 -12c-1 -7 -1 -13 -1 -20c0 -69 26 -103 77 -103c35 0 65 27 65 62
c0 43 -34 73 -87 73z" />
    <glyph glyph-name="seven.scprop" horiz-adv-x="446" 
d="M58 532h376c-72 -182 -137 -381 -163 -532h-179c37 133 98 281 157 399l-239 -4z" />
    <glyph glyph-name="eight.scprop" horiz-adv-x="519" 
d="M474 149c0 -90 -77 -162 -213 -162s-216 65 -216 159c0 53 33 92 92 119c-48 28 -76 69 -76 130c0 84 84 150 200 150c123 0 196 -63 196 -146c0 -52 -26 -91 -75 -120c58 -27 92 -71 92 -130zM323 164c0 35 -20 54 -68 68c-41 -12 -61 -35 -61 -62c0 -35 24 -62 67 -62
c41 0 62 25 62 56zM206 375c0 -31 16 -47 64 -62c27 12 44 30 44 58c0 31 -20 54 -53 54c-32 0 -55 -21 -55 -50z" />
    <glyph glyph-name="nine.scprop" horiz-adv-x="500" 
d="M202 -29l-118 107c71 29 129 66 168 109h-13c-127 0 -214 63 -214 165c0 104 86 194 217 194c138 0 223 -81 223 -220c0 -161 -104 -284 -263 -355zM281 274c8 0 16 0 22 1c4 15 7 31 7 47c0 58 -29 93 -71 93c-33 0 -53 -20 -53 -59c0 -48 38 -82 95 -82z" />
    <glyph glyph-name="zero.sctab" horiz-adv-x="520" 
d="M260 -14c-146 0 -247 98 -247 280c0 184 101 279 247 279s247 -95 247 -279c0 -182 -101 -280 -247 -280zM260 117c48 0 77 52 77 149s-29 148 -77 148s-77 -50 -77 -148c0 -97 29 -149 77 -149z" />
    <glyph glyph-name="one.sctab" horiz-adv-x="520" 
d="M73 0v142h130v239l-136 -8l20 159h286v-390h120v-142h-420z" />
    <glyph glyph-name="two.sctab" horiz-adv-x="520" 
d="M346 210c-22 -19 -56 -45 -87 -67h208l-15 -143h-399v125c51 33 109 76 155 119c43 41 59 69 59 97c0 42 -28 67 -74 67c-49 0 -92 -11 -137 -42l22 149c43 21 100 31 162 31c129 0 192 -75 192 -165c0 -61 -24 -115 -86 -171z" />
    <glyph glyph-name="three.sctab" horiz-adv-x="520" 
d="M427 412c0 -59 -31 -105 -95 -129c72 -25 113 -68 113 -132c0 -100 -83 -165 -206 -165c-68 0 -122 7 -160 24l-5 143c41 -24 77 -34 133 -34c48 0 73 21 73 48c0 28 -28 50 -78 50c-39 0 -74 -3 -102 -9l23 121c18 -3 41 -3 63 -3c46 0 76 13 76 45c0 22 -21 41 -61 41
c-50 0 -82 -9 -118 -34l29 148c36 13 82 19 134 19c116 0 181 -59 181 -133z" />
    <glyph glyph-name="four.sctab" horiz-adv-x="520" 
d="M274 0v107h-263v91l239 334h177v-303h78v-122h-78v-107h-153zM142 229h132v187z" />
    <glyph glyph-name="five.sctab" horiz-adv-x="520" 
d="M438 532l-17 -116h-175l-11 -80h8c135 0 205 -71 205 -160c0 -137 -110 -210 -316 -210c-18 0 -43 1 -61 3l18 136c20 -5 42 -6 71 -6c87 0 133 28 133 74c0 35 -37 63 -106 63c-36 0 -68 -3 -99 -10l37 306h313z" />
    <glyph glyph-name="six.sctab" horiz-adv-x="520" 
d="M413 414c-102 -3 -169 -38 -204 -95c23 9 48 14 76 14c121 0 204 -64 204 -165c0 -100 -90 -182 -225 -182c-154 0 -233 87 -233 226c0 172 137 343 404 348zM237 242c-21 0 -38 -4 -54 -12c-1 -7 -1 -13 -1 -20c0 -69 26 -103 77 -103c35 0 65 27 65 62
c0 43 -34 73 -87 73z" />
    <glyph glyph-name="seven.sctab" horiz-adv-x="520" 
d="M76 532h396c-72 -182 -137 -381 -163 -532h-179c37 133 98 281 157 399l-259 -4z" />
    <glyph glyph-name="eight.sctab" horiz-adv-x="520" 
d="M474 149c0 -90 -77 -162 -213 -162s-216 65 -216 159c0 53 33 92 92 119c-48 28 -76 69 -76 130c0 84 84 150 200 150c123 0 196 -63 196 -146c0 -52 -26 -91 -75 -120c58 -27 92 -71 92 -130zM323 164c0 35 -20 54 -68 68c-41 -12 -61 -35 -61 -62c0 -35 24 -62 67 -62
c41 0 62 25 62 56zM206 375c0 -31 16 -47 64 -62c27 12 44 30 44 58c0 31 -20 54 -53 54c-32 0 -55 -21 -55 -50z" />
    <glyph glyph-name="nine.sctab" horiz-adv-x="520" 
d="M217 -29l-118 107c71 29 129 66 168 109h-13c-127 0 -214 63 -214 165c0 104 86 194 217 194c138 0 223 -81 223 -220c0 -161 -104 -284 -263 -355zM296 274c8 0 16 0 22 1c4 15 7 31 7 47c0 58 -29 93 -71 93c-33 0 -53 -20 -53 -59c0 -48 38 -82 95 -82z" />
    <glyph glyph-name="a.sc" horiz-adv-x="641" 
d="M467 0l-43 105h-203l-47 -105h-174l247 521l151 23l243 -544h-174zM326 362l-67 -145h129z" />
    <glyph glyph-name="b.sc" horiz-adv-x="571" 
d="M429 284c67 -20 107 -59 107 -134c0 -94 -83 -150 -221 -150h-240v532h242c133 0 193 -54 193 -130c0 -49 -29 -97 -81 -118zM245 227v-120h51c43 0 66 29 66 60c0 33 -24 60 -69 60h-48zM245 426v-110h46c37 0 57 26 57 55c0 30 -21 55 -56 55h-47z" />
    <glyph glyph-name="c.sc" horiz-adv-x="541" 
d="M506 207l-21 -181c-45 -26 -110 -39 -168 -39c-163 0 -280 109 -280 277c0 164 119 281 284 281c79 0 130 -15 176 -41l-19 -164h-3c-26 36 -77 55 -134 55c-79 0 -130 -51 -130 -131c0 -84 61 -127 136 -127c57 0 106 19 156 70h3z" />
    <glyph glyph-name="d.sc" horiz-adv-x="637" 
d="M303 0h-228v532h230c191 0 295 -107 295 -258c0 -179 -103 -274 -297 -274zM245 411v-289h41c90 0 140 47 140 148c0 80 -49 141 -138 141h-43z" />
    <glyph glyph-name="e.sc" horiz-adv-x="491" 
d="M245 419v-93h165v-112h-165v-102h196v-112h-366v532h356v-113h-186z" />
    <glyph glyph-name="f.sc" horiz-adv-x="459" 
d="M235 409v-113h173v-122h-173v-174h-160v532h364v-123h-204z" />
    <glyph glyph-name="g.sc" horiz-adv-x="589" 
d="M549 268v-200c-60 -52 -143 -81 -231 -81c-163 0 -281 99 -281 276c0 160 109 282 299 282c69 0 137 -15 188 -45l-29 -154h-3c-35 36 -86 61 -150 61c-79 0 -135 -60 -135 -146c0 -89 51 -140 131 -140c16 0 30 3 41 9v138h170z" />
    <glyph glyph-name="h.sc" horiz-adv-x="691" 
d="M245 0h-170v532h170v-181h201v181h170v-532h-170v205h-201v-205z" />
    <glyph glyph-name="i.sc" horiz-adv-x="320" 
d="M245 0h-170v532h170v-532z" />
    <glyph glyph-name="j.sc" horiz-adv-x="320" 
d="M77 532h170v-410c0 -151 -21 -229 -76 -286l-220 -46l-4 11c97 57 130 126 130 305v426z" />
    <glyph glyph-name="k.sc" horiz-adv-x="675" 
d="M245 0h-170v532h170v-227l192 227h218l-242 -254l268 -278h-221l-215 242v-242z" />
    <glyph glyph-name="l.sc" horiz-adv-x="496" 
d="M75 0v532h170v-386h241v-146h-411z" />
    <glyph glyph-name="m.sc" horiz-adv-x="825" 
d="M750 0h-143v277l-164 -277h-67l-158 273v-273h-143v532h139l196 -338l201 338h139v-532z" />
    <glyph glyph-name="n.sc" horiz-adv-x="712" 
d="M75 532h132l270 -296v296h160v-532h-129l-273 299v-299h-160v532z" />
    <glyph glyph-name="o.sc" horiz-adv-x="648" 
d="M441 266c0 84 -48 145 -117 145s-117 -61 -117 -145c0 -86 48 -147 117 -147s117 61 117 147zM611 266c0 -171 -111 -281 -287 -281c-177 0 -287 110 -287 281c0 172 111 279 287 279c177 0 287 -107 287 -279z" />
    <glyph glyph-name="p.sc" horiz-adv-x="550" 
d="M245 0h-170v532h214c150 0 241 -63 241 -184c0 -132 -92 -198 -252 -198h-33v-150zM245 420v-148h24c56 0 87 27 87 76c0 46 -31 72 -91 72h-20z" />
    <glyph glyph-name="q.sc" horiz-adv-x="632" 
d="M316 -1c-17 0 -33 1 -49 4l-1 -2c88 -39 171 -56 272 -60l-50 -146c-77 8 -157 33 -286 99c-39 20 -74 35 -107 46l62 109c-72 50 -120 133 -120 228c0 154 118 268 279 268c162 0 279 -114 279 -268c0 -161 -118 -278 -279 -278zM425 277c0 80 -44 134 -109 134
c-66 0 -109 -54 -109 -134c0 -85 44 -144 109 -144c66 0 109 57 109 144z" />
    <glyph glyph-name="r.sc" horiz-adv-x="587" 
d="M75 0v532h252c127 0 199 -58 199 -172c0 -72 -35 -127 -102 -158l158 -202h-209l-113 175h-15v-175h-170zM245 418v-149h16c64 0 98 23 98 81c0 43 -27 68 -75 68h-39z" />
    <glyph glyph-name="s.sc" horiz-adv-x="475" 
d="M40 186c66 -46 128 -62 183 -62c41 0 57 11 57 31s-19 31 -74 49c-116 38 -160 89 -160 174c0 100 76 167 201 167c58 0 110 -9 154 -24v-156c-52 36 -112 54 -147 54c-41 0 -53 -15 -53 -32c0 -18 13 -29 73 -50c119 -41 161 -88 161 -171c0 -121 -91 -179 -217 -179
c-64 0 -124 10 -161 26z" />
    <glyph glyph-name="t.sc" horiz-adv-x="556" 
d="M363 0h-170v386h-178v146h526v-146h-178v-386z" />
    <glyph glyph-name="u.sc" horiz-adv-x="662" 
d="M68 532h170v-298c0 -69 42 -100 93 -100c50 0 93 31 93 100v298h170v-298c0 -176 -122 -251 -263 -251s-263 75 -263 251v298z" />
    <glyph glyph-name="v.sc" horiz-adv-x="628" 
d="M-5 532h188l127 -324l135 324h188l-256 -532h-138z" />
    <glyph glyph-name="w.sc" horiz-adv-x="919" 
d="M547 0l-90 213l-97 -213h-135l-230 532h180l126 -328l81 187l-59 141h178l117 -318l128 318h178l-239 -532h-138z" />
    <glyph glyph-name="x.sc" horiz-adv-x="641" 
d="M-5 0l227 278l-192 254h199l92 -142l97 142h199l-200 -254l224 -278h-199l-124 168l-124 -168h-199z" />
    <glyph glyph-name="y.sc" horiz-adv-x="615" 
d="M624 532l-238 -315v-217h-170v219l-225 313h195l117 -199l125 199h196z" />
    <glyph glyph-name="z.sc" horiz-adv-x="567" 
d="M537 0h-536l274 380h-250l15 152h517l-275 -380h280z" />
    <glyph glyph-name="agrave.sc" horiz-adv-x="641" 
d="M467 0l-43 105h-203l-47 -105h-174l247 521l151 23l243 -544h-174zM326 362l-67 -145h129zM322 631l-163 189h165l67 -189h-69z" />
    <glyph glyph-name="aacute.sc" horiz-adv-x="641" 
d="M467 0l-43 105h-203l-47 -105h-174l247 521l151 23l243 -544h-174zM326 362l-67 -145h129zM495 820l-163 -189h-69l67 189h165z" />
    <glyph glyph-name="acircumflex.sc" horiz-adv-x="641" 
d="M467 0l-43 105h-203l-47 -105h-174l247 521l151 23l243 -544h-174zM326 362l-67 -145h129zM411 631l-84 100l-84 -100h-75l106 189h106l106 -189h-75z" />
    <glyph glyph-name="atilde.sc" horiz-adv-x="641" 
d="M467 0l-43 105h-203l-47 -105h-174l247 521l151 23l243 -544h-174zM326 362l-67 -145h129zM266 686c-29 0 -49 -22 -54 -48l-55 12c10 96 59 155 120 155c44 0 88 -34 123 -34c29 0 49 22 54 48l55 -12c-10 -96 -59 -155 -120 -155c-44 0 -88 34 -123 34z" />
    <glyph glyph-name="adieresis.sc" horiz-adv-x="641" 
d="M467 0l-43 105h-203l-47 -105h-174l247 521l151 23l243 -544h-174zM326 362l-67 -145h129zM215 797c46 0 77 -31 77 -77c0 -44 -30 -76 -76 -76c-47 0 -77 30 -77 76s31 77 76 77zM438 797c46 0 77 -31 77 -77c0 -44 -30 -76 -76 -76c-47 0 -77 30 -77 76s31 77 76 77z
" />
    <glyph glyph-name="amacron.sc" horiz-adv-x="641" 
d="M467 0l-43 105h-203l-47 -105h-174l247 521l151 23l243 -544h-174zM326 362l-67 -145h129zM473 776v-112h-294v112h294z" />
    <glyph glyph-name="abreve.sc" horiz-adv-x="641" 
d="M467 0l-43 105h-203l-47 -105h-174l247 521l151 23l243 -544h-174zM326 362l-67 -145h129zM327 734c60 0 83 33 83 86h61c0 -114 -38 -189 -144 -189c-110 0 -144 75 -144 189h61c0 -53 23 -86 83 -86z" />
    <glyph glyph-name="aring.sc" horiz-adv-x="641" 
d="M467 0l-43 105h-203l-47 -105h-174l247 521l151 23l243 -544h-174zM326 362l-67 -145h129zM214 724c0 61 52 113 113 113s113 -52 113 -113s-52 -113 -113 -113s-113 52 -113 113zM273 724c0 -30 24 -54 54 -54s54 24 54 54s-24 54 -54 54s-54 -24 -54 -54z" />
    <glyph glyph-name="aogonek.sc" horiz-adv-x="641" 
d="M376 -130c0 46 27 86 91 130l-43 105h-203l-47 -105h-174l247 521l151 23l243 -544c-96 -13 -131 -56 -131 -98c0 -21 14 -37 42 -37c25 0 52 9 74 35h3l-7 -111c-30 -18 -65 -26 -108 -26c-84 0 -138 39 -138 107zM326 362l-67 -145h129z" />
    <glyph glyph-name="ae.sc" horiz-adv-x="822" 
d="M576 419v-93h165v-112h-165v-102h196v-112h-366v133h-176l-76 -133h-179l310 532h477v-113h-186zM395 419l-100 -174h111v174h-11z" />
    <glyph glyph-name="cacute.sc" horiz-adv-x="541" 
d="M506 207l-21 -181c-45 -26 -110 -39 -168 -39c-163 0 -280 109 -280 277c0 164 119 281 284 281c79 0 130 -15 176 -41l-19 -164h-3c-26 36 -77 55 -134 55c-79 0 -130 -51 -130 -131c0 -84 61 -127 136 -127c57 0 106 19 156 70h3zM475 820l-163 -189h-69l67 189h165z
" />
    <glyph glyph-name="ccircumflex.sc" horiz-adv-x="541" 
d="M506 207l-21 -181c-45 -26 -110 -39 -168 -39c-163 0 -280 109 -280 277c0 164 119 281 284 281c79 0 130 -15 176 -41l-19 -164h-3c-26 36 -77 55 -134 55c-79 0 -130 -51 -130 -131c0 -84 61 -127 136 -127c57 0 106 19 156 70h3zM391 631l-84 100l-84 -100h-75
l106 189h106l106 -189h-75z" />
    <glyph glyph-name="ccaron.sc" horiz-adv-x="541" 
d="M506 207l-21 -181c-45 -26 -110 -39 -168 -39c-163 0 -280 109 -280 277c0 164 119 281 284 281c79 0 130 -15 176 -41l-19 -164h-3c-26 36 -77 55 -134 55c-79 0 -130 -51 -130 -131c0 -84 61 -127 136 -127c57 0 106 19 156 70h3zM148 820h75l84 -100l84 100h75
l-106 -189h-106z" />
    <glyph glyph-name="ccedilla.sc" horiz-adv-x="541" 
d="M506 207l-21 -181c-40 -23 -95 -36 -147 -38l-20 -39c3 1 10 2 16 2c60 0 98 -33 98 -82c0 -56 -55 -97 -132 -97c-37 0 -69 9 -88 25l6 65c16 -16 45 -24 73 -24c26 0 39 12 39 27c0 19 -18 30 -49 30c-18 0 -33 -2 -43 -5l-2 3l45 96c-144 14 -244 119 -244 275
c0 164 119 281 284 281c79 0 130 -15 176 -41l-19 -164h-3c-26 36 -77 55 -134 55c-79 0 -130 -51 -130 -131c0 -84 61 -127 136 -127c57 0 106 19 156 70h3z" />
    <glyph glyph-name="cdotaccent.sc" horiz-adv-x="541" 
d="M506 207l-21 -181c-45 -26 -110 -39 -168 -39c-163 0 -280 109 -280 277c0 164 119 281 284 281c79 0 130 -15 176 -41l-19 -164h-3c-26 36 -77 55 -134 55c-79 0 -130 -51 -130 -131c0 -84 61 -127 136 -127c57 0 106 19 156 70h3zM306 819c54 0 91 -37 91 -91
c0 -52 -36 -90 -90 -90c-55 0 -91 36 -91 90s37 91 90 91z" />
    <glyph glyph-name="dcaron.sc" horiz-adv-x="637" 
d="M303 0h-228v532h230c191 0 295 -107 295 -258c0 -179 -103 -274 -297 -274zM245 411v-289h41c90 0 140 47 140 148c0 80 -49 141 -138 141h-43zM145 820h75l84 -100l84 100h75l-106 -189h-106z" />
    <glyph glyph-name="dcroat.sc" horiz-adv-x="637" 
d="M303 0h-228v223h-60v92h60v217h230c191 0 295 -107 295 -258c0 -179 -103 -274 -297 -274zM245 411v-96h70v-92h-70v-101h41c90 0 140 47 140 148c0 80 -49 141 -138 141h-43z" />
    <glyph glyph-name="eth.sc" horiz-adv-x="637" 
d="M303 0h-228v223h-60v92h60v217h230c191 0 295 -107 295 -258c0 -179 -103 -274 -297 -274zM245 411v-96h70v-92h-70v-101h41c90 0 140 47 140 148c0 80 -49 141 -138 141h-43z" />
    <glyph glyph-name="egrave.sc" horiz-adv-x="491" 
d="M245 419v-93h165v-112h-165v-102h196v-112h-366v532h356v-113h-186zM250 631l-163 189h165l67 -189h-69z" />
    <glyph glyph-name="eacute.sc" horiz-adv-x="491" 
d="M245 419v-93h165v-112h-165v-102h196v-112h-366v532h356v-113h-186zM423 820l-163 -189h-69l67 189h165z" />
    <glyph glyph-name="ecircumflex.sc" horiz-adv-x="491" 
d="M245 419v-93h165v-112h-165v-102h196v-112h-366v532h356v-113h-186zM339 631l-84 100l-84 -100h-75l106 189h106l106 -189h-75z" />
    <glyph glyph-name="edieresis.sc" horiz-adv-x="491" 
d="M245 419v-93h165v-112h-165v-102h196v-112h-366v532h356v-113h-186zM143 797c46 0 77 -31 77 -77c0 -44 -30 -76 -76 -76c-47 0 -77 30 -77 76s31 77 76 77zM366 797c46 0 77 -31 77 -77c0 -44 -30 -76 -76 -76c-47 0 -77 30 -77 76s31 77 76 77z" />
    <glyph glyph-name="emacron.sc" horiz-adv-x="491" 
d="M245 419v-93h165v-112h-165v-102h196v-112h-366v532h356v-113h-186zM401 776v-112h-294v112h294z" />
    <glyph glyph-name="ebreve.sc" horiz-adv-x="491" 
d="M245 419v-93h165v-112h-165v-102h196v-112h-366v532h356v-113h-186zM255 734c60 0 83 33 83 86h61c0 -114 -38 -189 -144 -189c-110 0 -144 75 -144 189h61c0 -53 23 -86 83 -86z" />
    <glyph glyph-name="edotaccent.sc" horiz-adv-x="491" 
d="M245 419v-93h165v-112h-165v-102h196v-112h-366v532h356v-113h-186zM254 819c54 0 91 -37 91 -91c0 -52 -36 -90 -90 -90c-55 0 -91 36 -91 90s37 91 90 91z" />
    <glyph glyph-name="ecaron.sc" horiz-adv-x="491" 
d="M245 419v-93h165v-112h-165v-102h196v-112h-366v532h356v-113h-186zM96 820h75l84 -100l84 100h75l-106 -189h-106z" />
    <glyph glyph-name="eogonek.sc" horiz-adv-x="491" 
d="M276 0h-201v532h356v-113h-186v-93h165v-112h-165v-102h196v-112c-89 -14 -122 -56 -122 -98c0 -21 14 -37 42 -37c25 0 52 9 74 35h3l-7 -111c-30 -18 -65 -26 -108 -26c-84 0 -138 39 -138 107c0 46 27 86 91 130z" />
    <glyph glyph-name="gcircumflex.sc" horiz-adv-x="589" 
d="M549 268v-200c-60 -52 -143 -81 -231 -81c-163 0 -281 99 -281 276c0 160 109 282 299 282c69 0 137 -15 188 -45l-29 -154h-3c-35 36 -86 61 -150 61c-79 0 -135 -60 -135 -146c0 -89 51 -140 131 -140c16 0 30 3 41 9v138h170zM406 631l-84 100l-84 -100h-75l106 189
h106l106 -189h-75z" />
    <glyph glyph-name="gbreve.sc" horiz-adv-x="589" 
d="M549 268v-200c-60 -52 -143 -81 -231 -81c-163 0 -281 99 -281 276c0 160 109 282 299 282c69 0 137 -15 188 -45l-29 -154h-3c-35 36 -86 61 -150 61c-79 0 -135 -60 -135 -146c0 -89 51 -140 131 -140c16 0 30 3 41 9v138h170zM322 734c60 0 83 33 83 86h61
c0 -114 -38 -189 -144 -189c-110 0 -144 75 -144 189h61c0 -53 23 -86 83 -86z" />
    <glyph glyph-name="gdotaccent.sc" horiz-adv-x="589" 
d="M549 268v-200c-60 -52 -143 -81 -231 -81c-163 0 -281 99 -281 276c0 160 109 282 299 282c69 0 137 -15 188 -45l-29 -154h-3c-35 36 -86 61 -150 61c-79 0 -135 -60 -135 -146c0 -89 51 -140 131 -140c16 0 30 3 41 9v138h170zM321 819c54 0 91 -37 91 -91
c0 -52 -36 -90 -90 -90c-55 0 -91 36 -91 90s37 91 90 91z" />
    <glyph glyph-name="gcommaaccent.sc" horiz-adv-x="589" 
d="M549 268v-200c-60 -52 -143 -81 -231 -81c-163 0 -281 99 -281 276c0 160 109 282 299 282c69 0 137 -15 188 -45l-29 -154h-3c-35 36 -86 61 -150 61c-79 0 -135 -60 -135 -146c0 -89 51 -140 131 -140c16 0 30 3 41 9v138h170zM375 -49c9 -17 15 -41 15 -62
c0 -43 -20 -73 -97 -126h-75c40 55 50 84 50 117c0 15 -7 33 -16 47z" />
    <glyph glyph-name="hcircumflex.sc" horiz-adv-x="691" 
d="M245 0h-170v532h170v-181h201v181h170v-532h-170v205h-201v-205zM430 631l-84 100l-84 -100h-75l106 189h106l106 -189h-75z" />
    <glyph glyph-name="hbar.sc" horiz-adv-x="691" 
d="M245 0h-170v393h-60v92h60v47h170v-47h201v47h170v-47h60v-92h-60v-393h-170v205h-201v-205zM245 351h201v42h-201v-42z" />
    <glyph glyph-name="igrave.sc" horiz-adv-x="320" 
d="M245 0h-170v532h170v-532zM155 631l-163 189h165l67 -189h-69z" />
    <glyph glyph-name="iacute.sc" horiz-adv-x="320" 
d="M245 0h-170v532h170v-532zM328 820l-163 -189h-69l67 189h165z" />
    <glyph glyph-name="icircumflex.sc" horiz-adv-x="320" 
d="M245 0h-170v532h170v-532zM244 631l-84 100l-84 -100h-75l106 189h106l106 -189h-75z" />
    <glyph glyph-name="itilde.sc" horiz-adv-x="320" 
d="M109 666c-29 0 -49 -22 -54 -48l-55 12c10 96 59 155 120 155c36 0 74 -34 103 -34s49 22 54 48l55 -12c-10 -96 -59 -155 -120 -155c-36 0 -74 34 -103 34zM245 0h-170v532h170v-532z" />
    <glyph glyph-name="idieresis.sc" horiz-adv-x="320" 
d="M58 777c46 0 77 -31 77 -77c0 -44 -30 -76 -76 -76c-47 0 -77 30 -77 76s31 77 76 77zM261 777c46 0 77 -31 77 -77c0 -44 -30 -76 -76 -76c-47 0 -77 30 -77 76s31 77 76 77zM245 0h-170v532h170v-532z" />
    <glyph glyph-name="imacron.sc" horiz-adv-x="320" 
d="M297 756v-112h-274v112h274zM245 0h-170v532h170v-532z" />
    <glyph glyph-name="ibreve.sc" horiz-adv-x="320" 
d="M245 0h-170v532h170v-532zM160 734c60 0 83 33 83 86h61c0 -114 -38 -189 -144 -189c-110 0 -144 75 -144 189h61c0 -53 23 -86 83 -86z" />
    <glyph glyph-name="idotaccent.sc" horiz-adv-x="320" 
d="M245 0h-170v532h170v-532zM159 819c54 0 91 -37 91 -91c0 -52 -36 -90 -90 -90c-55 0 -91 36 -91 90s37 91 90 91z" />
    <glyph glyph-name="iogonek.sc" horiz-adv-x="320" 
d="M245 0c-77 -14 -107 -56 -107 -98c0 -21 14 -37 38 -37c30 0 55 9 78 35h3l-7 -111c-30 -18 -65 -26 -108 -26c-84 0 -138 39 -138 107c0 46 21 86 71 130v532h170v-532z" />
    <glyph glyph-name="ij.sc" horiz-adv-x="628" 
d="M245 0h-170v532h170v-532zM385 532h170v-410c0 -151 -21 -229 -76 -286l-220 -46l-4 11c97 57 130 126 130 305v426z" />
    <glyph glyph-name="jcircumflex.sc" horiz-adv-x="320" 
d="M77 532h170v-410c0 -151 -21 -229 -76 -286l-220 -46l-4 11c97 57 130 126 130 305v426zM246 631l-84 100l-84 -100h-75l106 189h106l106 -189h-75z" />
    <glyph glyph-name="kcommaaccent.sc" horiz-adv-x="675" 
d="M245 0h-170v532h170v-227l192 227h218l-242 -254l268 -278h-221l-215 242v-242zM412 -49c9 -17 15 -41 15 -62c0 -43 -20 -73 -97 -126h-75c40 55 50 84 50 117c0 15 -7 33 -16 47z" />
    <glyph glyph-name="lacute.sc" horiz-adv-x="496" 
d="M75 0v532h170v-386h241v-146h-411zM366 820l-163 -189h-69l67 189h165z" />
    <glyph glyph-name="lcaron.sc" horiz-adv-x="496" 
d="M75 0v532h170v-386h241v-146h-411zM419 541c9 -19 13 -37 13 -61c0 -39 -22 -84 -83 -147h-59c20 60 26 92 26 127c0 18 -5 40 -12 57z" />
    <glyph glyph-name="lcommaaccent.sc" horiz-adv-x="496" 
d="M75 0v532h170v-386h241v-146h-411zM332 -49c9 -17 15 -41 15 -62c0 -43 -20 -73 -97 -126h-75c40 55 50 84 50 117c0 15 -7 33 -16 47z" />
    <glyph glyph-name="ldot.sc" horiz-adv-x="496" 
d="M75 0v532h170v-386h241v-146h-411zM405 453c54 0 91 -37 91 -91c0 -52 -36 -90 -90 -90c-55 0 -91 36 -91 90s37 91 90 91z" />
    <glyph glyph-name="lslash.sc" horiz-adv-x="496" 
d="M75 0v176l-60 -39v129l60 39v227h170v-115l125 82v-129l-125 -82v-142h241v-146h-411z" />
    <glyph glyph-name="nacute.sc" horiz-adv-x="712" 
d="M75 532h132l270 -296v296h160v-532h-129l-273 299v-299h-160v532zM524 820l-163 -189h-69l67 189h165z" />
    <glyph glyph-name="ncaron.sc" horiz-adv-x="712" 
d="M75 532h132l270 -296v296h160v-532h-129l-273 299v-299h-160v532zM197 820h75l84 -100l84 100h75l-106 -189h-106z" />
    <glyph glyph-name="ntilde.sc" horiz-adv-x="712" 
d="M75 532h132l270 -296v296h160v-532h-129l-273 299v-299h-160v532zM295 686c-29 0 -49 -22 -54 -48l-55 12c10 96 59 155 120 155c44 0 88 -34 123 -34c29 0 49 22 54 48l55 -12c-10 -96 -59 -155 -120 -155c-44 0 -88 34 -123 34z" />
    <glyph glyph-name="ncommaaccent.sc" horiz-adv-x="712" 
d="M75 532h132l270 -296v296h160v-532h-129l-273 299v-299h-160v532zM413 -49c9 -17 15 -41 15 -62c0 -43 -20 -73 -97 -126h-75c40 55 50 84 50 117c0 15 -7 33 -16 47z" />
    <glyph glyph-name="eng.sc" horiz-adv-x="712" 
d="M637 532v-561c0 -129 -71 -208 -191 -208c-41 0 -76 8 -106 22l-11 136c18 -19 38 -26 71 -26c47 0 78 30 78 89v49l-243 266v-299h-160v532h132l270 -296v296h160z" />
    <glyph glyph-name="ograve.sc" horiz-adv-x="648" 
d="M441 266c0 84 -48 145 -117 145s-117 -61 -117 -145c0 -86 48 -147 117 -147s117 61 117 147zM611 266c0 -171 -111 -281 -287 -281c-177 0 -287 110 -287 281c0 172 111 279 287 279c177 0 287 -107 287 -279zM319 631l-163 189h165l67 -189h-69z" />
    <glyph glyph-name="oacute.sc" horiz-adv-x="648" 
d="M441 266c0 84 -48 145 -117 145s-117 -61 -117 -145c0 -86 48 -147 117 -147s117 61 117 147zM611 266c0 -171 -111 -281 -287 -281c-177 0 -287 110 -287 281c0 172 111 279 287 279c177 0 287 -107 287 -279zM492 820l-163 -189h-69l67 189h165z" />
    <glyph glyph-name="ocircumflex.sc" horiz-adv-x="648" 
d="M441 266c0 84 -48 145 -117 145s-117 -61 -117 -145c0 -86 48 -147 117 -147s117 61 117 147zM611 266c0 -171 -111 -281 -287 -281c-177 0 -287 110 -287 281c0 172 111 279 287 279c177 0 287 -107 287 -279zM408 631l-84 100l-84 -100h-75l106 189h106l106 -189h-75z
" />
    <glyph glyph-name="otilde.sc" horiz-adv-x="648" 
d="M441 266c0 84 -48 145 -117 145s-117 -61 -117 -145c0 -86 48 -147 117 -147s117 61 117 147zM611 266c0 -171 -111 -281 -287 -281c-177 0 -287 110 -287 281c0 172 111 279 287 279c177 0 287 -107 287 -279zM263 686c-29 0 -49 -22 -54 -48l-55 12
c10 96 59 155 120 155c44 0 88 -34 123 -34c29 0 49 22 54 48l55 -12c-10 -96 -59 -155 -120 -155c-44 0 -88 34 -123 34z" />
    <glyph glyph-name="odieresis.sc" horiz-adv-x="648" 
d="M441 266c0 84 -48 145 -117 145s-117 -61 -117 -145c0 -86 48 -147 117 -147s117 61 117 147zM611 266c0 -171 -111 -281 -287 -281c-177 0 -287 110 -287 281c0 172 111 279 287 279c177 0 287 -107 287 -279zM212 797c46 0 77 -31 77 -77c0 -44 -30 -76 -76 -76
c-47 0 -77 30 -77 76s31 77 76 77zM435 797c46 0 77 -31 77 -77c0 -44 -30 -76 -76 -76c-47 0 -77 30 -77 76s31 77 76 77z" />
    <glyph glyph-name="omacron.sc" horiz-adv-x="648" 
d="M441 266c0 84 -48 145 -117 145s-117 -61 -117 -145c0 -86 48 -147 117 -147s117 61 117 147zM611 266c0 -171 -111 -281 -287 -281c-177 0 -287 110 -287 281c0 172 111 279 287 279c177 0 287 -107 287 -279zM470 776v-112h-294v112h294z" />
    <glyph glyph-name="obreve.sc" horiz-adv-x="648" 
d="M441 266c0 84 -48 145 -117 145s-117 -61 -117 -145c0 -86 48 -147 117 -147s117 61 117 147zM611 266c0 -171 -111 -281 -287 -281c-177 0 -287 110 -287 281c0 172 111 279 287 279c177 0 287 -107 287 -279zM324 734c60 0 83 33 83 86h61c0 -114 -38 -189 -144 -189
c-110 0 -144 75 -144 189h61c0 -53 23 -86 83 -86z" />
    <glyph glyph-name="ohungarumlaut.sc" horiz-adv-x="648" 
d="M441 266c0 84 -48 145 -117 145s-117 -61 -117 -145c0 -86 48 -147 117 -147s117 61 117 147zM611 266c0 -171 -111 -281 -287 -281c-177 0 -287 110 -287 281c0 172 111 279 287 279c177 0 287 -107 287 -279zM238 820h151l-124 -189h-67zM407 820h152l-124 -189h-67z
" />
    <glyph glyph-name="oslash.sc" horiz-adv-x="648" 
d="M611 266c0 -171 -111 -281 -287 -281c-58 0 -109 12 -151 33l-20 -25l-85 21l42 51c-47 49 -73 118 -73 201c0 172 111 279 287 279c57 0 107 -11 149 -32l28 34l85 -21l-49 -60c47 -48 74 -116 74 -200zM441 266c0 26 -5 50 -13 71l-163 -200c17 -12 36 -18 59 -18
c69 0 117 61 117 147zM207 266c0 -27 4 -51 13 -72l162 200c-17 11 -36 17 -58 17c-69 0 -117 -61 -117 -145z" />
    <glyph glyph-name="oe.sc" horiz-adv-x="804" 
d="M558 419v-93h165v-112h-165v-102h196v-112h-428c-172 0 -289 102 -289 266s118 266 289 266h418v-113h-186zM207 266c0 -98 58 -154 149 -154h32v307h-32c-92 0 -149 -55 -149 -153z" />
    <glyph glyph-name="racute.sc" horiz-adv-x="587" 
d="M75 0v532h252c127 0 199 -58 199 -172c0 -72 -35 -127 -102 -158l158 -202h-209l-113 175h-15v-175h-170zM245 418v-149h16c64 0 98 23 98 81c0 43 -27 68 -75 68h-39zM448 820l-163 -189h-69l67 189h165z" />
    <glyph glyph-name="rcaron.sc" horiz-adv-x="587" 
d="M75 0v532h252c127 0 199 -58 199 -172c0 -72 -35 -127 -102 -158l158 -202h-209l-113 175h-15v-175h-170zM245 418v-149h16c64 0 98 23 98 81c0 43 -27 68 -75 68h-39zM121 820h75l84 -100l84 100h75l-106 -189h-106z" />
    <glyph glyph-name="rcommaaccent.sc" horiz-adv-x="587" 
d="M75 0v532h252c127 0 199 -58 199 -172c0 -72 -35 -127 -102 -158l158 -202h-209l-113 175h-15v-175h-170zM245 418v-149h16c64 0 98 23 98 81c0 43 -27 68 -75 68h-39zM357 -49c9 -17 15 -41 15 -62c0 -43 -20 -73 -97 -126h-75c40 55 50 84 50 117c0 15 -7 33 -16 47z
" />
    <glyph glyph-name="sacute.sc" horiz-adv-x="475" 
d="M40 186c66 -46 128 -62 183 -62c41 0 57 11 57 31s-19 31 -74 49c-116 38 -160 89 -160 174c0 100 76 167 201 167c58 0 110 -9 154 -24v-156c-52 36 -112 54 -147 54c-41 0 -53 -15 -53 -32c0 -18 13 -29 73 -50c119 -41 161 -88 161 -171c0 -121 -91 -179 -217 -179
c-64 0 -124 10 -161 26zM409 820l-163 -189h-69l67 189h165z" />
    <glyph glyph-name="scaron.sc" horiz-adv-x="475" 
d="M40 186c66 -46 128 -62 183 -62c41 0 57 11 57 31s-19 31 -74 49c-116 38 -160 89 -160 174c0 100 76 167 201 167c58 0 110 -9 154 -24v-156c-52 36 -112 54 -147 54c-41 0 -53 -15 -53 -32c0 -18 13 -29 73 -50c119 -41 161 -88 161 -171c0 -121 -91 -179 -217 -179
c-64 0 -124 10 -161 26zM82 820h75l84 -100l84 100h75l-106 -189h-106z" />
    <glyph glyph-name="scircumflex.sc" horiz-adv-x="475" 
d="M40 186c66 -46 128 -62 183 -62c41 0 57 11 57 31s-19 31 -74 49c-116 38 -160 89 -160 174c0 100 76 167 201 167c58 0 110 -9 154 -24v-156c-52 36 -112 54 -147 54c-41 0 -53 -15 -53 -32c0 -18 13 -29 73 -50c119 -41 161 -88 161 -171c0 -121 -91 -179 -217 -179
c-64 0 -124 10 -161 26zM325 631l-84 100l-84 -100h-75l106 189h106l106 -189h-75z" />
    <glyph glyph-name="scedilla.sc" horiz-adv-x="475" 
d="M40 186c66 -46 128 -62 183 -62c41 0 57 11 57 31s-19 31 -74 49c-116 38 -160 89 -160 174c0 100 76 167 201 167c58 0 110 -9 154 -24v-156c-52 36 -112 54 -147 54c-41 0 -53 -15 -53 -32c0 -18 13 -29 73 -50c119 -41 161 -88 161 -171c0 -106 -70 -164 -172 -176
l-21 -41c3 1 10 2 16 2c60 0 98 -33 98 -82c0 -56 -55 -97 -132 -97c-37 0 -69 9 -88 25l6 65c16 -16 45 -24 73 -24c26 0 39 12 39 27c0 19 -18 30 -49 30c-18 0 -33 -2 -43 -5l-2 3l44 94c-59 2 -113 11 -147 26z" />
    <glyph glyph-name="uni0219.sc" horiz-adv-x="475" 
d="M40 186c66 -46 128 -62 183 -62c41 0 57 11 57 31s-19 31 -74 49c-116 38 -160 89 -160 174c0 100 76 167 201 167c58 0 110 -9 154 -24v-156c-52 36 -112 54 -147 54c-41 0 -53 -15 -53 -32c0 -18 13 -29 73 -50c119 -41 161 -88 161 -171c0 -121 -91 -179 -217 -179
c-64 0 -124 10 -161 26zM298 -49c9 -17 15 -41 15 -62c0 -43 -20 -73 -97 -126h-75c40 55 50 84 50 117c0 15 -7 33 -16 47z" />
    <glyph glyph-name="tcaron.sc" horiz-adv-x="556" 
d="M363 0h-170v386h-178v146h526v-146h-178v-386zM119 820h75l84 -100l84 100h75l-106 -189h-106z" />
    <glyph glyph-name="uni0163.sc" horiz-adv-x="556" 
d="M363 0h-170v386h-178v146h526v-146h-178v-386zM337 -49c9 -17 15 -41 15 -62c0 -43 -20 -73 -97 -126h-75c40 55 50 84 50 117c0 15 -7 33 -16 47z" />
    <glyph glyph-name="uni021B.sc" horiz-adv-x="556" 
d="M363 0h-170v386h-178v146h526v-146h-178v-386zM337 -49c9 -17 15 -41 15 -62c0 -43 -20 -73 -97 -126h-75c40 55 50 84 50 117c0 15 -7 33 -16 47z" />
    <glyph glyph-name="tbar.sc" horiz-adv-x="556" 
d="M363 0h-170v193h-80v92h80v101h-178v146h526v-146h-178v-101h80v-92h-80v-193z" />
    <glyph glyph-name="ugrave.sc" horiz-adv-x="662" 
d="M68 532h170v-298c0 -69 42 -100 93 -100c50 0 93 31 93 100v298h170v-298c0 -176 -122 -251 -263 -251s-263 75 -263 251v298zM326 631l-163 189h165l67 -189h-69z" />
    <glyph glyph-name="uacute.sc" horiz-adv-x="662" 
d="M68 532h170v-298c0 -69 42 -100 93 -100c50 0 93 31 93 100v298h170v-298c0 -176 -122 -251 -263 -251s-263 75 -263 251v298zM499 820l-163 -189h-69l67 189h165z" />
    <glyph glyph-name="ucircumflex.sc" horiz-adv-x="662" 
d="M68 532h170v-298c0 -69 42 -100 93 -100c50 0 93 31 93 100v298h170v-298c0 -176 -122 -251 -263 -251s-263 75 -263 251v298zM415 631l-84 100l-84 -100h-75l106 189h106l106 -189h-75z" />
    <glyph glyph-name="utilde.sc" horiz-adv-x="662" 
d="M68 532h170v-298c0 -69 42 -100 93 -100c50 0 93 31 93 100v298h170v-298c0 -176 -122 -251 -263 -251s-263 75 -263 251v298zM270 686c-29 0 -49 -22 -54 -48l-55 12c10 96 59 155 120 155c44 0 88 -34 123 -34c29 0 49 22 54 48l55 -12c-10 -96 -59 -155 -120 -155
c-44 0 -88 34 -123 34z" />
    <glyph glyph-name="udieresis.sc" horiz-adv-x="662" 
d="M68 532h170v-298c0 -69 42 -100 93 -100c50 0 93 31 93 100v298h170v-298c0 -176 -122 -251 -263 -251s-263 75 -263 251v298zM219 797c46 0 77 -31 77 -77c0 -44 -30 -76 -76 -76c-47 0 -77 30 -77 76s31 77 76 77zM442 797c46 0 77 -31 77 -77c0 -44 -30 -76 -76 -76
c-47 0 -77 30 -77 76s31 77 76 77z" />
    <glyph glyph-name="umacron.sc" horiz-adv-x="662" 
d="M68 532h170v-298c0 -69 42 -100 93 -100c50 0 93 31 93 100v298h170v-298c0 -176 -122 -251 -263 -251s-263 75 -263 251v298zM477 776v-112h-294v112h294z" />
    <glyph glyph-name="ubreve.sc" horiz-adv-x="662" 
d="M68 532h170v-298c0 -69 42 -100 93 -100c50 0 93 31 93 100v298h170v-298c0 -176 -122 -251 -263 -251s-263 75 -263 251v298zM331 734c60 0 83 33 83 86h61c0 -114 -38 -189 -144 -189c-110 0 -144 75 -144 189h61c0 -53 23 -86 83 -86z" />
    <glyph glyph-name="uring.sc" horiz-adv-x="662" 
d="M68 532h170v-298c0 -69 42 -100 93 -100c50 0 93 31 93 100v298h170v-298c0 -176 -122 -251 -263 -251s-263 75 -263 251v298zM218 724c0 61 52 113 113 113s113 -52 113 -113s-52 -113 -113 -113s-113 52 -113 113zM277 724c0 -30 24 -54 54 -54s54 24 54 54
s-24 54 -54 54s-54 -24 -54 -54z" />
    <glyph glyph-name="uhungarumlaut.sc" horiz-adv-x="662" 
d="M68 532h170v-298c0 -69 42 -100 93 -100c50 0 93 31 93 100v298h170v-298c0 -176 -122 -251 -263 -251s-263 75 -263 251v298zM245 820h151l-124 -189h-67zM414 820h152l-124 -189h-67z" />
    <glyph glyph-name="uogonek.sc" horiz-adv-x="662" 
d="M530 -211c-30 -18 -65 -26 -108 -26c-84 0 -138 39 -138 107c0 45 25 82 84 115c-9 -1 -24 -2 -37 -2c-141 0 -263 75 -263 251v298h170v-298c0 -69 42 -100 93 -100c50 0 93 31 93 100v298h170v-298c0 -92 -33 -155 -84 -196c-70 -57 -92 -93 -92 -136
c0 -21 14 -37 42 -37c25 0 52 9 74 35h3z" />
    <glyph glyph-name="wgrave.sc" horiz-adv-x="919" 
d="M547 0l-90 213l-97 -213h-135l-230 532h180l126 -328l81 187l-59 141h178l117 -318l128 318h178l-239 -532h-138zM444 631l-163 189h165l67 -189h-69z" />
    <glyph glyph-name="wacute.sc" horiz-adv-x="919" 
d="M547 0l-90 213l-97 -213h-135l-230 532h180l126 -328l81 187l-59 141h178l117 -318l128 318h178l-239 -532h-138zM617 820l-163 -189h-69l67 189h165z" />
    <glyph glyph-name="wcircumflex.sc" horiz-adv-x="919" 
d="M547 0l-90 213l-97 -213h-135l-230 532h180l126 -328l81 187l-59 141h178l117 -318l128 318h178l-239 -532h-138zM533 631l-84 100l-84 -100h-75l106 189h106l106 -189h-75z" />
    <glyph glyph-name="wdieresis.sc" horiz-adv-x="919" 
d="M547 0l-90 213l-97 -213h-135l-230 532h180l126 -328l81 187l-59 141h178l117 -318l128 318h178l-239 -532h-138zM337 797c46 0 77 -31 77 -77c0 -44 -30 -76 -76 -76c-47 0 -77 30 -77 76s31 77 76 77zM560 797c46 0 77 -31 77 -77c0 -44 -30 -76 -76 -76
c-47 0 -77 30 -77 76s31 77 76 77z" />
    <glyph glyph-name="ygrave.sc" horiz-adv-x="615" 
d="M624 532l-238 -315v-217h-170v219l-225 313h195l117 -199l125 199h196zM302 631l-163 189h165l67 -189h-69z" />
    <glyph glyph-name="yacute.sc" horiz-adv-x="615" 
d="M624 532l-238 -315v-217h-170v219l-225 313h195l117 -199l125 199h196zM475 820l-163 -189h-69l67 189h165z" />
    <glyph glyph-name="ycircumflex.sc" horiz-adv-x="615" 
d="M624 532l-238 -315v-217h-170v219l-225 313h195l117 -199l125 199h196zM391 631l-84 100l-84 -100h-75l106 189h106l106 -189h-75z" />
    <glyph glyph-name="ydieresis.sc" horiz-adv-x="615" 
d="M624 532l-238 -315v-217h-170v219l-225 313h195l117 -199l125 199h196zM195 797c46 0 77 -31 77 -77c0 -44 -30 -76 -76 -76c-47 0 -77 30 -77 76s31 77 76 77zM418 797c46 0 77 -31 77 -77c0 -44 -30 -76 -76 -76c-47 0 -77 30 -77 76s31 77 76 77z" />
    <glyph glyph-name="zacute.sc" horiz-adv-x="567" 
d="M537 0h-536l274 380h-250l15 152h517l-275 -380h280zM452 820l-163 -189h-69l67 189h165z" />
    <glyph glyph-name="zcaron.sc" horiz-adv-x="567" 
d="M537 0h-536l274 380h-250l15 152h517l-275 -380h280zM125 820h75l84 -100l84 100h75l-106 -189h-106z" />
    <glyph glyph-name="zdotaccent.sc" horiz-adv-x="567" 
d="M537 0h-536l274 380h-250l15 152h517l-275 -380h280zM283 819c54 0 91 -37 91 -91c0 -52 -36 -90 -90 -90c-55 0 -91 36 -91 90s37 91 90 91z" />
    <glyph glyph-name="germandbls.sc" horiz-adv-x="653" 
d="M575 484l-78 -161c77 -20 121 -79 121 -162c0 -94 -76 -173 -202 -173c-53 0 -90 7 -119 20l-13 141h3c23 -16 58 -27 103 -27c48 0 73 24 73 54c0 35 -30 55 -86 55c-26 0 -53 -3 -72 -9l-1 3l91 180c-13 4 -28 6 -43 6c-62 0 -112 -41 -112 -116v-295h-170v306
c0 144 117 239 282 239c94 0 163 -24 223 -61z" />
    <glyph glyph-name="thorn.sc" horiz-adv-x="550" 
d="M245 0h-170v532h170v-80h44c150 0 241 -60 241 -178c0 -129 -92 -192 -252 -192h-33v-82zM245 340v-136h23c56 0 87 24 87 70c0 43 -31 66 -91 66h-19z" />
    <glyph glyph-name="fi.sc" horiz-adv-x="779" 
d="M235 409v-113h173v-122h-173v-174h-160v532h364v-123h-204zM704 0h-170v532h170v-532z" />
    <glyph glyph-name="fl.sc" horiz-adv-x="955" 
d="M235 409v-113h173v-122h-173v-174h-160v532h364v-123h-204zM534 0v532h170v-386h241v-146h-411z" />
    <glyph glyph-name="ampersand.sc" horiz-adv-x="613" 
d="M311 197l6 136c88 3 185 19 266 45l-6 -134c-23 -1 -47 -3 -72 -6c2 -12 3 -25 3 -37c0 -135 -90 -218 -235 -218c-140 0 -223 84 -223 186c0 65 34 117 98 144c-32 25 -48 61 -48 97c0 76 81 132 189 132c44 0 79 -5 109 -14l-14 -135c-21 13 -57 22 -96 22
c-45 0 -69 -23 -69 -54c0 -23 9 -44 38 -67c-51 -29 -68 -55 -68 -96c0 -44 28 -81 96 -81c64 0 102 33 102 83c0 5 -1 11 -2 17c-26 -6 -51 -13 -74 -20z" />
    <glyph glyph-name="exclam.sc" horiz-adv-x="299" 
d="M146 132c45 0 75 -30 75 -75c0 -44 -30 -74 -74 -74c-46 0 -75 30 -75 74c0 45 29 75 74 75zM50 524l204 19c-10 -124 -48 -284 -84 -376l-51 5c-36 89 -65 240 -69 352z" />
    <glyph glyph-name="question.sc" horiz-adv-x="360" 
d="M121 132c45 0 75 -30 75 -75c0 -44 -30 -74 -74 -74c-46 0 -75 30 -75 74c0 45 29 75 74 75zM176 175l-115 -19v134c89 4 139 32 139 80c0 39 -33 60 -84 60c-30 0 -58 -5 -81 -16l17 120c28 7 55 11 89 11c114 0 199 -51 199 -161c0 -96 -64 -150 -164 -170v-39z" />
    <glyph glyph-name="exclamdown.sc" horiz-adv-x="299" 
d="M153 396c-45 0 -75 30 -75 75c0 44 30 74 74 74c46 0 75 -30 75 -74c0 -45 -29 -75 -74 -75zM249 4l-204 -19c10 124 48 284 84 376l51 -5c36 -89 65 -240 69 -352z" />
    <glyph glyph-name="questiondown.sc" horiz-adv-x="360" 
d="M239 396c-45 0 -75 30 -75 75c0 44 30 74 74 74c46 0 75 -30 75 -74c0 -45 -29 -75 -74 -75zM184 353l115 19v-135c-89 -4 -139 -32 -139 -80c0 -39 33 -60 84 -60c30 0 58 5 81 16l-17 -120c-28 -7 -55 -11 -89 -11c-114 0 -199 51 -199 161c0 96 64 150 164 170v40z
" />
    <glyph glyph-name="percent.sc" horiz-adv-x="713" 
d="M580 532l-346 -532h-101l345 532h102zM156 240c-77 0 -126 42 -126 125s70 167 158 167c77 0 126 -42 126 -125s-70 -167 -158 -167zM188 458c-42 0 -74 -41 -74 -92c0 -34 14 -52 43 -52c42 0 73 41 73 92c0 34 -13 52 -42 52zM525 0c-77 0 -126 42 -126 125
s70 167 158 167c77 0 126 -42 126 -125s-70 -167 -158 -167zM557 218c-42 0 -74 -41 -74 -92c0 -34 14 -52 43 -52c42 0 73 41 73 92c0 34 -13 52 -42 52z" />
    <glyph glyph-name="perthousand.sc" horiz-adv-x="1023" 
d="M580 532l-346 -532h-101l345 532h102zM156 240c-77 0 -126 42 -126 125s70 167 158 167c77 0 126 -42 126 -125s-70 -167 -158 -167zM188 458c-42 0 -74 -41 -74 -92c0 -34 14 -52 43 -52c42 0 73 41 73 92c0 34 -13 52 -42 52zM525 0c-77 0 -126 42 -126 125
s70 167 158 167c77 0 126 -42 126 -125s-70 -167 -158 -167zM557 218c-42 0 -74 -41 -74 -92c0 -34 14 -52 43 -52c42 0 73 41 73 92c0 34 -13 52 -42 52zM835 0c-77 0 -126 42 -126 125s70 167 158 167c77 0 126 -42 126 -125s-70 -167 -158 -167zM867 218
c-42 0 -74 -41 -74 -92c0 -34 14 -52 43 -52c42 0 73 41 73 92c0 34 -13 52 -42 52z" />
    <glyph glyph-name="dollar.sc" horiz-adv-x="520" 
d="M296 619v-74c49 -3 93 -14 133 -28v-146c-41 31 -87 49 -133 57v-105c133 -42 173 -92 173 -176c0 -93 -70 -147 -173 -160v-77h-77v75c-66 3 -126 17 -162 39l-6 151c49 -37 100 -63 168 -72v117c-128 39 -169 84 -169 170c0 76 66 144 169 155v74h77zM346 145
c0 21 -14 36 -50 51v-95c36 5 50 21 50 44zM173 392c0 -19 12 -33 46 -46v85c-34 -4 -46 -19 -46 -39z" />
    <glyph glyph-name="Euro.sc" horiz-adv-x="520" 
d="M14 290l22 70h50c32 118 131 185 269 185c67 0 112 -10 152 -27l-36 -115c-26 15 -64 24 -106 24c-62 0 -105 -23 -129 -67h222l-22 -70h-218c-1 -8 -1 -15 -1 -23c0 -9 0 -17 1 -25h203l-22 -70h-161c26 -46 74 -67 135 -67c47 0 92 15 132 51h3l-17 -140
c-33 -18 -84 -29 -128 -29c-143 0 -244 65 -277 185h-84l22 70h51c-1 8 -1 16 -1 25c0 8 0 15 1 23h-61z" />
    <glyph glyph-name="cent.sc" horiz-adv-x="520" 
d="M427 609l-25 -103c31 -7 58 -19 82 -34l-35 -135c-23 17 -49 30 -78 38l-55 -228c64 4 112 25 158 72h3l-25 -161c-39 -26 -104 -43 -166 -43h-2l-25 -105h-89l28 117c-102 29 -163 113 -163 231c0 150 101 258 280 258l23 93h89zM170 258c0 -42 20 -79 60 -98l53 223
c-74 -5 -113 -51 -113 -125z" />
    <glyph glyph-name="sterling.sc" horiz-adv-x="520" 
d="M405 317l-33 -99c-35 3 -79 6 -122 7c2 -14 3 -28 3 -42c0 -16 -1 -30 -4 -44c34 -15 70 -32 115 -32c39 0 69 14 103 50h3l-16 -142c-27 -22 -58 -31 -87 -31c-69 0 -117 43 -159 62c-34 -40 -67 -54 -104 -54c-45 0 -74 30 -74 70c0 53 53 103 130 104
c0 18 -4 37 -10 57c-34 -2 -68 -6 -100 -12l27 103l40 3c-8 25 -13 50 -13 74c0 90 74 154 191 154c53 0 102 -14 146 -37l-27 -137c-41 34 -77 48 -115 48c-47 0 -68 -23 -68 -55c0 -14 1 -28 3 -41c50 0 125 -3 171 -6z" />
    <glyph glyph-name="florin.sc" horiz-adv-x="520" 
d="M9 -45l9 134c14 -12 36 -22 63 -22c46 0 76 35 85 132l3 36h-102v99h112c15 150 97 211 225 211c41 0 76 -10 106 -31l-17 -111c-17 14 -38 22 -63 22c-48 0 -74 -23 -82 -91h136v-99h-147l-6 -60c-19 -176 -110 -239 -226 -239c-40 0 -74 8 -96 19z" />
    <glyph glyph-name="yen.sc" horiz-adv-x="520" 
d="M505 231v-90h-166v-141h-170v141h-154v90h154l-35 60h-119v90h68l-86 151h157l101 -203l110 203h160l-94 -151h74v-90h-129l-37 -60h166z" />
    <glyph glyph-name="uni20B9.sc" horiz-adv-x="520" 
d="M17 290l38 90h206c-17 45 -63 62 -126 62h-118l38 90h439l-38 -90h-86c17 -18 29 -38 36 -62h88l-38 -90h-50c-14 -52 -54 -95 -111 -124l148 -166h-218l-173 210v4c118 13 180 39 204 76h-239z" />
    <glyph glyph-name="uni20BA.sc" horiz-adv-x="520" 
d="M20 287v96l58 28v121h157v-56l102 47v-96l-102 -47v-62l102 47v-96l-102 -47v-90c2 -1 4 -1 7 -1c58 0 114 37 144 129l127 -86c-42 -123 -148 -186 -282 -186c-65 0 -114 9 -153 24v145l-58 -28v96l58 28v62z" />
    <glyph glyph-name="zero.onumprop" horiz-adv-x="678" 
d="M339 -14c-177 0 -299 98 -299 280c0 184 122 279 299 279s299 -95 299 -279c0 -182 -122 -280 -299 -280zM339 117c76 0 124 51 124 149s-48 148 -124 148s-124 -52 -124 -148c0 -98 48 -149 124 -149z" />
    <glyph glyph-name="one.onumprop" horiz-adv-x="391" 
d="M311 0h-175v381l-131 -8l20 159h286v-532z" />
    <glyph glyph-name="two.onumprop" horiz-adv-x="498" 
d="M338 207c-21 -20 -51 -43 -81 -64h212l-15 -143h-419v125c56 34 116 76 165 120c43 39 59 66 59 95c0 38 -28 59 -74 59c-50 0 -91 -11 -137 -42l22 157c43 21 100 31 162 31c129 0 192 -75 192 -165c0 -63 -24 -113 -86 -173z" />
    <glyph glyph-name="three.onumprop" horiz-adv-x="527" 
d="M355 200c86 -32 127 -89 127 -161c0 -144 -99 -225 -276 -225c-56 0 -113 9 -167 27l-9 156c42 -22 100 -35 158 -35c78 0 121 28 121 80c0 49 -44 79 -112 79c-43 0 -89 -4 -124 -14l27 156c23 -2 57 -3 84 -3c75 0 115 27 115 77c0 40 -34 65 -83 65
c-54 0 -110 -15 -153 -47l28 167c45 15 92 23 144 23c145 0 232 -69 232 -183c0 -72 -39 -123 -112 -162z" />
    <glyph glyph-name="four.onumprop" horiz-adv-x="625" 
d="M344 -187v187h-327v111l299 421h190v-394h99v-138h-99v-187h-162zM160 138h184v258z" />
    <glyph glyph-name="five.onumprop" horiz-adv-x="508" 
d="M463 532l-21 -149h-215l-13 -102h2c153 0 252 -81 252 -211c0 -159 -133 -267 -357 -267c-29 0 -55 2 -81 7l22 163c25 -5 48 -7 79 -7c119 0 173 38 173 103c0 48 -40 87 -135 87c-36 0 -80 -4 -115 -13l48 389h361z" />
    <glyph glyph-name="six.onumprop" horiz-adv-x="623" 
d="M511 614c-155 0 -252 -64 -296 -170c32 20 73 31 117 31c149 0 246 -92 246 -230c0 -144 -105 -259 -266 -259c-181 0 -272 136 -272 290c0 304 182 497 497 504zM290 359c-41 0 -77 -15 -102 -42c-1 -10 -1 -20 -1 -30c0 -89 44 -151 115 -151c62 0 101 45 101 111
c0 68 -44 112 -113 112z" />
    <glyph glyph-name="seven.onumprop" horiz-adv-x="531" 
d="M42 532h476c-97 -276 -172 -527 -217 -719h-203c63 196 142 392 217 553l-314 -12z" />
    <glyph glyph-name="eight.onumprop" horiz-adv-x="621" 
d="M576 200c0 -120 -117 -213 -266 -213c-159 0 -265 82 -265 206c0 90 49 157 153 198c-94 51 -124 103 -124 176c0 100 92 205 247 205c160 0 244 -97 244 -193c0 -78 -40 -136 -128 -175c89 -49 139 -106 139 -204zM405 217c0 45 -35 82 -104 111
c-69 -30 -97 -65 -97 -108c0 -48 43 -88 95 -88c62 0 106 33 106 85zM240 558c0 -38 29 -70 93 -95c54 29 76 60 76 94c0 45 -34 76 -84 76c-53 0 -85 -30 -85 -75z" />
    <glyph glyph-name="nine.onumprop" horiz-adv-x="598" 
d="M215 -223l-118 144c109 42 189 90 240 150c-8 -1 -15 -1 -21 -1c-169 0 -286 86 -286 229c0 133 109 246 258 246c180 0 280 -126 280 -284c0 -215 -109 -363 -353 -484zM352 174c14 0 28 1 41 3c7 24 10 49 10 76c0 85 -50 143 -112 143c-58 0 -97 -40 -97 -98
c0 -67 54 -124 158 -124z" />
    <glyph glyph-name="zero.onumtab" 
d="M320 -14c-159 0 -269 98 -269 280c0 184 110 279 269 279s269 -95 269 -279c0 -182 -110 -280 -269 -280zM320 117c64 0 104 51 104 149s-40 148 -104 148s-104 -52 -104 -148c0 -98 40 -149 104 -149z" />
    <glyph glyph-name="one.onumtab" 
d="M536 0h-435v143h130v238l-141 -8l20 159h296v-389h130v-143z" />
    <glyph glyph-name="two.onumtab" 
d="M402 190c-20 -15 -47 -32 -73 -47h228l-15 -143h-459v125c62 28 128 65 183 102c63 42 85 74 85 113c0 38 -31 59 -84 59c-58 0 -112 -16 -161 -43l22 148c49 28 115 41 186 41c138 0 202 -75 202 -165c0 -69 -33 -128 -114 -190z" />
    <glyph glyph-name="three.onumtab" 
d="M416 200c86 -32 127 -89 127 -161c0 -144 -103 -225 -286 -225c-56 0 -113 9 -167 27l-9 156c42 -22 100 -35 158 -35c84 0 131 28 131 80c0 49 -48 79 -122 79c-43 0 -89 -4 -124 -14l27 156c23 -2 57 -3 84 -3c82 0 125 27 125 77c0 40 -38 65 -93 65
c-54 0 -110 -15 -153 -47l28 167c45 15 92 23 144 23c151 0 242 -69 242 -183c0 -72 -40 -123 -112 -162z" />
    <glyph glyph-name="four.onumtab" 
d="M337 -187v187h-307v111l299 421h170v-394h99v-138h-99v-187h-162zM163 138h174v244z" />
    <glyph glyph-name="five.onumtab" 
d="M526 532l-21 -149h-235l-13 -103c5 1 13 1 22 1c153 0 252 -81 252 -211c0 -159 -137 -267 -367 -267c-33 0 -62 2 -91 7l22 163c28 -5 54 -7 89 -7c126 0 183 38 183 103c0 48 -43 87 -145 87c-39 0 -87 -4 -125 -13l48 389h381z" />
    <glyph glyph-name="six.onumtab" 
d="M522 614c-155 0 -252 -64 -296 -170c32 20 73 31 117 31c149 0 246 -92 246 -230c0 -144 -105 -259 -266 -259c-181 0 -272 136 -272 290c0 304 182 497 497 504zM301 359c-41 0 -77 -15 -102 -42c-1 -10 -1 -20 -1 -30c0 -89 44 -151 115 -151c62 0 101 45 101 111
c0 68 -44 112 -113 112z" />
    <glyph glyph-name="seven.onumtab" 
d="M75 532h496c-97 -276 -172 -527 -217 -719h-203c63 196 142 392 217 553l-334 -12z" />
    <glyph glyph-name="eight.onumtab" 
d="M586 200c0 -120 -117 -213 -266 -213c-159 0 -265 82 -265 206c0 90 49 157 153 198c-94 51 -124 103 -124 176c0 100 92 205 247 205c160 0 244 -97 244 -193c0 -78 -40 -136 -128 -175c89 -49 139 -106 139 -204zM415 217c0 45 -35 82 -104 111
c-69 -30 -97 -65 -97 -108c0 -48 43 -88 95 -88c62 0 106 33 106 85zM250 558c0 -38 29 -70 93 -95c54 29 76 60 76 94c0 45 -34 76 -84 76c-53 0 -85 -30 -85 -75z" />
    <glyph glyph-name="nine.onumtab" 
d="M236 -223l-118 144c109 42 189 90 240 150c-8 -1 -15 -1 -21 -1c-169 0 -286 86 -286 229c0 133 109 246 258 246c180 0 280 -126 280 -284c0 -215 -109 -363 -353 -484zM373 174c14 0 28 1 41 3c7 24 10 49 10 76c0 85 -50 143 -112 143c-58 0 -97 -40 -97 -98
c0 -67 54 -124 158 -124z" />
    <glyph glyph-name="zero.prop" horiz-adv-x="727" 
d="M357 -16c-193 0 -302 149 -302 397c0 256 131 387 314 387c201 0 303 -131 303 -391c0 -244 -123 -393 -315 -393zM357 130c100 0 143 78 143 256c0 159 -46 244 -136 244c-86 0 -137 -84 -137 -242c0 -166 47 -258 130 -258z" />
    <glyph glyph-name="one.prop" horiz-adv-x="489" 
d="M354 0h-174v602l-137 -20l31 170h280v-752z" />
    <glyph glyph-name="two.prop" horiz-adv-x="615" 
d="M105 723c62 29 126 42 204 42c138 0 229 -87 229 -207c0 -92 -30 -157 -106 -248c-37 -44 -99 -110 -150 -159h297l-17 -151h-522v67c105 107 209 230 270 313c36 49 56 92 56 130c0 55 -33 91 -106 91c-62 0 -129 -22 -191 -66z" />
    <glyph glyph-name="three.prop" horiz-adv-x="582" 
d="M405 397c86 -36 127 -97 127 -179c0 -147 -103 -231 -286 -231c-56 0 -113 9 -167 27l-9 166c42 -22 100 -35 158 -35c84 0 131 30 131 86c0 54 -48 87 -122 87c-47 0 -93 -5 -132 -14l39 160c23 -2 53 -3 80 -3c82 0 125 32 125 89c0 41 -36 68 -89 68
c-57 0 -113 -15 -159 -47l30 171c45 15 92 23 144 23c151 0 242 -70 242 -184c0 -84 -39 -141 -112 -184z" />
    <glyph glyph-name="four.prop" horiz-adv-x="720" 
d="M399 0v192h-359v142l341 418h180v-418h99v-142h-99v-192h-162zM173 334h226v276z" />
    <glyph glyph-name="five.prop" horiz-adv-x="630" 
d="M558 752l-21 -149h-275l-15 -112h2c183 0 302 -93 302 -239c0 -186 -142 -299 -387 -299c-34 0 -66 3 -95 9l13 158c32 -6 61 -9 101 -9c134 0 204 47 204 135c0 62 -56 111 -186 111c-36 0 -80 -4 -115 -13l51 408h421z" />
    <glyph glyph-name="six.prop" horiz-adv-x="649" 
d="M532 614c-158 0 -256 -64 -303 -169c35 19 78 30 124 30c149 0 246 -95 246 -236c0 -149 -118 -253 -272 -253c-185 0 -276 129 -276 290c0 304 186 497 507 504zM311 359c-45 0 -85 -15 -112 -43c-1 -13 -1 -26 -1 -39c0 -83 48 -141 125 -141c66 0 109 43 109 107
c0 72 -48 116 -121 116z" />
    <glyph glyph-name="seven.prop" horiz-adv-x="580" 
d="M61 752h496c-96 -289 -170 -550 -215 -752h-209c68 210 145 416 222 587l-345 -13z" />
    <glyph glyph-name="eight.prop" horiz-adv-x="631" 
d="M581 200c0 -120 -117 -213 -266 -213c-159 0 -265 82 -265 206c0 90 49 157 153 198c-94 51 -124 103 -124 176c0 100 92 205 247 205c160 0 244 -97 244 -193c0 -78 -40 -136 -128 -175c89 -49 139 -106 139 -204zM410 217c0 45 -35 82 -104 111
c-69 -30 -97 -65 -97 -108c0 -48 43 -88 95 -88c62 0 106 33 106 85zM245 558c0 -38 29 -70 93 -95c54 29 76 60 76 94c0 45 -34 76 -84 76c-53 0 -85 -30 -85 -75z" />
    <glyph glyph-name="nine.prop" horiz-adv-x="649" 
d="M252 -31l-124 144c122 43 210 102 261 177c-15 -3 -30 -4 -42 -4c-175 0 -296 89 -296 235c0 135 111 250 264 250c182 0 284 -131 284 -298c0 -225 -105 -380 -347 -504zM383 390c18 0 36 1 52 5c6 24 9 49 9 76c0 90 -58 151 -132 151c-58 0 -97 -41 -97 -102
c0 -70 57 -130 168 -130z" />
    <glyph glyph-name="ampersand.salt" horiz-adv-x="786" 
d="M594 367l148 -53c-26 -67 -60 -125 -101 -173l125 -141h-201l-39 44c-63 -37 -135 -57 -215 -57c-165 0 -261 87 -261 224c0 79 36 143 148 210c-49 63 -72 117 -72 174c0 96 86 185 214 185c135 0 209 -81 209 -175c0 -75 -36 -133 -144 -198l135 -152
c25 34 44 72 54 112zM326 136c35 0 68 8 99 23l-149 171c-43 -33 -60 -62 -60 -96c0 -61 38 -98 110 -98zM277 598c0 -35 12 -60 53 -107c61 37 75 67 75 107c0 33 -27 61 -63 61c-41 0 -65 -26 -65 -61z" />
    <glyph glyph-name="comma.salt" horiz-adv-x="277" 
d="M246 144l-131 -260h-115l97 260h149z" />
    <glyph glyph-name="semicolon.salt" horiz-adv-x="271" 
d="M135 493c54 0 91 -37 91 -91c0 -52 -36 -90 -90 -90c-55 0 -91 36 -91 90s37 91 90 91zM215 144l-131 -260h-115l97 260h149z" />
    <glyph glyph-name="quoteleft.salt" horiz-adv-x="277" 
d="M30 509l131 260h115l-97 -260h-149z" />
    <glyph glyph-name="quoteright.salt" horiz-adv-x="277" 
d="M276 769l-131 -260h-115l97 260h149z" />
    <glyph glyph-name="quotesinglbase.salt" horiz-adv-x="277" 
d="M246 144l-131 -260h-115l97 260h149z" />
    <glyph glyph-name="quotedblleft.salt" horiz-adv-x="446" 
d="M218 509l131 260h115l-97 -260h-149zM18 509l131 260h115l-97 -260h-149z" />
    <glyph glyph-name="quotedblright.salt" horiz-adv-x="446" 
d="M466 769l-131 -260h-115l97 260h149zM266 769l-131 -260h-115l97 260h149z" />
    <glyph glyph-name="quotedblbase.salt" horiz-adv-x="484" 
d="M446 144l-131 -260h-115l97 260h149zM246 144l-131 -260h-115l97 260h149z" />
    <glyph glyph-name="A.salt" horiz-adv-x="805" 
d="M611 0l-66 137h-293l-57 -137h-195l398 800h4l403 -800h-194zM392 483l-93 -216h194z" />
    <glyph glyph-name="G.salt" horiz-adv-x="764" 
d="M449 625c-141 0 -227 -96 -227 -245c0 -145 84 -239 219 -239c37 0 67 6 90 19v116h-136v162h319v-376c-75 -49 -174 -75 -283 -75c-231 0 -391 151 -391 392c0 209 144 406 406 406c88 0 169 -21 238 -62l-17 -200h-3c-43 57 -123 102 -215 102z" />
    <glyph glyph-name="J.salt" horiz-adv-x="495" 
d="M417 772v-499c0 -186 -113 -280 -281 -280c-41 0 -81 6 -116 20l-10 182c38 -34 69 -46 116 -46c71 0 116 41 116 135v488h175z" />
    <glyph glyph-name="M.salt" horiz-adv-x="1010" 
d="M815 804l165 -804h-176l-66 355l-226 -385h-4l-234 391l-68 -361h-176l168 802h4l306 -528l303 530h4z" />
    <glyph glyph-name="N.salt" horiz-adv-x="883" 
d="M85 0v800h4l534 -462v434h175v-800h-4l-534 461v-433h-175z" />
    <glyph glyph-name="V.salt" horiz-adv-x="760" 
d="M0 772h203l171 -414l183 414h203l-387 -805h-4z" />
    <glyph glyph-name="W.salt" horiz-adv-x="1136" 
d="M0 772h194l161 -400l215 433h4l196 -437l172 404h194l-355 -805h-4l-207 437l-231 -437h-4z" />
    <glyph glyph-name="a.sc.salt" horiz-adv-x="610" 
d="M431 0l-36 81h-179l-37 -81h-179l311 565h4l295 -565h-179zM308 307l-52 -114h102z" />
    <glyph glyph-name="g.sc.salt" horiz-adv-x="594" 
d="M347 407c-81 0 -140 -60 -140 -146c0 -89 54 -140 136 -140c18 0 34 4 46 11v67h-80v102h245v-243c-60 -46 -143 -71 -231 -71c-165 0 -286 99 -286 276c0 160 112 282 304 282c69 0 137 -15 188 -45l-29 -154h-3c-35 36 -86 61 -150 61z" />
    <glyph glyph-name="j.sc.salt" horiz-adv-x="431" 
d="M366 532v-299c0 -148 -86 -240 -230 -240c-46 0 -87 7 -116 22l-10 169c26 -27 47 -39 90 -39c58 0 96 38 96 109v278h170z" />
    <glyph glyph-name="m.sc.salt" horiz-adv-x="735" 
d="M606 565l104 -565h-164l-31 182l-142 -211h-4l-148 218l-32 -189h-164l106 565h4l235 -344l232 344h4z" />
    <glyph glyph-name="n.sc.salt" horiz-adv-x="691" 
d="M613 -32l-368 276v-244h-170v555h3l368 -277v254h170v-564h-3z" />
    <glyph glyph-name="v.sc.salt" horiz-adv-x="557" 
d="M-5 532h178l104 -239l107 239h178l-285 -564h-4z" />
    <glyph glyph-name="w.sc.salt" horiz-adv-x="812" 
d="M562 -32l-156 293l-170 -293h-4l-237 564h168l97 -244l147 266h4l135 -267l103 245h168l-251 -564h-4z" />
    <glyph glyph-name="a.salt" horiz-adv-x="631" 
d="M572 17l-163 -38c-5 13 -9 30 -10 44c-41 -28 -90 -40 -135 -40c-144 0 -229 113 -229 258c0 167 111 276 270 276c47 0 91 -12 122 -31l134 20v-374c0 -44 4 -85 11 -115zM309 116c38 0 68 10 87 32v213c-15 15 -40 23 -71 23c-74 0 -120 -54 -120 -142
c0 -76 40 -126 104 -126z" />
    <glyph glyph-name="e.salt" horiz-adv-x="561" 
d="M516 228l-332 -9c14 -68 70 -102 147 -102c67 0 123 20 171 62h3l-11 -141c-38 -32 -100 -55 -185 -55c-154 0 -274 82 -274 265c0 148 102 268 254 268c142 0 232 -88 232 -217c0 -22 -2 -50 -5 -71zM285 395c-55 0 -93 -36 -103 -101l195 5c0 60 -30 96 -92 96z" />
    <glyph glyph-name="g.salt" horiz-adv-x="631" 
d="M85 -198l-6 158c45 -42 108 -65 185 -65c89 0 132 36 132 105v27c-34 -25 -77 -39 -126 -39c-141 0 -235 99 -235 256c0 161 109 273 270 273c52 0 92 -11 128 -31l128 20v-501c0 -144 -105 -242 -286 -242c-80 0 -147 16 -190 39zM319 121c35 0 59 10 77 32v213
c-14 11 -37 18 -65 18c-80 0 -126 -53 -126 -138c0 -79 43 -125 114 -125z" />
    <glyph glyph-name="v.salt" horiz-adv-x="524" 
d="M-5 499h174l88 -223l100 223h172l-281 -531h-3z" />
    <glyph glyph-name="w.salt" horiz-adv-x="819" 
d="M-5 499h172l87 -228l149 256h4l142 -259l104 231h171l-261 -539h-4l-160 287l-167 -294h-4z" />
    <glyph glyph-name="ae.salt" horiz-adv-x="828" 
d="M783 230l-321 -9c13 -67 66 -104 142 -104c66 0 119 20 165 62h3l-11 -141c-40 -34 -99 -55 -183 -55c-86 0 -155 29 -202 87c-55 -48 -135 -84 -222 -84c-83 0 -129 45 -129 115c0 84 56 133 160 171c32 12 82 24 120 28v16c0 43 -26 66 -79 66c-50 0 -102 -18 -137 -50
h-3v137c46 29 107 46 172 46c74 0 125 -22 153 -63c38 40 92 64 151 64c142 0 226 -90 226 -221c0 -19 -2 -47 -5 -65zM558 395c-49 0 -87 -39 -97 -105l183 5c0 64 -29 100 -86 100zM305 133v100c-28 -6 -58 -17 -80 -31c-23 -15 -32 -31 -32 -54c0 -25 13 -40 42 -40
c26 0 54 9 70 25z" />
    <glyph glyph-name="oe.salt" horiz-adv-x="927" 
d="M882 230l-321 -9c13 -67 66 -104 142 -104c67 0 123 22 165 62h3l-11 -141c-40 -34 -99 -55 -183 -55s-151 27 -193 81c-46 -54 -113 -81 -184 -81c-152 0 -265 103 -265 273c0 161 116 261 265 261c77 0 143 -30 187 -84c40 54 100 83 174 83c142 0 226 -90 226 -221
c0 -19 -2 -47 -5 -65zM300 115c59 0 95 46 95 141c0 75 -36 130 -95 130c-56 0 -95 -47 -95 -130c0 -85 33 -141 95 -141zM657 395c-49 0 -87 -39 -97 -105l183 5c0 64 -29 100 -86 100z" />
    <glyph glyph-name="Agrave.salt" horiz-adv-x="805" 
d="M611 0l-66 137h-293l-57 -137h-195l398 800h4l403 -800h-194zM392 483l-93 -216h194zM382 815l-149 159h163l70 -159h-84z" />
    <glyph glyph-name="Aacute.salt" horiz-adv-x="805" 
d="M611 0l-66 137h-293l-57 -137h-195l398 800h4l403 -800h-194zM392 483l-93 -216h194zM571 974l-149 -159h-84l70 159h163z" />
    <glyph glyph-name="Acircumflex.salt" horiz-adv-x="805" 
d="M611 0l-66 137h-293l-57 -137h-195l398 800h4l403 -800h-194zM392 483l-93 -216h194zM491 815l-90 82l-87 -82h-76l99 159h131l99 -159h-76z" />
    <glyph glyph-name="Atilde.salt" horiz-adv-x="805" 
d="M611 0l-66 137h-293l-57 -137h-195l398 800h4l403 -800h-194zM392 483l-93 -216h194zM330 852c-29 0 -52 -22 -54 -48l-55 12c9 96 54 155 110 155c52 0 102 -34 143 -34c31 0 50 21 54 48l55 -12c-9 -96 -54 -155 -110 -155c-52 0 -102 34 -143 34z" />
    <glyph glyph-name="Adieresis.salt" horiz-adv-x="805" 
d="M611 0l-66 137h-293l-57 -137h-195l398 800h4l403 -800h-194zM392 483l-93 -216h194zM281 983c48 0 81 -33 81 -81c0 -46 -32 -80 -80 -80c-49 0 -81 32 -81 80s33 81 80 81zM522 983c48 0 81 -33 81 -81c0 -46 -32 -80 -80 -80c-49 0 -81 32 -81 80s33 81 80 81z" />
    <glyph glyph-name="Amacron.salt" horiz-adv-x="805" 
d="M611 0l-66 137h-293l-57 -137h-195l398 800h4l403 -800h-194zM392 483l-93 -216h194zM569 946v-102h-334v102h334z" />
    <glyph glyph-name="Abreve.salt" horiz-adv-x="805" 
d="M611 0l-66 137h-293l-57 -137h-195l398 800h4l403 -800h-194zM392 483l-93 -216h194zM402 908c57 0 80 30 83 76h61c0 -84 -38 -169 -144 -169c-110 0 -144 85 -144 169h61c3 -46 26 -76 83 -76z" />
    <glyph glyph-name="Aring.salt" horiz-adv-x="805" 
d="M611 0l-66 137h-293l-57 -137h-195l398 800h4l403 -800h-194zM392 483l-93 -216h194zM293 912c0 59 50 109 109 109s109 -50 109 -109s-50 -109 -109 -109s-109 50 -109 109zM344 912c0 -31 27 -58 58 -58s58 27 58 58s-27 58 -58 58s-58 -27 -58 -58z" />
    <glyph glyph-name="Aogonek.salt" horiz-adv-x="805" 
d="M520 -130c0 46 27 86 91 130l-66 137h-293l-57 -137h-195l398 800h4l403 -800c-104 -10 -151 -50 -151 -98c0 -21 14 -37 42 -37c25 0 52 9 74 35h3l-7 -111c-30 -18 -65 -26 -108 -26c-84 0 -138 39 -138 107zM392 483l-93 -216h194z" />
    <glyph glyph-name="Gcircumflex.salt" horiz-adv-x="764" 
d="M449 625c-141 0 -227 -96 -227 -245c0 -145 84 -239 219 -239c37 0 67 6 90 19v116h-136v162h319v-376c-75 -49 -174 -75 -283 -75c-231 0 -391 151 -391 392c0 209 144 406 406 406c88 0 169 -21 238 -62l-17 -200h-3c-43 57 -123 102 -215 102zM515 810l-90 82l-87 -82
h-76l99 159h131l99 -159h-76z" />
    <glyph glyph-name="Gbreve.salt" horiz-adv-x="764" 
d="M449 625c-141 0 -227 -96 -227 -245c0 -145 84 -239 219 -239c37 0 67 6 90 19v116h-136v162h319v-376c-75 -49 -174 -75 -283 -75c-231 0 -391 151 -391 392c0 209 144 406 406 406c88 0 169 -21 238 -62l-17 -200h-3c-43 57 -123 102 -215 102zM426 903
c57 0 80 30 83 76h61c0 -84 -38 -169 -144 -169c-110 0 -144 85 -144 169h61c3 -46 26 -76 83 -76z" />
    <glyph glyph-name="Gdotaccent.salt" horiz-adv-x="764" 
d="M449 625c-141 0 -227 -96 -227 -245c0 -145 84 -239 219 -239c37 0 67 6 90 19v116h-136v162h319v-376c-75 -49 -174 -75 -283 -75c-231 0 -391 151 -391 392c0 209 144 406 406 406c88 0 169 -21 238 -62l-17 -200h-3c-43 57 -123 102 -215 102zM425 979
c51 0 85 -34 85 -85c0 -49 -33 -84 -84 -84c-52 0 -85 33 -85 84s34 85 84 85z" />
    <glyph glyph-name="Gcommaaccent.salt" horiz-adv-x="764" 
d="M449 625c-141 0 -227 -96 -227 -245c0 -145 84 -239 219 -239c37 0 67 6 90 19v116h-136v162h319v-376c-75 -49 -174 -75 -283 -75c-231 0 -391 151 -391 392c0 209 144 406 406 406c88 0 169 -21 238 -62l-17 -200h-3c-43 57 -123 102 -215 102zM488 -49
c9 -17 15 -41 15 -62c0 -43 -20 -73 -97 -126h-75c40 55 50 84 50 117c0 15 -7 33 -16 47z" />
    <glyph glyph-name="IJ.salt" horiz-adv-x="820" 
d="M260 0h-175v772h175v-772zM742 772v-499c0 -186 -113 -280 -281 -280c-41 0 -81 6 -116 20l-10 182c38 -34 69 -46 116 -46c71 0 116 41 116 135v488h175z" />
    <glyph glyph-name="Jcircumflex.salt" horiz-adv-x="495" 
d="M417 772v-499c0 -186 -113 -280 -281 -280c-41 0 -81 6 -116 20l-10 182c38 -34 69 -46 116 -46c71 0 116 41 116 135v488h175zM418 810l-90 82l-87 -82h-76l99 159h131l99 -159h-76z" />
    <glyph glyph-name="Nacute.salt" horiz-adv-x="883" 
d="M85 0v800h4l534 -462v434h175v-800h-4l-534 461v-433h-175zM582 969l-149 -159h-84l70 159h163z" />
    <glyph glyph-name="Ncaron.salt" horiz-adv-x="883" 
d="M85 0v800h4l534 -462v434h175v-800h-4l-534 461v-433h-175zM248 969h76l89 -83l88 83h76l-99 -159h-131z" />
    <glyph glyph-name="Ntilde.salt" horiz-adv-x="883" 
d="M85 0v800h4l534 -462v434h175v-800h-4l-534 461v-433h-175zM341 847c-29 0 -52 -22 -54 -48l-55 12c9 96 54 155 110 155c52 0 102 -34 143 -34c31 0 50 21 54 48l55 -12c-9 -96 -54 -155 -110 -155c-52 0 -102 34 -143 34z" />
    <glyph glyph-name="Ncommaaccent.salt" horiz-adv-x="883" 
d="M85 0v800h4l534 -462v434h175v-800h-4l-534 461v-433h-175zM517 -49c9 -17 15 -41 15 -62c0 -43 -20 -73 -97 -126h-75c40 55 50 84 50 117c0 15 -7 33 -16 47z" />
    <glyph glyph-name="Eng.salt" horiz-adv-x="883" 
d="M85 0v800h4l534 -462v434h175v-800c-1 -129 -79 -209 -207 -209c-41 0 -76 8 -106 22l-21 159c23 -21 43 -29 81 -29c47 0 78 30 78 89v116l-363 313v-433h-175z" />
    <glyph glyph-name="Wgrave.salt" horiz-adv-x="1136" 
d="M0 772h194l161 -400l215 433h4l196 -437l172 404h194l-355 -805h-4l-207 437l-231 -437h-4zM552 815l-149 159h163l70 -159h-84z" />
    <glyph glyph-name="Wacute.salt" horiz-adv-x="1136" 
d="M0 772h194l161 -400l215 433h4l196 -437l172 404h194l-355 -805h-4l-207 437l-231 -437h-4zM741 974l-149 -159h-84l70 159h163z" />
    <glyph glyph-name="Wcircumflex.salt" horiz-adv-x="1136" 
d="M0 772h194l161 -400l215 433h4l196 -437l172 404h194l-355 -805h-4l-207 437l-231 -437h-4zM661 815l-90 82l-87 -82h-76l99 159h131l99 -159h-76z" />
    <glyph glyph-name="Wdieresis.salt" horiz-adv-x="1136" 
d="M0 772h194l161 -400l215 433h4l196 -437l172 404h194l-355 -805h-4l-207 437l-231 -437h-4zM451 983c48 0 81 -33 81 -81c0 -46 -32 -80 -80 -80c-49 0 -81 32 -81 80s33 81 80 81zM692 983c48 0 81 -33 81 -81c0 -46 -32 -80 -80 -80c-49 0 -81 32 -81 80s33 81 80 81z
" />
    <glyph glyph-name="agrave.sc.salt" horiz-adv-x="610" 
d="M431 0l-36 81h-179l-37 -81h-179l311 565h4l295 -565h-179zM308 307l-52 -114h102zM308 631l-163 189h165l67 -189h-69z" />
    <glyph glyph-name="aacute.sc.salt" horiz-adv-x="610" 
d="M431 0l-36 81h-179l-37 -81h-179l311 565h4l295 -565h-179zM308 307l-52 -114h102zM481 820l-163 -189h-69l67 189h165z" />
    <glyph glyph-name="acircumflex.sc.salt" horiz-adv-x="610" 
d="M431 0l-36 81h-179l-37 -81h-179l311 565h4l295 -565h-179zM308 307l-52 -114h102zM397 631l-84 100l-84 -100h-75l106 189h106l106 -189h-75z" />
    <glyph glyph-name="atilde.sc.salt" horiz-adv-x="610" 
d="M431 0l-36 81h-179l-37 -81h-179l311 565h4l295 -565h-179zM308 307l-52 -114h102zM252 686c-29 0 -49 -22 -54 -48l-55 12c10 96 59 155 120 155c44 0 88 -34 123 -34c29 0 49 22 54 48l55 -12c-10 -96 -59 -155 -120 -155c-44 0 -88 34 -123 34z" />
    <glyph glyph-name="adieresis.sc.salt" horiz-adv-x="610" 
d="M431 0l-36 81h-179l-37 -81h-179l311 565h4l295 -565h-179zM308 307l-52 -114h102zM201 797c46 0 77 -31 77 -77c0 -44 -30 -76 -76 -76c-47 0 -77 30 -77 76s31 77 76 77zM424 797c46 0 77 -31 77 -77c0 -44 -30 -76 -76 -76c-47 0 -77 30 -77 76s31 77 76 77z" />
    <glyph glyph-name="amacron.sc.salt" horiz-adv-x="610" 
d="M431 0l-36 81h-179l-37 -81h-179l311 565h4l295 -565h-179zM308 307l-52 -114h102zM459 776v-112h-294v112h294z" />
    <glyph glyph-name="abreve.sc.salt" horiz-adv-x="610" 
d="M431 0l-36 81h-179l-37 -81h-179l311 565h4l295 -565h-179zM308 307l-52 -114h102zM313 734c60 0 83 33 83 86h61c0 -114 -38 -189 -144 -189c-110 0 -144 75 -144 189h61c0 -53 23 -86 83 -86z" />
    <glyph glyph-name="aring.sc.salt" horiz-adv-x="610" 
d="M431 0l-36 81h-179l-37 -81h-179l311 565h4l295 -565h-179zM308 307l-52 -114h102zM200 724c0 61 52 113 113 113s113 -52 113 -113s-52 -113 -113 -113s-113 52 -113 113zM259 724c0 -30 24 -54 54 -54s54 24 54 54s-24 54 -54 54s-54 -24 -54 -54z" />
    <glyph glyph-name="aogonek.sc.salt" horiz-adv-x="610" 
d="M340 -130c0 46 27 86 91 130l-36 81h-179l-37 -81h-179l311 565h4l295 -565c-98 -13 -136 -56 -136 -98c0 -21 14 -37 42 -37c25 0 52 9 74 35h3l-7 -111c-30 -18 -65 -26 -108 -26c-84 0 -138 39 -138 107zM308 307l-52 -114h102z" />
    <glyph glyph-name="gcircumflex.sc.salt" horiz-adv-x="594" 
d="M347 407c-81 0 -140 -60 -140 -146c0 -89 54 -140 136 -140c18 0 34 4 46 11v67h-80v102h245v-243c-60 -46 -143 -71 -231 -71c-165 0 -286 99 -286 276c0 160 112 282 304 282c69 0 137 -15 188 -45l-29 -154h-3c-35 36 -86 61 -150 61zM406 631l-84 100l-84 -100h-75
l106 189h106l106 -189h-75z" />
    <glyph glyph-name="gbreve.sc.salt" horiz-adv-x="594" 
d="M347 407c-81 0 -140 -60 -140 -146c0 -89 54 -140 136 -140c18 0 34 4 46 11v67h-80v102h245v-243c-60 -46 -143 -71 -231 -71c-165 0 -286 99 -286 276c0 160 112 282 304 282c69 0 137 -15 188 -45l-29 -154h-3c-35 36 -86 61 -150 61zM322 734c60 0 83 33 83 86h61
c0 -114 -38 -189 -144 -189c-110 0 -144 75 -144 189h61c0 -53 23 -86 83 -86z" />
    <glyph glyph-name="gdotaccent.sc.salt" horiz-adv-x="594" 
d="M347 407c-81 0 -140 -60 -140 -146c0 -89 54 -140 136 -140c18 0 34 4 46 11v67h-80v102h245v-243c-60 -46 -143 -71 -231 -71c-165 0 -286 99 -286 276c0 160 112 282 304 282c69 0 137 -15 188 -45l-29 -154h-3c-35 36 -86 61 -150 61zM321 819c54 0 91 -37 91 -91
c0 -52 -36 -90 -90 -90c-55 0 -91 36 -91 90s37 91 90 91z" />
    <glyph glyph-name="gcommaaccent.sc.salt" horiz-adv-x="594" 
d="M347 407c-81 0 -140 -60 -140 -146c0 -89 54 -140 136 -140c18 0 34 4 46 11v67h-80v102h245v-243c-60 -46 -143 -71 -231 -71c-165 0 -286 99 -286 276c0 160 112 282 304 282c69 0 137 -15 188 -45l-29 -154h-3c-35 36 -86 61 -150 61zM375 -49c9 -17 15 -41 15 -62
c0 -43 -20 -73 -97 -126h-75c40 55 50 84 50 117c0 15 -7 33 -16 47z" />
    <glyph glyph-name="ij.sc.salt" horiz-adv-x="721" 
d="M240 0h-170v532h170v-532zM656 532v-299c0 -148 -86 -240 -230 -240c-46 0 -87 7 -116 22l-10 169c26 -27 47 -39 90 -39c58 0 96 38 96 109v278h170z" />
    <glyph glyph-name="jcircumflex.sc.salt" horiz-adv-x="431" 
d="M366 532v-299c0 -148 -86 -240 -230 -240c-46 0 -87 7 -116 22l-10 169c26 -27 47 -39 90 -39c58 0 96 38 96 109v278h170zM365 631l-84 100l-84 -100h-75l106 189h106l106 -189h-75z" />
    <glyph glyph-name="nacute.sc.salt" horiz-adv-x="691" 
d="M613 -32l-368 276v-244h-170v555h3l368 -277v254h170v-564h-3zM493 820l-163 -189h-69l67 189h165z" />
    <glyph glyph-name="ncaron.sc.salt" horiz-adv-x="691" 
d="M613 -32l-368 276v-244h-170v555h3l368 -277v254h170v-564h-3zM166 820h75l84 -100l84 100h75l-106 -189h-106z" />
    <glyph glyph-name="ntilde.sc.salt" horiz-adv-x="691" 
d="M613 -32l-368 276v-244h-170v555h3l368 -277v254h170v-564h-3zM264 686c-29 0 -49 -22 -54 -48l-55 12c10 96 59 155 120 155c44 0 88 -34 123 -34c29 0 49 22 54 48l55 -12c-10 -96 -59 -155 -120 -155c-44 0 -88 34 -123 34z" />
    <glyph glyph-name="ncommaaccent.sc.salt" horiz-adv-x="691" 
d="M613 -32l-368 276v-244h-170v555h3l368 -277v254h170v-564h-3zM422 -49c9 -17 15 -41 15 -62c0 -43 -20 -73 -97 -126h-75c40 55 50 84 50 117c0 15 -7 33 -16 47z" />
    <glyph glyph-name="eng.sc.salt" horiz-adv-x="691" 
d="M446 -16v109l-201 151v-244h-170v555h3l368 -277v254h170v-564c-1 -127 -77 -205 -201 -205c-42 0 -76 8 -107 22l-11 136c17 -19 38 -26 71 -26c47 0 78 30 78 89z" />
    <glyph glyph-name="wgrave.sc.salt" horiz-adv-x="812" 
d="M562 -32l-156 293l-170 -293h-4l-237 564h168l97 -244l147 266h4l135 -267l103 245h168l-251 -564h-4zM404 631l-163 189h165l67 -189h-69z" />
    <glyph glyph-name="wacute.sc.salt" horiz-adv-x="812" 
d="M562 -32l-156 293l-170 -293h-4l-237 564h168l97 -244l147 266h4l135 -267l103 245h168l-251 -564h-4zM577 820l-163 -189h-69l67 189h165z" />
    <glyph glyph-name="wcircumflex.sc.salt" horiz-adv-x="812" 
d="M562 -32l-156 293l-170 -293h-4l-237 564h168l97 -244l147 266h4l135 -267l103 245h168l-251 -564h-4zM493 631l-84 100l-84 -100h-75l106 189h106l106 -189h-75z" />
    <glyph glyph-name="wdieresis.sc.salt" horiz-adv-x="812" 
d="M562 -32l-156 293l-170 -293h-4l-237 564h168l97 -244l147 266h4l135 -267l103 245h168l-251 -564h-4zM297 797c46 0 77 -31 77 -77c0 -44 -30 -76 -76 -76c-47 0 -77 30 -77 76s31 77 76 77zM520 797c46 0 77 -31 77 -77c0 -44 -30 -76 -76 -76c-47 0 -77 30 -77 76
s31 77 76 77z" />
    <glyph glyph-name="agrave.salt" horiz-adv-x="631" 
d="M572 17l-163 -38c-5 13 -9 30 -10 44c-41 -28 -90 -40 -135 -40c-144 0 -229 113 -229 258c0 167 111 276 270 276c47 0 91 -12 122 -31l134 20v-374c0 -44 4 -85 11 -115zM309 116c38 0 68 10 87 32v213c-15 15 -40 23 -71 23c-74 0 -120 -54 -120 -142
c0 -76 40 -126 104 -126zM303 598l-163 189h165l67 -189h-69z" />
    <glyph glyph-name="aacute.salt" horiz-adv-x="631" 
d="M572 17l-163 -38c-5 13 -9 30 -10 44c-41 -28 -90 -40 -135 -40c-144 0 -229 113 -229 258c0 167 111 276 270 276c47 0 91 -12 122 -31l134 20v-374c0 -44 4 -85 11 -115zM309 116c38 0 68 10 87 32v213c-15 15 -40 23 -71 23c-74 0 -120 -54 -120 -142
c0 -76 40 -126 104 -126zM476 787l-163 -189h-69l67 189h165z" />
    <glyph glyph-name="acircumflex.salt" horiz-adv-x="631" 
d="M572 17l-163 -38c-5 13 -9 30 -10 44c-41 -28 -90 -40 -135 -40c-144 0 -229 113 -229 258c0 167 111 276 270 276c47 0 91 -12 122 -31l134 20v-374c0 -44 4 -85 11 -115zM309 116c38 0 68 10 87 32v213c-15 15 -40 23 -71 23c-74 0 -120 -54 -120 -142
c0 -76 40 -126 104 -126zM392 598l-84 100l-84 -100h-75l106 189h106l106 -189h-75z" />
    <glyph glyph-name="atilde.salt" horiz-adv-x="631" 
d="M572 17l-163 -38c-5 13 -9 30 -10 44c-41 -28 -90 -40 -135 -40c-144 0 -229 113 -229 258c0 167 111 276 270 276c47 0 91 -12 122 -31l134 20v-374c0 -44 4 -85 11 -115zM309 116c38 0 68 10 87 32v213c-15 15 -40 23 -71 23c-74 0 -120 -54 -120 -142
c0 -76 40 -126 104 -126zM247 653c-29 0 -49 -22 -54 -48l-55 12c10 96 59 155 120 155c44 0 88 -34 123 -34c29 0 49 22 54 48l55 -12c-10 -96 -59 -155 -120 -155c-44 0 -88 34 -123 34z" />
    <glyph glyph-name="adieresis.salt" horiz-adv-x="631" 
d="M572 17l-163 -38c-5 13 -9 30 -10 44c-41 -28 -90 -40 -135 -40c-144 0 -229 113 -229 258c0 167 111 276 270 276c47 0 91 -12 122 -31l134 20v-374c0 -44 4 -85 11 -115zM309 116c38 0 68 10 87 32v213c-15 15 -40 23 -71 23c-74 0 -120 -54 -120 -142
c0 -76 40 -126 104 -126zM196 764c46 0 77 -31 77 -77c0 -44 -30 -76 -76 -76c-47 0 -77 30 -77 76s31 77 76 77zM419 764c46 0 77 -31 77 -77c0 -44 -30 -76 -76 -76c-47 0 -77 30 -77 76s31 77 76 77z" />
    <glyph glyph-name="amacron.salt" horiz-adv-x="631" 
d="M572 17l-163 -38c-5 13 -9 30 -10 44c-41 -28 -90 -40 -135 -40c-144 0 -229 113 -229 258c0 167 111 276 270 276c47 0 91 -12 122 -31l134 20v-374c0 -44 4 -85 11 -115zM309 116c38 0 68 10 87 32v213c-15 15 -40 23 -71 23c-74 0 -120 -54 -120 -142
c0 -76 40 -126 104 -126zM454 743v-112h-294v112h294z" />
    <glyph glyph-name="abreve.salt" horiz-adv-x="631" 
d="M572 17l-163 -38c-5 13 -9 30 -10 44c-41 -28 -90 -40 -135 -40c-144 0 -229 113 -229 258c0 167 111 276 270 276c47 0 91 -12 122 -31l134 20v-374c0 -44 4 -85 11 -115zM309 116c38 0 68 10 87 32v213c-15 15 -40 23 -71 23c-74 0 -120 -54 -120 -142
c0 -76 40 -126 104 -126zM308 701c60 0 83 33 83 86h61c0 -114 -38 -189 -144 -189c-110 0 -144 75 -144 189h61c0 -53 23 -86 83 -86z" />
    <glyph glyph-name="aring.salt" horiz-adv-x="631" 
d="M572 17l-163 -38c-5 13 -9 30 -10 44c-41 -28 -90 -40 -135 -40c-144 0 -229 113 -229 258c0 167 111 276 270 276c47 0 91 -12 122 -31l134 20v-374c0 -44 4 -85 11 -115zM309 116c38 0 68 10 87 32v213c-15 15 -40 23 -71 23c-74 0 -120 -54 -120 -142
c0 -76 40 -126 104 -126zM195 691c0 61 52 113 113 113s113 -52 113 -113s-52 -113 -113 -113s-113 52 -113 113zM254 691c0 -30 24 -54 54 -54s54 24 54 54s-24 54 -54 54s-54 -24 -54 -54z" />
    </font>
</defs>
</svg>
